<svg width="32" height="32" viewBox="0 0 32 32" fill="none" xmlns="http://www.w3.org/2000/svg">
<g clip-path="url(#clip0_1290_39455)">
<path d="M16.0394 11.2428C16.7277 11.2428 17.2856 10.6849 17.2856 9.99664C17.2856 9.30841 16.7277 8.75049 16.0394 8.75049C15.3512 8.75049 14.7933 9.30841 14.7933 9.99664C14.7933 10.6849 15.3512 11.2428 16.0394 11.2428Z" fill="white"/>
<path d="M16.0394 5.61584C16.7277 5.61584 17.2856 5.05792 17.2856 4.36969C17.2856 3.68146 16.7277 3.12354 16.0394 3.12354C15.3512 3.12354 14.7933 3.68146 14.7933 4.36969C14.7933 5.05792 15.3512 5.61584 16.0394 5.61584Z" fill="white"/>
<path d="M16.0394 16.8717C16.7277 16.8717 17.2856 16.3138 17.2856 15.6255C17.2856 14.9373 16.7277 14.3794 16.0394 14.3794C15.3512 14.3794 14.7933 14.9373 14.7933 15.6255C14.7933 16.3138 15.3512 16.8717 16.0394 16.8717Z" fill="white"/>
<path d="M16.0394 22.4987C16.7276 22.4987 17.2855 21.9407 17.2855 21.2525C17.2855 20.5643 16.7276 20.0063 16.0394 20.0063C15.3511 20.0063 14.7932 20.5643 14.7932 21.2525C14.7932 21.9407 15.3511 22.4987 16.0394 22.4987Z" fill="white"/>
<path d="M16.0394 28.1276C16.7277 28.1276 17.2856 27.5696 17.2856 26.8814C17.2856 26.1932 16.7277 25.6353 16.0394 25.6353C15.3512 25.6353 14.7933 26.1932 14.7933 26.8814C14.7933 27.5696 15.3512 28.1276 16.0394 28.1276Z" fill="white"/>
<path d="M3.53735 8.34954V22.821C3.53735 24.3767 4.79557 25.6349 6.35125 25.6349H11.979V23.223H6.35125C6.13016 23.223 5.94926 23.0421 5.94926 22.821V8.34954C5.94926 8.12845 6.13016 7.94756 6.35125 7.94756H11.979V5.53564H6.35125C4.79557 5.53564 3.53735 6.79386 3.53735 8.34954Z" fill="white"/>
<path d="M25.6466 5.53564H20.0188V7.94756H25.6466C25.8677 7.94756 26.0486 8.12845 26.0486 8.34954V22.821C26.0486 23.0421 25.8677 23.223 25.6466 23.223H20.0188V25.6349H25.6466C27.2023 25.6349 28.4605 24.3767 28.4605 22.821V8.34954C28.4605 6.79386 27.2023 5.53564 25.6466 5.53564Z" fill="white"/>
</g>
<defs>
<clipPath id="clip0_1290_39455">
<rect width="24.9231" height="25.7538" fill="white" transform="translate(3.53735 3.12354)"/>
</clipPath>
</defs>
</svg>
