<svg width="33" height="32" viewBox="0 0 33 32" fill="none" xmlns="http://www.w3.org/2000/svg">
<path d="M16.4123 10.6846C14.8816 10.6846 13.643 11.8736 13.643 13.3431C13.643 14.8124 14.8816 16.0015 16.4123 16.0015C17.943 16.0015 19.1815 14.8124 19.1815 13.3431C19.1815 11.8736 17.943 10.6846 16.4123 10.6846ZM16.4123 17.3307C14.5626 17.3307 12.2584 18.2913 12.2584 20.0566V21.3184H20.5661V20.0566C20.5661 18.2913 18.2621 17.3307 16.4123 17.3307Z" fill="white"/>
<path d="M24.7203 21.4002C24.7203 20.2522 25.688 19.3232 26.8838 19.3232C28.0796 19.3232 29.0473 20.2522 29.0473 21.4002C29.0473 22.5482 28.0796 23.4771 26.8838 23.4771C25.688 23.4771 24.7203 22.5482 24.7203 21.4002Z" fill="white"/>
<path d="M3.95081 21.4002C3.95081 20.2522 4.91845 19.3232 6.11423 19.3232C7.31009 19.3232 8.27773 20.2522 8.27773 21.4002C8.27773 22.5482 7.31009 23.4771 6.11423 23.4771C4.91845 23.4771 3.95081 22.5482 3.95081 21.4002Z" fill="white"/>
<path d="M24.7201 10.6014C24.7201 9.45335 25.6877 8.52441 26.8835 8.52441C28.0794 8.52441 29.047 9.45335 29.047 10.6014C29.047 11.7493 28.0794 12.6783 26.8835 12.6783C25.6877 12.6783 24.7201 11.7493 24.7201 10.6014Z" fill="white"/>
<path d="M3.95081 10.6014C3.95081 9.45335 4.91845 8.52441 6.11423 8.52441C7.31009 8.52441 8.27773 9.45335 8.27773 10.6014C8.27773 11.7493 7.31009 12.6783 6.11423 12.6783C4.91845 12.6783 3.95081 11.7493 3.95081 10.6014Z" fill="white"/>
<path d="M14.2487 4.78497C14.2487 3.63694 15.2163 2.70801 16.4121 2.70801C17.6079 2.70801 18.5756 3.63694 18.5756 4.78497C18.5756 5.93292 17.6079 6.86185 16.4121 6.86185C15.2163 6.86185 14.2487 5.93292 14.2487 4.78497Z" fill="white"/>
<path d="M14.2487 27.2166C14.2487 26.0686 15.2163 25.1396 16.4121 25.1396C17.6079 25.1396 18.5756 26.0686 18.5756 27.2166C18.5756 28.3646 17.6079 29.2935 16.4121 29.2935C15.2163 29.2935 14.2487 28.3646 14.2487 27.2166Z" fill="white"/>
</svg>
