<svg width="32" height="32" viewBox="0 0 32 32" fill="none" xmlns="http://www.w3.org/2000/svg">
<path fill-rule="evenodd" clip-rule="evenodd" d="M16 5.78564C11.1011 5.78564 6.96487 9.40794 6.01261 14.2759L6.65909 13.7961L7.85105 15.4021L4.69602 17.7437L1.98718 14.9291L3.42822 13.5422L4.00436 14.1408C5.03663 8.27505 9.98722 3.78564 16 3.78564V5.78564ZM27.304 15.0891L30.0128 17.9038L28.5718 19.2906L27.9957 18.692C26.9634 24.5578 22.0128 29.0472 16 29.0472V27.0472C20.8989 27.0472 25.0352 23.4249 25.9874 18.5569L25.3409 19.0367L24.149 17.4307L27.304 15.0891Z" fill="white"/>
<path d="M16.6232 8.58447L15.377 14.2812H22.8539L15.377 24.2504L16.6232 18.5537H9.14624L16.6232 8.58447Z" fill="white"/>
<path d="M19.7391 5.61584C20.4273 5.61584 20.9852 5.05792 20.9852 4.36969C20.9852 3.68146 20.4273 3.12354 19.7391 3.12354C19.0508 3.12354 18.4929 3.68146 18.4929 4.36969C18.4929 5.05792 19.0508 5.61584 19.7391 5.61584Z" fill="white"/>
<path d="M12.2615 28.8776C12.9498 28.8776 13.5077 28.3196 13.5077 27.6314C13.5077 26.9432 12.9498 26.3853 12.2615 26.3853C11.5733 26.3853 11.0154 26.9432 11.0154 27.6314C11.0154 28.3196 11.5733 28.8776 12.2615 28.8776Z" fill="white"/>
</svg>
