<svg width="166" height="32" viewBox="0 0 166 32" fill="none" xmlns="http://www.w3.org/2000/svg">
<g clip-path="url(#clip0_2343_5143)">
<path d="M42.1742 27.337C40.4708 27.3254 38.7962 26.8961 37.2972 26.087C35.7424 25.2844 34.394 24.1334 33.3572 22.724C33.2897 22.6406 33.2396 22.5445 33.2099 22.4414C33.1802 22.3383 33.1716 22.2303 33.1845 22.1237C33.1973 22.0172 33.2315 21.9144 33.2849 21.8213C33.3382 21.7282 33.4098 21.6468 33.4952 21.582L35.3802 19.917C35.533 19.7791 35.7324 19.7044 35.9382 19.708H36.0752C36.1956 19.7264 36.3108 19.77 36.4133 19.8358C36.5158 19.9016 36.6033 19.9882 36.6702 20.09C37.3072 21.1133 38.1794 21.9697 39.2142 22.5879C40.2042 23.1779 41.3362 23.488 42.4892 23.488C43.7432 23.488 44.6852 23.243 45.2762 22.724C45.8562 22.237 46.1672 21.504 46.1132 20.75C46.1437 20.3505 46.0773 19.9496 45.9195 19.5814C45.7618 19.2131 45.5174 18.8885 45.2072 18.635C44.4742 18.08 43.2892 17.56 41.6522 17.075C36.7992 15.896 34.3722 13.608 34.3722 10.238C34.3722 8.15895 35.0682 6.53095 36.4632 5.38795C37.8592 4.24695 39.6702 3.72395 41.9722 3.72395C43.5253 3.67718 45.0676 3.99811 46.4731 4.66057C47.8786 5.32302 49.1078 6.30826 50.0602 7.53595C50.1974 7.70819 50.263 7.92663 50.2435 8.14597C50.2239 8.3653 50.1207 8.56869 49.9552 8.71395L48.1232 10.242C47.9722 10.3828 47.7716 10.4583 47.5652 10.452H47.4602C47.3425 10.4407 47.2287 10.4038 47.1268 10.3438C47.0248 10.2839 46.9373 10.2023 46.8702 10.1049C46.3084 9.29239 45.5699 8.61753 44.7102 8.13095C43.8556 7.70374 42.9106 7.48867 41.9552 7.50395C41.0068 7.46642 40.0697 7.7205 39.2702 8.23195C38.9832 8.43592 38.7506 8.70709 38.5927 9.02174C38.4347 9.3364 38.3563 9.68497 38.3642 10.037C38.3272 10.757 38.6382 11.4519 39.2012 11.9069C39.8652 12.462 41.0502 12.912 42.7202 13.327C44.9892 13.954 46.7642 14.782 48.0542 15.86C49.4142 17.038 50.1132 18.675 50.1132 20.746C50.1192 21.969 49.7538 23.1651 49.0652 24.176C48.3626 25.2045 47.3807 26.0108 46.2352 26.5C44.9638 27.087 43.5742 27.3735 42.1742 27.337ZM60.2202 27.405C58.7486 27.4415 57.2972 27.0563 56.0372 26.295C54.8147 25.5685 53.8233 24.5102 53.1782 23.243C52.48 21.8952 52.1327 20.3933 52.1682 18.8759C52.1287 17.3696 52.4765 15.8784 53.1782 14.545C53.8257 13.2801 54.817 12.2236 56.0382 11.497C57.2977 10.7676 58.7278 10.3847 60.1832 10.387C61.4014 10.3598 62.6047 10.658 63.6692 11.251C64.6908 11.8522 65.5896 12.641 66.3182 13.576C66.4515 13.7522 66.5116 13.9732 66.4859 14.1927C66.4602 14.4122 66.3507 14.6133 66.1802 14.754L64.6482 15.96C64.4945 16.0702 64.3113 16.1319 64.1222 16.1369H63.9842C63.8719 16.1209 63.7642 16.0815 63.668 16.0212C63.5719 15.9609 63.4895 15.8811 63.4262 15.787C63.0902 15.2376 62.619 14.7836 62.0575 14.4683C61.4961 14.153 60.8632 13.9869 60.2192 13.986C59.4595 13.9878 58.714 14.1917 58.0592 14.577C57.4036 14.9833 56.8819 15.5734 56.5592 16.274C56.1971 17.0929 56.0101 17.9785 56.0101 18.874C56.0101 19.7694 56.1971 20.655 56.5592 21.474C56.8802 22.184 57.4012 22.786 58.0592 23.207C58.6994 23.6253 59.4554 23.8307 60.2192 23.794C60.9165 23.8347 61.6126 23.6963 62.2412 23.392C62.8112 23.082 63.3112 22.658 63.7052 22.145C63.8411 21.9786 64.034 21.8688 64.2463 21.8368C64.4587 21.8048 64.6754 21.853 64.8542 21.972L66.4962 23.114C66.5873 23.1776 66.6648 23.2587 66.7245 23.3524C66.7841 23.4461 66.8247 23.5507 66.8438 23.6602C66.863 23.7696 66.8603 23.8818 66.836 23.9902C66.8117 24.0986 66.7662 24.2011 66.7022 24.292C66.7029 24.2966 66.7027 24.3013 66.7014 24.3057C66.7001 24.3102 66.6979 24.3144 66.6948 24.3179C66.6918 24.3214 66.688 24.3242 66.6837 24.3261C66.6795 24.328 66.6749 24.329 66.6702 24.329C65.9122 25.2613 64.9601 26.0171 63.8802 26.544C62.7448 27.1144 61.4909 27.4094 60.2202 27.405ZM75.8702 27.405C74.4301 27.4368 73.01 27.0636 71.7717 26.3277C70.5334 25.5919 69.5267 24.523 68.8662 23.243C68.1939 21.8918 67.8439 20.4031 67.8439 18.8939C67.8439 17.3848 68.1939 15.8961 68.8662 14.545C69.5146 13.27 70.5093 12.2037 71.7361 11.4682C72.9629 10.7328 74.3722 10.358 75.8022 10.387C76.9503 10.3795 78.0843 10.6397 79.1142 11.147C79.4602 11.323 79.7862 11.533 80.0892 11.774V11.702C80.0928 11.4815 80.1823 11.2711 80.3386 11.1155C80.4949 10.96 80.7057 10.8715 80.9262 10.869H83.0212C83.4812 10.876 83.8512 11.245 83.8582 11.702V26.054C83.8543 26.2739 83.7646 26.4836 83.6082 26.6383C83.4518 26.793 83.2412 26.8804 83.0212 26.882H80.9312C80.7111 26.8807 80.5002 26.7933 80.3436 26.6386C80.187 26.4839 80.0971 26.2741 80.0932 26.054V26.018C79.7772 26.227 79.4662 26.42 79.1512 26.608C78.1427 27.1464 77.0133 27.4206 75.8702 27.405ZM75.8022 13.99C75.0523 13.9868 74.3161 14.1914 73.6752 14.581C73.0375 15.0081 72.5208 15.5926 72.1752 16.278C71.7999 17.0921 71.6103 17.9795 71.6202 18.8759C71.5951 19.7853 71.7849 20.6878 72.1742 21.51C72.4945 22.2216 73.0159 22.824 73.6742 23.243C74.3012 23.663 75.0472 23.871 75.8022 23.834C76.5731 23.8312 77.33 23.6275 77.9982 23.243C78.6564 22.8249 79.1767 22.2221 79.4942 21.51C79.8575 20.692 80.0452 19.807 80.0452 18.912C80.0452 18.0169 79.8575 17.1319 79.4942 16.3139C79.1628 15.6196 78.6448 15.031 77.9982 14.614C77.3526 14.1747 76.5823 13.9559 75.8022 13.99ZM87.4462 3.84395H89.5362C89.9962 3.85095 90.3672 4.21995 90.3742 4.67695V26.062C90.3703 26.2823 90.2807 26.4924 90.1245 26.6477C89.9682 26.8031 89.7575 26.8914 89.5372 26.8939H87.4462C87.2257 26.8916 87.0148 26.8034 86.8583 26.6481C86.7018 26.4927 86.6121 26.2824 86.6082 26.062V4.67695C86.6043 4.56631 86.6233 4.45607 86.6641 4.35315C86.7049 4.25023 86.7666 4.15687 86.8452 4.07895C86.9239 4.00086 87.0177 3.93972 87.1209 3.8993C87.2241 3.85888 87.3355 3.84005 87.4462 3.84395ZM124.078 26.9179C123.897 26.9247 123.719 26.8705 123.572 26.7641C123.426 26.6577 123.319 26.5052 123.269 26.3309L120.515 17.77L117.555 26.363C117.5 26.5313 117.391 26.6768 117.244 26.7771C117.098 26.8773 116.923 26.9268 116.746 26.9179H114.655C114.474 26.925 114.296 26.871 114.149 26.7646C114.002 26.6581 113.896 26.5054 113.846 26.3309L109.07 11.9799C109.009 11.7916 109.016 11.5879 109.09 11.4043C109.164 11.2207 109.3 11.0688 109.474 10.975C109.616 10.9078 109.77 10.8723 109.927 10.871H112.14C112.322 10.8643 112.5 10.9188 112.647 11.0259C112.793 11.1329 112.899 11.2861 112.948 11.461L115.844 20.405L118.78 11.45C118.837 11.2792 118.945 11.1304 119.09 11.0243C119.235 10.9181 119.409 10.86 119.589 10.858H121.648C121.83 10.8515 122.009 10.9064 122.155 11.0138C122.302 11.1211 122.408 11.2748 122.457 11.45L125.288 20.2959L128.147 11.45C128.203 11.2792 128.312 11.1302 128.457 11.0241C128.602 10.9179 128.776 10.8598 128.956 10.858H130.945C131.064 10.868 131.181 10.893 131.293 10.931C131.491 11.0095 131.652 11.1603 131.743 11.3528C131.834 11.5453 131.848 11.7652 131.783 11.968L127.043 26.3279C126.987 26.498 126.878 26.6461 126.733 26.7514C126.588 26.8567 126.413 26.9139 126.234 26.915L124.078 26.919V26.9179ZM140.288 27.405C138.849 27.4341 137.429 27.0597 136.191 26.3242C134.953 25.5886 133.946 24.5213 133.283 23.243C132.613 21.8912 132.264 20.4028 132.264 18.8939C132.264 17.3851 132.613 15.8967 133.283 14.545C133.935 13.2646 134.935 12.1948 136.169 11.459C137.403 10.7233 138.82 10.3516 140.256 10.387C141.396 10.3904 142.519 10.666 143.531 11.191C143.876 11.366 144.203 11.5749 144.506 11.8149V11.746C144.509 11.5219 144.597 11.3074 144.753 11.1461C144.908 10.9848 145.119 10.8889 145.343 10.878H147.471C147.93 10.884 148.301 11.253 148.308 11.71V26.062C148.304 26.2818 148.214 26.4914 148.058 26.646C147.902 26.8006 147.691 26.8882 147.471 26.8899H145.38C145.16 26.8884 144.949 26.801 144.793 26.6463C144.636 26.4917 144.546 26.282 144.542 26.062V26.0259C144.24 26.2418 143.926 26.4391 143.6 26.617C142.578 27.148 141.44 27.4187 140.288 27.405ZM140.256 13.99C139.506 13.9866 138.769 14.1912 138.128 14.581C137.49 15.0073 136.973 15.592 136.628 16.278C136.235 17.0861 136.044 17.9776 136.07 18.8759C136.046 19.7859 136.237 20.687 136.628 21.51C136.947 22.22 137.469 22.823 138.128 23.243C138.755 23.6641 139.502 23.8713 140.256 23.834C141.016 23.8361 141.762 23.6322 142.415 23.2439C143.074 22.8248 143.596 22.2221 143.916 21.51C144.279 20.6919 144.467 19.8069 144.467 18.912C144.467 18.017 144.279 17.132 143.916 16.3139C143.593 15.6126 143.071 15.0214 142.415 14.614C141.783 14.1752 141.025 13.956 140.256 13.99ZM105.92 21.86C105.727 21.7248 105.491 21.6674 105.257 21.6993C105.024 21.7312 104.812 21.85 104.662 22.0319C104.288 22.5149 103.827 22.9242 103.303 23.239C102.484 23.6566 101.573 23.8599 100.654 23.83C100.099 23.8583 99.5441 23.7609 99.0316 23.545C98.5191 23.3291 98.0619 23.0002 97.6942 22.583C97.1125 21.8968 96.7156 21.0734 96.5412 20.191H107.46C107.67 20.1922 107.873 20.1143 108.029 19.9728C108.184 19.8312 108.28 19.6363 108.298 19.427C108.328 19.105 108.339 18.781 108.33 18.457C108.348 17.0419 108.001 15.6462 107.323 14.404C106.664 13.1869 105.686 12.1725 104.494 11.4697C103.302 10.7668 101.941 10.4022 100.557 10.415C99.1114 10.4085 97.6905 10.792 96.4442 11.525C95.2299 12.2528 94.2479 13.3114 93.6132 14.577C92.9356 15.9193 92.5889 17.4043 92.6022 18.908C92.5692 20.4251 92.9165 21.9264 93.6122 23.275C94.2697 24.5338 95.2586 25.5892 96.4722 26.327C97.7453 27.0554 99.1874 27.4368 100.654 27.433C102.169 27.4696 103.668 27.1239 105.014 26.4279C105.999 25.8772 106.864 25.1346 107.557 24.2439C107.633 24.1464 107.688 24.035 107.72 23.9159C107.752 23.7969 107.761 23.6727 107.745 23.5504C107.729 23.4282 107.688 23.3103 107.627 23.2036C107.565 23.097 107.482 23.0036 107.384 22.929C107.379 22.9291 107.375 22.9283 107.37 22.9265C107.366 22.9248 107.362 22.9221 107.358 22.9188C107.355 22.9154 107.352 22.9114 107.35 22.907C107.348 22.9025 107.347 22.8978 107.347 22.893L105.92 21.86ZM97.9362 14.995C98.2903 14.6491 98.711 14.3788 99.1727 14.2006C99.6344 14.0223 100.128 13.9398 100.622 13.958C101.77 13.958 102.676 14.231 103.303 14.858C103.825 15.3823 104.188 16.0433 104.35 16.7649H96.7712C97.016 16.092 97.4149 15.4858 97.9362 14.995ZM165.35 11.252C165.267 11.1468 165.161 11.0613 165.041 11.0015C164.921 10.9417 164.789 10.9091 164.655 10.906H162.669C162.309 10.906 161.988 11.126 161.86 11.461L157.783 21.916L153.913 11.412C153.843 11.2567 153.729 11.1252 153.585 11.0333C153.442 10.9414 153.275 10.893 153.104 10.894H150.908C150.769 10.8926 150.632 10.9271 150.51 10.994C150.388 11.0609 150.286 11.158 150.212 11.276C150.132 11.3924 150.083 11.5276 150.07 11.6685C150.058 11.8094 150.082 11.9511 150.14 12.08L155.818 26.9869C155.725 27.5385 155.426 28.0341 154.981 28.374C154.459 28.72 153.448 28.7559 152.89 28.7759C152.658 28.7867 152.438 28.886 152.276 29.0535C152.114 29.221 152.023 29.4441 152.02 29.677V31.097C152.019 31.2159 152.042 31.334 152.087 31.444C152.132 31.5541 152.199 31.654 152.284 31.7379C152.368 31.8218 152.468 31.8879 152.579 31.9324C152.689 31.9769 152.807 31.9988 152.926 31.997C153.796 31.997 155.227 32.066 156.344 31.511C158.641 30.304 158.956 28.808 159.619 27.111L165.439 12C165.475 11.8756 165.485 11.7454 165.47 11.617C165.455 11.4885 165.414 11.3644 165.35 11.252ZM11.9392 23.774C11.444 23.7785 10.9672 23.5861 10.6137 23.2392C10.2602 22.8923 10.059 22.4192 10.0542 21.924C10.0533 21.6788 10.1007 21.4358 10.1936 21.2089C10.2866 20.9821 10.4234 20.7757 10.5961 20.6017C10.7688 20.4277 10.9741 20.2894 11.2003 20.1947C11.4264 20.1001 11.669 20.0509 11.9142 20.0499H14.2162C14.8862 20.0499 15.4292 19.51 15.4292 18.844V14.215C15.4292 13.194 16.2622 12.365 17.2892 12.365C18.3172 12.365 19.1492 13.194 19.1492 14.215V21.502C19.117 22.0682 18.8869 22.6052 18.4991 23.019C18.1112 23.4328 17.5902 23.6972 17.0272 23.766H11.9392V23.774Z" fill="black"/>
<path d="M11.9392 23.6729H17.0192C17.5574 23.6077 18.0554 23.3546 18.4253 22.9581C18.7952 22.5617 19.0133 22.0474 19.0412 21.5059V14.2159C19.0412 13.2489 18.2532 12.4659 17.2812 12.4659C16.3102 12.4659 15.5222 13.2489 15.5222 14.2159V18.8439C15.519 19.1908 15.3794 19.5225 15.1334 19.7671C14.8875 20.0117 14.5551 20.1496 14.2082 20.1509H11.9152C11.4498 20.1514 11.0035 20.3361 10.6737 20.6645C10.344 20.993 10.1576 21.4385 10.1552 21.9039V21.9279C10.161 22.3957 10.352 22.8421 10.6865 23.1692C11.0209 23.4963 11.4714 23.6775 11.9392 23.6729ZM8.89418 18.3289C8.65058 18.3296 8.40923 18.2823 8.18392 18.1896C7.95861 18.097 7.75375 17.9609 7.58103 17.7891C7.40831 17.6174 7.27112 17.4132 7.17729 17.1884C7.08347 16.9636 7.03484 16.7225 7.03418 16.4789V9.18992C7.0646 8.62328 7.29334 8.08539 7.68036 7.6704C8.06739 7.2554 8.58804 6.98975 9.15118 6.91992H14.2432C14.7364 6.9193 15.2102 7.11223 15.5627 7.45724C15.9152 7.80225 16.1182 8.27179 16.1282 8.76492C16.1332 9.25992 15.9402 9.73692 15.5912 10.0889C15.2412 10.4419 14.7652 10.6409 14.2672 10.6429H11.9622C11.2922 10.6429 10.7492 11.1829 10.7492 11.8499V16.4779C10.7492 17.4979 9.91918 18.3259 8.89318 18.3279L8.89418 18.3289Z" fill="black"/>
<path d="M14.2441 7.0249H9.16408C8.62526 7.08921 8.12661 7.3422 7.75651 7.73904C7.3864 8.13587 7.16873 8.65092 7.14208 9.1929V16.4829C7.12713 16.7997 7.19872 17.1147 7.34917 17.3939C7.49962 17.6731 7.72325 17.9061 7.99608 18.0679C8.26943 18.2304 8.58156 18.3162 8.89958 18.3162C9.21759 18.3162 9.52972 18.2304 9.80308 18.0679C10.3601 17.7359 10.6881 17.1279 10.6571 16.4829V11.8509C10.6561 11.5039 10.7941 11.1709 11.0411 10.9269C11.1635 10.8055 11.3086 10.7094 11.4682 10.6442C11.6278 10.579 11.7987 10.5459 11.9711 10.5469H14.2681C14.7326 10.5464 15.1782 10.3624 15.5078 10.0351C15.8374 9.70772 16.0244 9.26344 16.0281 8.7989V8.7739C16.0181 8.3071 15.8259 7.86272 15.4925 7.53585C15.1591 7.20898 14.711 7.02558 14.2441 7.0249Z" fill="black"/>
<path d="M15.045 3.73603C16.9915 3.73306 18.8596 4.50273 20.239 5.87603C20.9195 6.55361 21.4589 7.35944 21.8259 8.24687C22.1928 9.1343 22.3802 10.0857 22.377 11.046V25.07C22.2915 25.5455 22.0576 25.9816 21.7089 26.3159C21.3602 26.6502 20.9146 26.8656 20.436 26.931H11.06C9.11724 26.933 7.2527 26.1658 5.874 24.797C5.1941 24.1214 4.65462 23.3179 4.28665 22.4328C3.91869 21.5477 3.7295 20.5985 3.73 19.64V6.00403C3.72943 5.40293 3.96605 4.82589 4.38846 4.39824C4.81087 3.97059 5.38495 3.72687 5.986 3.72003L15.045 3.73603ZM15.077 2.57447e-05H5.844C2.616 0.00702574 0.002 2.61003 0 5.81903V19.709C0.000251898 21.1506 0.285883 22.5779 0.840423 23.9085C1.39496 25.2392 2.20744 26.4469 3.231 27.462C5.30569 29.5197 8.11098 30.6717 11.033 30.666H20.796C23.578 30.443 25.808 28.283 26.106 25.523V10.938C26.1042 9.49796 25.8174 8.07249 25.2622 6.74375C24.7069 5.41502 23.8943 4.20928 22.871 3.19603C20.7977 1.14277 17.9959 -0.00627113 15.078 2.57447e-05H15.077Z" fill="black"/>
</g>
<defs>
<clipPath id="clip0_2343_5143">
<rect width="166" height="32" fill="white"/>
</clipPath>
</defs>
</svg>
