<?xml version="1.0" encoding="UTF-8"?><svg xmlns="http://www.w3.org/2000/svg" xmlns:xlink="http://www.w3.org/1999/xlink" viewBox="0 0 904 580"><defs><style>.bl,.bm,.bn,.bo,.bp,.bq,.br,.bs,.bt,.bu,.bv,.bw,.bx,.by,.bz,.ca,.cb,.cc,.cd,.ce,.cf,.cg,.ch,.ci,.cj,.ck,.cl,.cm,.cn,.co,.cp,.cq,.cr,.cs,.ct,.cu,.cv,.cw,.cx,.cy,.cz,.da,.db,.dc,.dd,.de,.df,.dg,.dh,.di,.dj,.dk,.dl{fill:none;}.dm{fill:url(#bf);}.dn{fill:url(#be);}.do{mask:url(#bc);}.dp{isolation:isolate;}.dq{filter:url(#bd);}.bm{stroke:url(#z);}.bm,.bn,.bo,.bp,.bq,.br,.bs,.bt,.bu,.bv,.bw,.bx,.by,.bz,.ca,.cb,.cc,.cd,.ce,.cf,.cg,.ch,.ci,.cj,.ck,.cl,.cm,.cn,.co,.cp,.cq,.cr,.cs,.ct,.cu,.cv,.cw,.cx,.cy,.cz,.da,.db,.dc,.dd,.de,.df,.dg,.dh,.di,.dj,.dk,.dl{stroke-miterlimit:10;stroke-width:2px;}.bn{stroke:url(#x);}.bo{stroke:url(#y);}.bp{stroke:url(#t);}.bq{stroke:url(#v);}.br{stroke:url(#w);}.bs{stroke:url(#u);}.bt{stroke:url(#g);}.bu{stroke:url(#h);}.bv{stroke:url(#q);}.bw{stroke:url(#e);}.bx{stroke:url(#f);}.by{stroke:url(#k);}.bz{stroke:url(#j);}.ca{stroke:url(#p);}.cb{stroke:url(#s);}.cc{stroke:url(#n);}.cd{stroke:url(#l);}.ce{stroke:url(#m);}.cf{stroke:url(#r);}.cg{stroke:url(#o);}.ch{stroke:url(#d);}.ci{stroke:url(#i);}.cj{stroke:url(#c);}.dr{opacity:.55;}.ds{clip-path:url(#b);}.dt{mix-blend-mode:luminosity;}.du{fill:#f63;}.ck{stroke:url(#ba);}.cl{stroke:url(#bb);}.cm{stroke:url(#aw);}.cn{stroke:url(#ap);}.co{stroke:url(#ay);}.cp{stroke:url(#ar);}.cq{stroke:url(#at);}.cr{stroke:url(#an);}.cs{stroke:url(#ad);}.ct{stroke:url(#aj);}.cu{stroke:url(#ai);}.cv{stroke:url(#ab);}.cw{stroke:url(#au);}.cx{stroke:url(#ao);}.cy{stroke:url(#av);}.cz{stroke:url(#ak);}.da{stroke:url(#ax);}.db{stroke:url(#ac);}.dc{stroke:url(#al);}.dd{stroke:url(#am);}.de{stroke:url(#aq);}.df{stroke:url(#aa);}.dg{stroke:url(#ae);}.dh{stroke:url(#af);}.di{stroke:url(#ag);}.dj{stroke:url(#as);}.dk{stroke:url(#az);}.dl{stroke:url(#ah);}</style><clipPath id="b"><rect class="bl" y="-260" width="904" height="840" rx="40" ry="40"/></clipPath><linearGradient id="c" x1="-312.67" y1="594.82" x2="-312.67" y2="152.08" gradientUnits="userSpaceOnUse"><stop offset="0" stop-color="#a8a2a1"/><stop offset="1" stop-color="#414141"/></linearGradient><linearGradient id="d" x1="-282.66" y1="594.81" x2="-282.66" y2="152.09" xlink:href="#c"/><linearGradient id="e" x1="-252.66" y1="594.79" x2="-252.66" y2="152.1" xlink:href="#c"/><linearGradient id="f" x1="-222.65" y1="594.78" x2="-222.65" y2="152.11" xlink:href="#c"/><linearGradient id="g" x1="-192.64" y1="594.77" x2="-192.64" y2="152.13" xlink:href="#c"/><linearGradient id="h" x1="-162.64" y1="594.75" x2="-162.64" y2="152.14" xlink:href="#c"/><linearGradient id="i" x1="-132.63" y1="594.74" x2="-132.63" y2="152.16" xlink:href="#c"/><linearGradient id="j" x1="-102.62" y1="594.72" x2="-102.62" y2="152.18" xlink:href="#c"/><linearGradient id="k" x1="-72.62" y1="594.7" x2="-72.62" y2="152.2" xlink:href="#c"/><linearGradient id="l" x1="-42.61" y1="594.68" x2="-42.61" y2="152.22" xlink:href="#c"/><linearGradient id="m" x1="-12.6" y1="594.65" x2="-12.6" y2="152.24" xlink:href="#c"/><linearGradient id="n" x1="17.4" y1="594.63" x2="17.4" y2="152.27" xlink:href="#c"/><linearGradient id="o" x1="47.41" y1="594.6" x2="47.41" y2="152.29" xlink:href="#c"/><linearGradient id="p" x1="77.42" y1="594.57" x2="77.42" y2="152.32" xlink:href="#c"/><linearGradient id="q" x1="107.42" y1="594.54" x2="107.42" y2="152.35" xlink:href="#c"/><linearGradient id="r" x1="137.43" y1="594.5" x2="137.43" y2="152.39" xlink:href="#c"/><linearGradient id="s" x1="167.44" y1="594.47" x2="167.44" y2="152.43" xlink:href="#c"/><linearGradient id="t" x1="197.44" y1="594.43" x2="197.44" y2="152.47" xlink:href="#c"/><linearGradient id="u" x1="227.45" y1="594.39" x2="227.45" y2="152.51" xlink:href="#c"/><linearGradient id="v" x1="257.46" y1="594.34" x2="257.46" y2="152.55" xlink:href="#c"/><linearGradient id="w" x1="287.46" y1="594.29" x2="287.46" y2="152.6" xlink:href="#c"/><linearGradient id="x" x1="317.47" y1="594.24" x2="317.47" y2="152.65" xlink:href="#c"/><linearGradient id="y" x1="347.48" y1="594.19" x2="347.48" y2="152.7" xlink:href="#c"/><linearGradient id="z" x1="377.48" y1="594.14" x2="377.48" y2="152.76" xlink:href="#c"/><linearGradient id="aa" x1="407.49" y1="594.08" x2="407.49" y2="152.81" xlink:href="#c"/><linearGradient id="ab" x1="437.5" y1="594.03" x2="437.5" y2="152.87" xlink:href="#c"/><linearGradient id="ac" x1="467.5" y1="594.03" x2="467.5" y2="152.87" xlink:href="#c"/><linearGradient id="ad" x1="497.51" y1="594.08" x2="497.51" y2="152.81" xlink:href="#c"/><linearGradient id="ae" x1="527.52" y1="594.14" x2="527.52" y2="152.76" xlink:href="#c"/><linearGradient id="af" x1="557.52" y1="594.19" x2="557.52" y2="152.7" xlink:href="#c"/><linearGradient id="ag" x1="587.53" y1="594.24" x2="587.53" y2="152.65" xlink:href="#c"/><linearGradient id="ah" x1="617.54" y1="594.29" x2="617.54" y2="152.6" xlink:href="#c"/><linearGradient id="ai" x1="647.54" y1="594.34" x2="647.54" y2="152.55" xlink:href="#c"/><linearGradient id="aj" x1="677.55" y1="594.39" x2="677.55" y2="152.51" xlink:href="#c"/><linearGradient id="ak" x1="707.56" y1="594.43" x2="707.56" y2="152.47" xlink:href="#c"/><linearGradient id="al" x1="737.56" y1="594.47" x2="737.56" y2="152.43" xlink:href="#c"/><linearGradient id="am" x1="767.57" y1="594.5" x2="767.57" y2="152.39" xlink:href="#c"/><linearGradient id="an" x1="797.58" y1="594.54" x2="797.58" y2="152.35" xlink:href="#c"/><linearGradient id="ao" x1="827.58" y1="594.57" x2="827.58" y2="152.32" xlink:href="#c"/><linearGradient id="ap" x1="857.59" y1="594.6" x2="857.59" y2="152.29" xlink:href="#c"/><linearGradient id="aq" x1="887.6" y1="594.63" x2="887.6" y2="152.27" xlink:href="#c"/><linearGradient id="ar" x1="917.6" y1="594.65" x2="917.6" y2="152.24" xlink:href="#c"/><linearGradient id="as" x1="947.61" y1="594.68" x2="947.61" y2="152.22" xlink:href="#c"/><linearGradient id="at" x1="977.62" y1="594.7" x2="977.62" y2="152.2" xlink:href="#c"/><linearGradient id="au" x1="1007.62" y1="594.72" x2="1007.62" y2="152.18" xlink:href="#c"/><linearGradient id="av" x1="1037.63" y1="594.74" x2="1037.63" y2="152.16" xlink:href="#c"/><linearGradient id="aw" x1="1067.64" y1="594.75" x2="1067.64" y2="152.14" xlink:href="#c"/><linearGradient id="ax" x1="1097.64" y1="594.77" x2="1097.64" y2="152.13" xlink:href="#c"/><linearGradient id="ay" x1="1127.65" y1="594.78" x2="1127.65" y2="152.11" xlink:href="#c"/><linearGradient id="az" x1="1157.66" y1="594.79" x2="1157.66" y2="152.1" xlink:href="#c"/><linearGradient id="ba" x1="1187.66" y1="594.81" x2="1187.66" y2="152.09" xlink:href="#c"/><linearGradient id="bb" x1="1217.67" x2="1217.67" xlink:href="#c"/><filter id="bd" x="111.58" y="-46.06" width="680.83" height="680.83" color-interpolation-filters="sRGB" filterUnits="userSpaceOnUse"><feColorMatrix result="cm" values="-1 0 0 0 1 0 -1 0 0 1 0 0 -1 0 1 0 0 0 1 0"/></filter><radialGradient id="be" cx="452" cy="294.35" fx="452" fy="294.35" r="340.42" gradientUnits="userSpaceOnUse"><stop offset="0" stop-color="#000"/><stop offset="1" stop-color="#fff"/></radialGradient><mask id="bc" x="111.58" y="-46.06" width="680.83" height="680.83" maskUnits="userSpaceOnUse"><g class="dq"><rect class="dn" x="111.58" y="-46.06" width="680.83" height="680.83"/></g></mask><linearGradient id="bf" x1="297.15" y1="294.89" x2="606.85" y2="294.89" xlink:href="#c"/><mask id="bg" x="-1577.81" y="-1667.86" width="863.73" height="425.45" maskUnits="userSpaceOnUse"/></defs><g class="dp"><g id="a"><g class="ds"><g class="dr"><line class="cj" x1=".5" y1="152.89" x2="-625.84" y2="594"/><line class="ch" x1="18.23" y1="152.89" x2="-583.55" y2="594"/><line class="bw" x1="35.95" y1="152.89" x2="-541.26" y2="594"/><line class="bx" x1="53.68" y1="152.89" x2="-498.98" y2="594"/><line class="bt" x1="71.4" y1="152.89" x2="-456.69" y2="594"/><line class="bu" x1="89.13" y1="152.89" x2="-414.4" y2="594"/><line class="ci" x1="106.85" y1="152.89" x2="-372.11" y2="594"/><line class="bz" x1="124.58" y1="152.89" x2="-329.82" y2="594"/><line class="by" x1="142.3" y1="152.89" x2="-287.54" y2="594"/><line class="cd" x1="160.03" y1="152.89" x2="-245.25" y2="594"/><line class="ce" x1="177.75" y1="152.89" x2="-202.96" y2="594"/><line class="cc" x1="195.48" y1="152.89" x2="-160.67" y2="594"/><line class="cg" x1="213.21" y1="152.89" x2="-118.39" y2="594"/><line class="ca" x1="230.93" y1="152.89" x2="-76.1" y2="594"/><line class="bv" x1="248.66" y1="152.89" x2="-33.81" y2="594"/><line class="cf" x1="266.38" y1="152.89" x2="8.48" y2="594"/><line class="cb" x1="284.11" y1="152.89" x2="50.77" y2="594"/><line class="bp" x1="301.83" y1="152.89" x2="93.05" y2="594"/><line class="bs" x1="319.56" y1="152.89" x2="135.34" y2="594"/><line class="bq" x1="337.28" y1="152.89" x2="177.63" y2="594"/><line class="br" x1="355.01" y1="152.89" x2="219.92" y2="594"/><line class="bn" x1="372.74" y1="152.89" x2="262.2" y2="594"/><line class="bo" x1="390.46" y1="152.89" x2="304.49" y2="594"/><line class="bm" x1="408.19" y1="152.89" x2="346.78" y2="594"/><line class="df" x1="425.91" y1="152.89" x2="389.07" y2="594"/><line class="cv" x1="443.64" y1="152.89" x2="431.36" y2="594"/><line class="db" x1="461.36" y1="152.89" x2="473.64" y2="594"/><line class="cs" x1="479.09" y1="152.89" x2="515.93" y2="594"/><line class="dg" x1="496.81" y1="152.89" x2="558.22" y2="594"/><line class="dh" x1="514.54" y1="152.89" x2="600.51" y2="594"/><line class="di" x1="532.26" y1="152.89" x2="642.8" y2="594"/><line class="dl" x1="549.99" y1="152.89" x2="685.08" y2="594"/><line class="cu" x1="567.72" y1="152.89" x2="727.37" y2="594"/><line class="ct" x1="585.44" y1="152.89" x2="769.66" y2="594"/><line class="cz" x1="603.17" y1="152.89" x2="811.95" y2="594"/><line class="dc" x1="620.89" y1="152.89" x2="854.23" y2="594"/><line class="dd" x1="638.62" y1="152.89" x2="896.52" y2="594"/><line class="cr" x1="656.34" y1="152.89" x2="938.81" y2="594"/><line class="cx" x1="674.07" y1="152.89" x2="981.1" y2="594"/><line class="cn" x1="691.79" y1="152.89" x2="1023.39" y2="594"/><line class="de" x1="709.52" y1="152.89" x2="1065.67" y2="594"/><line class="cp" x1="727.25" y1="152.89" x2="1107.96" y2="594"/><line class="dj" x1="744.97" y1="152.89" x2="1150.25" y2="594"/><line class="cq" x1="762.7" y1="152.89" x2="1192.54" y2="594"/><line class="cw" x1="780.42" y1="152.89" x2="1234.82" y2="594"/><line class="cy" x1="798.15" y1="152.89" x2="1277.11" y2="594"/><line class="cm" x1="815.87" y1="152.89" x2="1319.4" y2="594"/><line class="da" x1="833.6" y1="152.89" x2="1361.69" y2="594"/><line class="co" x1="851.32" y1="152.89" x2="1403.98" y2="594"/><line class="dk" x1="869.05" y1="152.89" x2="1446.26" y2="594"/><line class="ck" x1="886.77" y1="152.89" x2="1488.55" y2="594"/><line class="cl" x1="904.5" y1="152.89" x2="1530.84" y2="594"/></g></g><g class="do"><g class="dt"><path class="du" d="M428.8,245.82c-.26.13-.52.25-.78.38-.25.12-.51.25-.77.39l-4.99-8.87c.42-.22.85-.44,1.27-.65.42-.2.85-.41,1.29-.61l3.98,9.36Z"/><path class="du" d="M408.53,198.15c-1.14.51-2.28,1.04-3.39,1.58-1.1.55-2.21,1.12-3.32,1.72l-4.99-8.86c1.27-.69,2.55-1.35,3.82-1.98,1.28-.63,2.58-1.24,3.9-1.82l3.98,9.36Z"/><path class="du" d="M418.78,143.41c-2.08.46-4.19.97-6.28,1.53l2.73,9.8c1.91-.51,3.84-.98,5.73-1.39,1.9-.42,3.84-.79,5.79-1.13l-1.62-10.04c-2.14.37-4.27.78-6.35,1.24Z"/><path class="du" d="M427.19,154.95l1.63,10.04c-1.72.3-3.42.63-5.09,1-1.66.37-3.35.78-5.03,1.22l-2.73-9.8c1.86-.49,3.74-.95,5.58-1.35,1.85-.41,3.74-.78,5.64-1.11Z"/><path class="du" d="M444.64,163.14c-1.73.09-3.46.22-5.16.38-1.7.17-3.43.37-5.15.61l-1.53-10.06c1.91-.26,3.83-.49,5.71-.67,1.88-.18,3.8-.32,5.73-.42l.4,10.16Z"/><path class="du" d="M432.95,190.56c-1.24.22-2.47.46-3.67.73-1.21.26-2.42.55-3.64.87l-2.73-9.8c1.4-.37,2.8-.7,4.19-1.01,1.38-.3,2.8-.58,4.23-.83l1.62,10.04Z"/><path class="du" d="M429.88,194c-1.15.25-2.32.53-3.49.84l2.73,9.8c.98-.25,1.97-.49,2.94-.7.97-.21,1.97-.41,2.96-.59l-1.62-10.04c-1.19.21-2.36.45-3.52.7Z"/><path class="du" d="M418.69,270.43s-.06.08-.09.11c-.03.04-.05.08-.08.12l-8.54-5.53c.13-.19.27-.39.4-.58.14-.19.28-.38.43-.56l7.88,6.44Z"/><path class="du" d="M357.55,206.76c-1.13,1.21-2.25,2.47-3.35,3.75l7.81,6.51c.98-1.14,1.97-2.25,2.98-3.32,1-1.07,2.04-2.15,3.11-3.2l-7.04-7.34c-1.2,1.18-2.38,2.39-3.51,3.6Z"/><path class="du" d="M416.59,237.75c-.46.28-.9.56-1.34.85s-.88.58-1.31.88l-6.03-8.19c.59-.41,1.19-.82,1.78-1.21.59-.38,1.2-.76,1.82-1.14l5.08,8.81Z"/><path class="du" d="M381.38,186.72c-1.39.91-2.78,1.86-4.15,2.84l6.02,8.19c1.22-.87,2.45-1.71,3.69-2.52,1.23-.8,2.5-1.59,3.79-2.36l-5.08-8.81c-1.45.86-2.88,1.75-4.27,2.66Z"/><path class="du" d="M377.8,170.43c-1.71,1.01-3.39,2.06-5.02,3.12-1.62,1.06-3.26,2.18-4.87,3.34l-6.02-8.2c1.76-1.27,3.55-2.49,5.33-3.66,1.79-1.16,3.63-2.3,5.5-3.41l5.08,8.81Z"/><path class="du" d="M365,182.51l6.1,8.13c-1.37,1.06-2.73,2.15-4.03,3.25-1.31,1.1-2.61,2.25-3.9,3.42l-6.96-7.41c1.42-1.3,2.86-2.58,4.31-3.79,1.45-1.22,2.95-2.43,4.48-3.6Z"/><path class="du" d="M358.73,183.98c-1.48,1.25-2.97,2.56-4.43,3.9l-6.96-7.41c1.59-1.47,3.22-2.9,4.85-4.27,1.63-1.37,3.32-2.73,5.04-4.05l6.11,8.14c-1.58,1.2-3.12,2.44-4.61,3.69Z"/><path class="du" d="M402.62,219.24c-.79.52-1.58,1.06-2.37,1.61l6.02,8.19c.63-.44,1.27-.87,1.91-1.29.64-.41,1.29-.82,1.95-1.23l-5.08-8.81c-.82.5-1.64,1.01-2.43,1.52Z"/><path class="du" d="M433.87,257.75s-.09.04-.13.06-.08.05-.12.07l-5-8.87c.21-.11.42-.22.63-.32s.42-.2.64-.3l3.98,9.36Z"/><path class="du" d="M491.58,228.39l-5.45,8.59c-.45-.27-.91-.53-1.37-.79-.45-.25-.92-.5-1.39-.75l4.46-9.14c.64.33,1.27.67,1.89,1.01.62.35,1.24.71,1.86,1.08Z"/><path class="du" d="M542.06,181.38l6.44-7.87c-1.7-1.36-3.42-2.68-5.14-3.93-1.72-1.25-3.5-2.49-5.31-3.69l-5.53,8.54c1.65,1.1,3.28,2.22,4.85,3.37,1.57,1.14,3.14,2.35,4.69,3.58Z"/><path class="du" d="M494.4,200.71l-4.37,9.19c-.93-.42-1.85-.82-2.78-1.2-.92-.37-1.86-.74-2.82-1.09l3.33-9.61c1.13.41,2.25.84,3.34,1.29,1.1.45,2.2.92,3.3,1.42Z"/><path class="du" d="M411.02,330.48l-7.41,6.97c-.32-.36-.63-.72-.94-1.08-.3-.36-.6-.73-.9-1.11l8.14-6.1c.18.22.36.44.55.66.18.22.37.44.56.66Z"/><path class="du" d="M506.07,188.88c1.34.68,2.66,1.38,3.94,2.09,1.28.72,2.57,1.47,3.85,2.25l5.44-8.59c-1.44-.88-2.89-1.74-4.34-2.54-1.44-.81-2.93-1.6-4.44-2.36l-4.46,9.14Z"/><path class="du" d="M515.69,230.83l-7.34,7.04c-.55-.54-1.1-1.08-1.66-1.6-.55-.52-1.13-1.03-1.71-1.54l6.52-7.81c.72.63,1.44,1.27,2.13,1.92.69.64,1.38,1.31,2.06,1.99Z"/><path class="du" d="M522.95,238.98l-8.14,6.1c-.48-.61-.96-1.21-1.45-1.79s-1-1.16-1.51-1.73l7.41-6.97c.64.71,1.27,1.43,1.88,2.16.61.72,1.21,1.47,1.81,2.23Z"/><path class="du" d="M504.8,238.3c.51.49,1.03.99,1.54,1.49l-7.34,7.04c-.38-.37-.76-.73-1.14-1.09s-.78-.71-1.17-1.06l6.51-7.82c.54.48,1.08.96,1.6,1.44Z"/><path class="du" d="M499.3,233.65l-6.44,7.87c-.42-.32-.84-.64-1.26-.95-.42-.31-.85-.61-1.29-.91l5.52-8.54c.6.4,1.19.82,1.76,1.23.57.42,1.14.85,1.71,1.3Z"/><path class="du" d="M453.33,243.41c.23.01.47.02.7.03l-.83,10.14h-.14s-.09,0-.14-.01l-.3-10.17c.23,0,.47,0,.71.01Z"/><path class="du" d="M466.29,245.42l-3.23,9.65c-.05-.01-.1-.03-.14-.04-.05-.01-.09-.02-.14-.03l2.14-9.95c.23.05.46.11.69.17.22.07.45.13.68.2Z"/><path class="du" d="M466.14,163.7c1.73.18,3.45.4,5.14.65,1.69.25,3.4.54,5.11.87l2.04-9.96c-1.9-.37-3.8-.69-5.67-.97-1.87-.28-3.78-.52-5.7-.71l-.92,10.13Z"/><path class="du" d="M512.27,163.12l4.37-9.19c-1.97-.91-3.96-1.78-5.93-2.58-1.97-.81-4-1.58-6.04-2.31l-3.32,9.61c1.86.67,3.71,1.37,5.51,2.11,1.8.74,3.61,1.53,5.41,2.36Z"/><path class="du" d="M425.51,263.17s-.08.06-.11.09c-.04.03-.07.06-.11.09l-6.97-7.41c.18-.16.35-.31.53-.46s.37-.31.55-.45l6.11,8.14Z"/><path class="du" d="M443.28,254.49s-.09.02-.13.03c-.05.01-.1.02-.14.03l-2.73-9.8c.23-.06.46-.11.69-.16.22-.05.46-.1.69-.14l1.62,10.04Z"/><path class="du" d="M494.43,403.09c-1.34.54-2.69,1.04-4.03,1.51-1.34.47-2.71.92-4.1,1.34l-2.82-9.77c1.2-.37,2.39-.76,3.56-1.17,1.16-.41,2.34-.84,3.51-1.3l3.88,9.39Z"/><path class="du" d="M478.35,397.62l2.73,9.8c-1.4.37-2.8.71-4.19,1.01-1.38.3-2.8.58-4.22.84l-1.62-10.05c1.23-.22,2.46-.46,3.67-.72,1.2-.27,2.42-.56,3.63-.88Z"/><path class="du" d="M452.23,375.06l.3,10.16c-.96.01-1.92.01-2.86-.02-.95-.02-1.91-.07-2.87-.13l.83-10.13c.77.04,1.54.08,2.3.1.62.01,1.25.02,1.89.02h.41Z"/><path class="du" d="M484.53,379.16c-.9.35-1.79.69-2.69,1-.89.31-1.8.61-2.72.9l-2.82-9.78c.74-.23,1.47-.47,2.18-.72.72-.25,1.44-.52,2.16-.8l3.89,9.4Z"/><path class="du" d="M471.41,372.67l2.73,9.8c-.94.24-1.87.46-2.79.66-.93.21-1.87.39-2.81.57l-1.63-10.04c.76-.14,1.52-.3,2.26-.46s1.49-.34,2.24-.53Z"/><path class="du" d="M461.89,374.44l1.53,10.06c-.96.12-1.91.23-2.85.32-.94.09-1.9.17-2.86.22l-.4-10.16c.77-.05,1.54-.11,2.29-.18.76-.07,1.53-.16,2.29-.26Z"/><path class="du" d="M469.67,343.25c-.22.09-.44.17-.66.25-.22.07-.45.15-.67.22l-2.82-9.78s.09-.03.13-.04c.04-.02.09-.04.13-.05l3.89,9.4Z"/><path class="du" d="M514.2,364.17l6.97,7.41c-.89.81-1.79,1.6-2.7,2.36-.9.77-1.84,1.52-2.79,2.26l-6.1-8.14c.8-.62,1.59-1.26,2.35-1.9.76-.64,1.52-1.31,2.27-1.99Z"/><path class="du" d="M529.91,362.68c-.79.92-1.59,1.81-2.39,2.67-.81.87-1.65,1.73-2.5,2.58l-7.04-7.34c.72-.72,1.42-1.45,2.1-2.17.68-.73,1.36-1.48,2.02-2.25l7.81,6.51Z"/><path class="du" d="M495.5,405.66l3.88,9.4c-1.56.62-3.14,1.21-4.7,1.76-1.57.55-3.17,1.07-4.78,1.56l-2.83-9.77c1.44-.44,2.86-.9,4.25-1.39,1.38-.48,2.78-1.01,4.18-1.56Z"/><path class="du" d="M519.88,419.75c-1.69.93-3.4,1.82-5.1,2.65-1.7.84-3.44,1.65-5.21,2.43l-3.98-9.36c1.59-.7,3.17-1.44,4.7-2.19s3.07-1.55,4.6-2.39l4.99,8.86Z"/><path class="du" d="M509.06,410.79c-1.48.73-3.01,1.44-4.56,2.12l-3.97-9.36c1.37-.6,2.72-1.24,4.04-1.89,1.32-.64,2.64-1.33,3.96-2.05l4.99,8.86c-1.48.81-2.97,1.59-4.46,2.32Z"/><path class="du" d="M565.39,400.69c1.45-1.56,2.9-3.18,4.3-4.83l-7.81-6.51c-1.29,1.51-2.6,2.98-3.93,4.41-1.33,1.42-2.71,2.84-4.12,4.22l7.04,7.34c1.55-1.52,3.07-3.07,4.52-4.63Z"/><path class="du" d="M492.26,331.28l7.82,6.52c-.32.36-.64.71-.96,1.06-.32.34-.66.68-.99,1.03l-7.04-7.35c.2-.21.4-.41.59-.62.2-.21.39-.42.58-.64Z"/><path class="du" d="M504.9,331.69c-.27.39-.55.78-.83,1.17-.27.38-.56.76-.85,1.14l-7.88-6.44c.18-.23.35-.46.52-.7.16-.23.33-.46.5-.7l8.54,5.53Z"/><path class="du" d="M508.46,381.38c.99-.65,1.98-1.32,2.97-2.02l-6.03-8.2c-.83.58-1.66,1.15-2.5,1.7-.84.55-1.69,1.08-2.56,1.6l5.08,8.81c1.03-.62,2.05-1.26,3.04-1.9Z"/><path class="du" d="M536.77,424.75c1.78-1.16,3.57-2.39,5.33-3.66l-6.02-8.19c-1.61,1.16-3.24,2.28-4.87,3.34-1.63,1.06-3.31,2.11-5.01,3.11l5.08,8.81c1.87-1.1,3.71-2.25,5.5-3.41Z"/><path class="du" d="M378.51,404.48l-5.52,8.54c-1.61-1.06-3.2-2.16-4.72-3.28-1.53-1.11-3.06-2.28-4.57-3.49l6.44-7.87c1.36,1.08,2.74,2.14,4.12,3.14,1.38,1.01,2.8,2,4.25,2.96Z"/><path class="du" d="M431.45,345.13c.26.1.53.21.8.31l-3.32,9.62c-.45-.17-.9-.34-1.33-.52-.44-.18-.88-.37-1.32-.56l4.37-9.19c.27.12.53.23.8.34Z"/><path class="du" d="M438.49,347.46l-2.14,9.94c-.47-.11-.93-.23-1.38-.36-.46-.12-.92-.25-1.38-.39l3.23-9.65c.28.08.56.16.83.24.28.07.56.14.84.22Z"/><path class="du" d="M376.28,418.43l-5.44,8.59c1.85,1.14,3.71,2.24,5.57,3.28,1.86,1.04,3.78,2.05,5.72,3.02l4.46-9.14c-1.77-.89-3.52-1.81-5.22-2.76-1.7-.95-3.4-1.95-5.09-2.99Z"/><path class="du" d="M406.65,361l-5.53,8.54c-.79-.54-1.58-1.09-2.34-1.65-.77-.56-1.53-1.14-2.29-1.73l6.44-7.87c.61.47,1.22.94,1.84,1.38.61.45,1.24.89,1.88,1.33Z"/><path class="du" d="M392.58,382.74l-5.53,8.54c-1.2-.8-2.38-1.63-3.53-2.46-1.14-.84-2.29-1.71-3.43-2.61l6.44-7.88c.99.78,1.99,1.54,2.98,2.27,1,.72,2.03,1.44,3.07,2.14Z"/><path class="du" d="M427.77,328.37l-5.53,8.54c-.2-.13-.39-.27-.58-.41-.19-.13-.38-.28-.57-.42l6.45-7.88s.07.06.11.09c.04.02.08.05.12.08Z"/><path class="du" d="M423.91,325.2l-6.52,7.82c-.18-.16-.35-.32-.52-.48-.18-.16-.34-.32-.52-.49l7.35-7.04s.07.07.1.1c.04.03.07.06.11.09Z"/><path class="du" d="M422.15,423.42l-2.14,9.94c-1.88-.42-3.75-.89-5.58-1.39-1.82-.5-3.67-1.05-5.5-1.64l3.23-9.65c1.65.53,3.32,1.03,4.96,1.48,1.65.45,3.33.87,5.03,1.26Z"/><path class="du" d="M446.1,335.79l-.93,10.14c-.23-.03-.47-.06-.7-.09-.23-.04-.46-.08-.69-.12l2.04-9.97s.09.02.14.03c.05,0,.09.01.14.01Z"/><path class="du" d="M425.01,437.25l-2.04,9.96c2.13.41,4.27.78,6.37,1.09,2.1.31,4.26.58,6.42.8l.92-10.13c-1.97-.2-3.94-.45-5.86-.73-1.92-.28-3.87-.62-5.82-.99Z"/><path class="du" d="M466.72,449.27c2.12-.2,4.27-.46,6.42-.76l-1.53-10.06c-1.96.27-3.93.51-5.86.69-1.93.18-3.91.33-5.89.43l.4,10.16c2.17-.11,4.33-.26,6.45-.47Z"/><path class="du" d="M424.87,410.76l-2.14,9.95c-1.64-.38-3.28-.79-4.87-1.23-1.6-.44-3.21-.92-4.82-1.43l3.23-9.64c1.42.45,2.86.88,4.27,1.26,1.42.39,2.87.76,4.33,1.09Z"/><path class="du" d="M406.94,405.05c1.36.55,2.75,1.09,4.16,1.6l-3.32,9.61c-1.59-.57-3.16-1.18-4.69-1.8-1.54-.63-3.08-1.3-4.61-2l4.36-9.19c1.37.62,2.74,1.22,4.1,1.78Z"/><path class="du" d="M406.88,418.89c-1.64-.59-3.26-1.21-4.84-1.86-1.58-.65-3.17-1.34-4.75-2.07l-4.37,9.18c1.75.81,3.52,1.58,5.27,2.29,1.75.72,3.55,1.41,5.37,2.06l3.32-9.61Z"/><path class="du" d="M423.79,369.93c-.72-.27-1.44-.55-2.14-.84-.7-.29-1.41-.59-2.12-.91l-4.37,9.18c.88.4,1.76.78,2.63,1.13.87.36,1.77.7,2.67,1.04l3.32-9.61Z"/><path class="du" d="M478.7,326.43l6.98,7.42c-.18.15-.36.3-.54.45-.18.16-.36.31-.54.46l-6.11-8.15s.07-.06.11-.09c.03-.03.07-.06.1-.09Z"/><path class="du" d="M482.31,322.98l7.82,6.52c-.16.17-.32.35-.48.52-.16.17-.33.34-.49.51l-7.04-7.34s.06-.07.09-.11c.04-.03.07-.07.1-.1Z"/><path class="du" d="M494.02,324.65c-.14.19-.27.39-.41.58s-.28.38-.42.56l-7.88-6.44s.06-.08.08-.11c.03-.04.06-.08.08-.12l8.55,5.53Z"/><path class="du" d="M381.65,327.14c.3.66.6,1.31.92,1.94.31.64.64,1.27.98,1.91l8.86-4.99c-.25-.47-.49-.94-.72-1.41-.23-.47-.46-.95-.68-1.43l-9.36,3.98Z"/><path class="du" d="M336,357.78l-8.86,4.99c-.93-1.69-1.82-3.4-2.66-5.1-.83-1.69-1.64-3.44-2.42-5.21l9.36-3.98c.7,1.6,1.43,3.17,2.19,4.7.75,1.53,1.55,3.07,2.39,4.6Z"/><path class="du" d="M392.15,348.23l-7.41,6.96c-.65-.71-1.28-1.43-1.89-2.16-.61-.72-1.21-1.47-1.8-2.22l8.13-6.11c.48.61.97,1.21,1.46,1.79.49.58.99,1.16,1.51,1.74Z"/><path class="du" d="M381.12,332.35l-8.86,5c-.45-.85-.89-1.71-1.31-2.55-.42-.85-.83-1.72-1.22-2.6l9.36-3.98c.32.71.65,1.4.98,2.08.34.69.69,1.37,1.05,2.05Z"/><path class="du" d="M386.15,340.62l-8.19,6.03c-.55-.79-1.09-1.58-1.61-2.38-.52-.79-1.03-1.6-1.52-2.42l8.81-5.08c.4.66.81,1.31,1.22,1.95.42.63.85,1.27,1.29,1.9Z"/><path class="du" d="M315.86,369.13l8.86-4.99c-.95-1.74-1.87-3.49-2.73-5.23-.86-1.74-1.69-3.54-2.49-5.35l-9.36,3.98c.87,1.99,1.78,3.96,2.72,5.87.94,1.91,1.94,3.83,2.99,5.74Z"/><path class="du" d="M353.19,333.44l-9.4,3.89c-.53-1.35-1.03-2.7-1.5-4.04-.47-1.34-.92-2.71-1.34-4.09l9.77-2.82c.37,1.2.76,2.39,1.17,3.55.4,1.16.84,2.34,1.3,3.51Z"/><path class="du" d="M417.47,317.6l-8.2,6.03c-.13-.2-.27-.39-.4-.59-.12-.19-.25-.4-.37-.6l8.82-5.08s.05.08.07.12c.03.04.05.08.08.12Z"/><path class="du" d="M414.98,313.27l-8.86,5c-.11-.21-.22-.42-.32-.63-.11-.21-.21-.43-.31-.64l9.37-3.98s.04.08.06.13l.06.12Z"/><path class="du" d="M373.28,365.97c-.85-.93-1.67-1.87-2.46-2.82-.79-.94-1.58-1.92-2.35-2.91l-8.14,6.1c.89,1.14,1.79,2.27,2.7,3.35.91,1.09,1.87,2.17,2.84,3.24l7.41-6.97Z"/><path class="du" d="M335.97,301.62c.08,1.45.19,2.89.32,4.3.13,1.41.3,2.85.5,4.28l10.06-1.53c-.17-1.25-.31-2.49-.43-3.72-.12-1.23-.21-2.48-.28-3.73l-10.16.4Z"/><path class="du" d="M307.42,285.26l-10.14-.83c-.15,2.16-.26,4.33-.31,6.46-.05,2.13-.06,4.3-.02,6.47l10.17-.3c-.04-1.98-.03-3.96.02-5.9.05-1.94.15-3.92.29-5.89Z"/><path class="du" d="M329.26,343.34l-9.4,3.89c-.71-1.79-1.39-3.6-2.01-5.38-.63-1.79-1.22-3.62-1.78-5.47l9.77-2.82c.5,1.67,1.04,3.32,1.6,4.93.57,1.61,1.18,3.23,1.82,4.85Z"/><path class="du" d="M324.32,328.19l-9.8,2.73c-.5-1.87-.95-3.74-1.36-5.59-.4-1.84-.77-3.73-1.1-5.64l10.04-1.62c.3,1.71.63,3.42,1,5.09.36,1.66.77,3.35,1.22,5.03Z"/><path class="du" d="M541.74,305.25c-.11.95-.23,1.9-.37,2.84-.14.93-.3,1.88-.47,2.83l-9.97-2.05c.14-.76.27-1.52.38-2.27.11-.75.21-1.51.3-2.28l10.13.93Z"/><path class="du" d="M524.41,322.19c-.25.68-.51,1.35-.78,2-.27.66-.55,1.32-.85,1.98l-9.18-4.37c.21-.49.42-.97.62-1.46.19-.48.39-.97.58-1.47l9.61,3.32Z"/><path class="du" d="M511.45,326.26l9.14,4.46c-.33.64-.67,1.27-1.01,1.89-.35.62-.71,1.24-1.08,1.86l-8.59-5.44c.27-.46.53-.92.79-1.37.25-.46.5-.93.75-1.4Z"/><path class="du" d="M507.23,333.2l8.54,5.53c-.4.59-.82,1.18-1.23,1.75-.42.58-.86,1.15-1.3,1.72l-7.87-6.44c.32-.42.64-.85.95-1.27.31-.42.61-.85.91-1.29Z"/><path class="du" d="M597.85,347.56l-9.61-3.32c-.67,1.87-1.37,3.71-2.11,5.51-.74,1.8-1.53,3.61-2.36,5.41l9.19,4.37c.91-1.97,1.78-3.96,2.58-5.93.81-1.97,1.58-4,2.31-6.04Z"/><path class="du" d="M568.22,293.58c.02,1.45.01,2.89-.02,4.31-.04,1.42-.11,2.86-.2,4.3l-10.14-.83c.08-1.25.14-2.5.17-3.73.03-1.24.04-2.49.02-3.75l10.17-.3Z"/><path class="du" d="M587.93,253.4l-9.77,2.82c-.51-1.66-1.05-3.32-1.61-4.93-.56-1.61-1.17-3.23-1.82-4.85l9.4-3.89c.72,1.8,1.39,3.6,2.02,5.38.62,1.79,1.22,3.62,1.78,5.47Z"/><path class="du" d="M581.93,237.32l-9.36,3.98c-.7-1.6-1.43-3.17-2.18-4.7-.76-1.53-1.56-3.07-2.39-4.6l8.86-4.99c.93,1.69,1.82,3.4,2.65,5.1.84,1.69,1.65,3.44,2.42,5.21Z"/><path class="du" d="M593.32,309.95c-.2,1.92-.44,3.83-.72,5.71-.27,1.87-.6,3.77-.96,5.66l-9.96-2.04c.32-1.71.61-3.42.86-5.11.25-1.69.47-3.41.65-5.14l10.13.92Z"/><path class="du" d="M580.42,308.78c-.17,1.68-.38,3.35-.62,4.98-.25,1.64-.53,3.3-.85,4.96l-9.96-2.04c.28-1.47.53-2.95.74-4.4.22-1.46.41-2.94.57-4.43l10.12.93Z"/><path class="du" d="M337.58,399.55l7.41-6.97c-1.34-1.46-2.65-2.94-3.9-4.43-1.25-1.49-2.49-3.03-3.7-4.6l-8.14,6.1c1.32,1.72,2.68,3.42,4.05,5.04,1.37,1.63,2.8,3.26,4.27,4.85Z"/><path class="du" d="M559.26,366.87c-.94,1.4-1.9,2.79-2.87,4.12-.98,1.34-2,2.68-3.05,4l-7.87-6.44c.93-1.17,1.83-2.36,2.7-3.55.86-1.19,1.72-2.41,2.55-3.66l8.54,5.53Z"/><path class="du" d="M561.13,334.88c-.49,1.36-1.01,2.71-1.55,4.02-.54,1.31-1.11,2.63-1.71,3.95l-9.19-4.37c.52-1.14,1.02-2.29,1.49-3.43.47-1.14.92-2.31,1.35-3.49l9.61,3.32Z"/><path class="du" d="M499.92,313.73c-.09.22-.17.44-.26.66-.09.21-.18.43-.27.65l-9.2-4.37s.04-.09.06-.13c.02-.05.03-.09.05-.13l9.62,3.32Z"/><path class="du" d="M543.87,342.07c-.54,1.07-1.11,2.13-1.68,3.16-.58,1.04-1.19,2.07-1.81,3.1l-8.59-5.44c.52-.87,1.03-1.74,1.52-2.61.48-.87.96-1.77,1.42-2.67l9.14,4.46Z"/><path class="du" d="M522.35,262.65l-9.36,3.97c-.23-.48-.45-.96-.68-1.42-.23-.47-.47-.94-.72-1.41l8.86-5c.34.64.67,1.28.98,1.91.31.64.62,1.29.92,1.95Z"/><path class="du" d="M525.72,271.36l-9.77,2.82c-.16-.5-.33-1-.5-1.5-.18-.49-.36-.99-.55-1.48l9.4-3.89c.26.67.51,1.34.74,2.01.24.67.46,1.35.68,2.04Z"/><path class="du" d="M528.02,280.42l-10.04,1.62c-.1-.52-.21-1.04-.32-1.55-.11-.51-.23-1.02-.36-1.54l9.8-2.73c.18.7.34,1.4.49,2.09.16.7.3,1.4.43,2.11Z"/><path class="du" d="M601.95,255.39l-9.8,2.73c.51,1.91.98,3.84,1.39,5.73.42,1.9.79,3.84,1.13,5.79l10.04-1.62c-.37-2.14-.78-4.27-1.24-6.35-.46-2.08-.97-4.19-1.53-6.28Z"/><path class="du" d="M506.73,260.87c-.25-.41-.51-.81-.76-1.21-.26-.4-.53-.79-.8-1.18l-8.2,6.03c.16.24.32.48.48.72.16.24.31.48.46.73l8.82-5.08Z"/><path class="du" d="M553.59,276.29c-.21-1.19-.45-2.36-.7-3.52-.25-1.15-.53-2.32-.84-3.49l-9.8,2.73c.25.98.49,1.97.7,2.94.21.97.41,1.96.59,2.96l10.04-1.62Z"/><path class="du" d="M460.35,165.99l-.83,10.13c-1.49-.1-2.98-.17-4.45-.2-1.47-.04-2.97-.05-4.46-.03l-.31-10.16c1.69-.03,3.38-.02,5.03.02s3.34.12,5.02.24Z"/><path class="du" d="M455,178.69c1.41.04,2.85.11,4.3.2l-.83,10.14c-1.25-.08-2.5-.14-3.74-.17-1.23-.03-2.48-.04-3.74-.02l-.3-10.17c1.44-.02,2.89-.01,4.31.02Z"/><path class="du" d="M457.19,204.71l-.82,10.13c-.78-.04-1.55-.07-2.3-.09-.76-.02-1.53-.03-2.31-.03l-.3-10.16c.96-.01,1.92,0,2.87.02.94.02,1.9.07,2.86.13Z"/><path class="du" d="M454.4,201.8c.99.03,2,.07,3.02.13l.83-10.14c-1.2-.08-2.4-.13-3.58-.16-1.18-.03-2.38-.04-3.59-.02l.3,10.17c1.02,0,2.03,0,3.02.02Z"/><path class="du" d="M452.92,398.17c-1.2.01-2.41.01-3.59-.03-1.18-.03-2.38-.08-3.58-.16l.83-10.14c1.01.07,2.02.11,3.02.14.72.02,1.45.03,2.19.03.27,0,.55-.01.83-.01l.3,10.17Z"/><path class="du" d="M503.49,295.51c-.01.24-.01.48-.01.71-.01.23-.02.47-.03.71l-10.14-.83v-.28l10.18-.31Z"/><path class="du" d="M493.12,290.83l10.07-1.53c.02.24.05.47.07.7.02.24.04.47.06.71l-10.17.4s-.01-.09-.01-.14c0-.05,0-.1-.02-.14Z"/><path class="du" d="M492.9,300.79l10.14.92c-.03.24-.06.47-.1.7-.03.24-.07.47-.11.7l-9.97-2.04c.01-.05.01-.1.02-.14,0-.05,0-.1.02-.14Z"/><path class="du" d="M502.44,284.55l-10.05,1.63c0-.05,0-.1-.02-.14-.01-.05-.03-.09-.04-.14l9.81-2.73c.05.23.11.46.16.69.05.23.1.46.14.69Z"/><path class="du" d="M491.86,262.29l-8.14,6.11s-.06-.07-.09-.11c-.03-.03-.06-.07-.09-.11l7.41-6.97c.16.18.31.36.46.54.15.18.3.36.45.54Z"/><path class="du" d="M482.9,253.7l-6.44,7.88s-.08-.06-.12-.09c-.03-.02-.07-.05-.11-.08l5.53-8.54c.19.13.39.27.57.41.19.13.38.28.57.42Z"/><path class="du" d="M487.64,257.72l-7.35,7.05-.1-.1s-.07-.06-.1-.09l6.52-7.82c.17.16.35.32.52.48s.34.32.51.48Z"/><path class="du" d="M607.03,298.89c-.06,2.13-.16,4.29-.32,6.46l-10.14-.83c.14-1.97.24-3.95.29-5.89.05-1.94.05-3.92.02-5.9l10.16-.31c.05,2.17.04,4.34-.01,6.47Z"/><path class="du" d="M570.81,288.05c-.08-1.5-.2-2.99-.34-4.45-.13-1.46-.31-2.95-.51-4.44l10.05-1.52c.24,1.67.43,3.35.59,4.99.16,1.65.28,3.33.37,5.02l-10.16.4Z"/><path class="du" d="M581.14,298.22c-.04,1.66-.12,3.34-.24,5.02l-10.13-.82c.09-1.5.16-2.99.2-4.46s.05-2.96.03-4.46l10.16-.31c.03,1.69.02,3.38-.02,5.03Z"/><path class="du" d="M447.71,240.79c-.29.02-.58.04-.86.07-.29.03-.57.06-.86.09l-1.53-10.06c.48-.06.95-.11,1.42-.15.47-.05.95-.09,1.42-.12l.41,10.17Z"/><path class="du" d="M516.27,290.2c-.03-.48-.07-.95-.12-1.42-.04-.47-.1-.94-.15-1.42l-10.06,1.53c.03.29.07.57.09.86.03.28.05.57.07.86l10.17-.4Z"/><path class="du" d="M516.44,295.13c0,.47-.01.95-.02,1.42s-.03.95-.05,1.43l-10.15-.83c.01-.29.03-.58.04-.86,0-.28,0-.57.01-.86l10.17-.3Z"/><path class="du" d="M540.15,214.94c1.01,1.11,2,2.23,2.94,3.36.95,1.13,1.88,2.29,2.8,3.47l8.14-6.1c-1.03-1.34-2.09-2.65-3.15-3.92-1.07-1.27-2.18-2.53-3.32-3.78l-7.41,6.97Z"/><path class="du" d="M551.61,235l-8.81,5.08c-.65-1.08-1.31-2.14-1.99-3.17-.67-1.03-1.38-2.07-2.1-3.09l8.19-6.03c.84,1.18,1.65,2.37,2.43,3.56.77,1.19,1.54,2.41,2.28,3.65Z"/><path class="du" d="M412.18,283.83s-.03.09-.04.14c0,.04-.02.09-.04.13l-9.95-2.14c.06-.22.12-.45.18-.68.06-.22.13-.45.2-.68l9.65,3.23Z"/><path class="du" d="M398.06,300.9l-10.06,1.52c-.06-.47-.11-.95-.16-1.41-.04-.47-.08-.95-.11-1.43l10.17-.4c.02.29.04.58.07.86.02.28.06.57.09.86Z"/><path class="du" d="M387.63,291.8l10.14.83c-.01.29-.02.58-.03.86s-.01.57-.01.86l-10.17.31c0-.48,0-.96.01-1.43.02-.47.04-.95.06-1.43Z"/><path class="du" d="M398.44,286.11c-.05.28-.09.57-.14.85-.04.28-.07.57-.11.85l-10.14-.92c.06-.48.12-.95.19-1.42.07-.46.15-.93.23-1.4l9.97,2.04Z"/><path class="du" d="M365.68,268.26l9.64,3.23c-.23.74-.44,1.48-.64,2.21-.2.74-.39,1.48-.58,2.23l-9.94-2.14c.22-.93.46-1.86.71-2.77.25-.92.52-1.84.81-2.76Z"/><path class="du" d="M369.52,258.05l9.18,4.37c-.31.71-.62,1.42-.91,2.12-.28.7-.56,1.42-.83,2.14l-9.62-3.32c.34-.9.68-1.8,1.04-2.67.36-.88.74-1.76,1.14-2.64Z"/><path class="du" d="M383.15,253.82c-.4.67-.79,1.33-1.16,1.99-.37.67-.73,1.35-1.09,2.03l-9.14-4.45c.44-.86.89-1.71,1.35-2.53.46-.83.95-1.66,1.45-2.48l8.59,5.44Z"/><path class="du" d="M390.4,267.98c-.22.49-.42.98-.62,1.46-.2.48-.39.98-.58,1.47l-9.61-3.32c.25-.68.51-1.35.78-2,.26-.66.55-1.32.84-1.97l9.19,4.36Z"/><path class="du" d="M349.37,283.36l10.13.92c.11-1.01.24-2.01.39-3,.15-.98.31-1.98.5-2.98l-9.96-2.04c-.22,1.18-.42,2.37-.59,3.54-.17,1.17-.32,2.36-.45,3.56Z"/><path class="du" d="M326.2,255.05c-.53,1.66-1.02,3.32-1.47,4.97-.45,1.64-.88,3.33-1.26,5.02l-9.95-2.14c.43-1.88.9-3.75,1.4-5.57.5-1.83,1.05-3.67,1.64-5.51l9.64,3.23Z"/><path class="du" d="M306.15,242.22l9.61,3.32c.67-1.87,1.38-3.71,2.11-5.51.73-1.8,1.53-3.61,2.36-5.41l-9.19-4.37c-.91,1.97-1.78,3.96-2.58,5.93-.81,1.97-1.58,4-2.31,6.04Z"/><path class="du" d="M341.12,260.04l9.64,3.23c-.38,1.2-.73,2.4-1.06,3.59-.32,1.19-.63,2.4-.92,3.63l-9.94-2.14c.33-1.41.68-2.81,1.05-4.18.38-1.37.79-2.75,1.23-4.13Z"/><path class="du" d="M337.72,273.66l9.97,2.04c-.23,1.24-.44,2.47-.62,3.69-.18,1.22-.34,2.47-.47,3.72l-10.13-.93c.15-1.44.33-2.87.54-4.27.21-1.41.45-2.83.71-4.25Z"/><path class="du" d="M357.82,252.49l9.19,4.37c-.42.93-.82,1.85-1.2,2.77-.38.93-.74,1.87-1.09,2.82l-9.62-3.32c.42-1.13.85-2.25,1.3-3.35.44-1.09.92-2.19,1.42-3.29Z"/><path class="du" d="M353.4,264.15l9.64,3.23c-.3.97-.59,1.94-.85,2.9-.26.96-.51,1.94-.75,2.93l-9.94-2.14c.27-1.17.57-2.34.88-3.48.31-1.14.65-2.29,1.02-3.44Z"/><path class="du" d="M372.21,246.89c-.53.87-1.04,1.74-1.52,2.61-.49.87-.96,1.77-1.43,2.67l-9.14-4.46c.55-1.07,1.11-2.13,1.69-3.16.57-1.03,1.18-2.07,1.81-3.1l8.59,5.44Z"/><path class="du" d="M410.87,298.95l-10.06,1.53c-.03-.23-.06-.47-.08-.7-.02-.24-.04-.47-.06-.71l10.17-.4c.01.05.01.1.02.14,0,.05.01.1.01.14Z"/><path class="du" d="M410.68,293.97l-10.17.3c0-.24,0-.47.01-.71,0-.23.01-.47.02-.7l10.15.82c0,.05-.01.1-.01.14v.15Z"/><path class="du" d="M339.39,226.1c-.91,1.48-1.79,2.98-2.62,4.47-.83,1.49-1.64,3.03-2.43,4.58l-9.14-4.46c.87-1.72,1.77-3.43,2.69-5.08.92-1.65,1.9-3.31,2.91-4.95l8.59,5.44Z"/><path class="dm" d="M428.47,221.17l2.82,9.77c-.51.16-1.01.33-1.5.5-.49.17-.99.35-1.49.54l-3.89-9.4c.67-.26,1.35-.51,2.01-.74.67-.23,1.35-.46,2.04-.68ZM438.35,255.88s.09-.03.13-.04l-2.82-9.78c-.22.07-.45.15-.67.22s-.44.16-.66.24l3.89,9.4s.09-.03.13-.05ZM422.15,209.62c-.89.31-1.79.65-2.69,1l3.89,9.4c.72-.28,1.44-.55,2.16-.8.72-.25,1.45-.49,2.18-.72l-2.82-9.77c-.92.29-1.83.59-2.72.9ZM430.71,234.06c-.44.16-.89.32-1.34.49l3.89,9.4c.27-.1.54-.2.81-.29.27-.09.54-.18.82-.27l-2.82-9.78c-.46.15-.91.3-1.35.45ZM409.32,172.96c-1.56.55-3.14,1.14-4.71,1.76l3.89,9.4c1.39-.55,2.79-1.08,4.18-1.56,1.39-.49,2.81-.95,4.24-1.39l-2.82-9.77c-1.61.49-3.22,1.01-4.78,1.56ZM417.88,197.4c-1.11.39-2.24.81-3.36,1.25l3.89,9.4c.95-.37,1.89-.72,2.83-1.05.94-.33,1.9-.64,2.87-.95l-2.82-9.77c-1.15.36-2.29.73-3.41,1.12ZM413.6,185.18c-1.34.47-2.69.97-4.04,1.51l3.89,9.4c1.17-.46,2.34-.9,3.51-1.31,1.16-.41,2.35-.8,3.56-1.17l-2.82-9.77c-1.38.42-2.76.87-4.09,1.34ZM383.5,155.76c-1.91.94-3.83,1.94-5.74,2.99l4.99,8.86c1.74-.95,3.49-1.87,5.23-2.73,1.74-.86,3.54-1.69,5.35-2.49l-3.98-9.36c-1.99.87-3.96,1.78-5.87,2.72ZM406.37,202.23c-1.06.52-2.13,1.07-3.19,1.65l4.99,8.86c.89-.48,1.79-.94,2.69-1.38.89-.44,1.81-.87,2.74-1.28l-3.98-9.36c-1.1.49-2.19,1-3.25,1.52ZM405.04,160.74c-1.79.63-3.59,1.3-5.38,2.02l3.89,9.4c1.62-.64,3.24-1.25,4.85-1.82,1.61-.56,3.26-1.1,4.93-1.61l-2.82-9.77c-1.85.56-3.68,1.15-5.47,1.78ZM412.09,213.84c-.85.42-1.7.86-2.55,1.31l4.99,8.86c.68-.36,1.37-.71,2.05-1.05.68-.34,1.38-.66,2.08-.98l-3.98-9.36c-.88.4-1.75.8-2.6,1.22ZM389.22,167.38c-1.7.84-3.41,1.73-5.1,2.65l4.99,8.86c1.53-.83,3.07-1.64,4.6-2.39,1.53-.75,3.11-1.49,4.7-2.19l-3.98-9.36c-1.77.78-3.51,1.59-5.21,2.42ZM394.94,178.99c-1.48.73-2.98,1.51-4.46,2.32l4.99,8.86c1.31-.72,2.64-1.4,3.96-2.05,1.32-.65,2.67-1.28,4.04-1.89l-3.98-9.36c-1.54.68-3.07,1.39-4.56,2.12ZM435.42,219.29c-.69.15-1.39.32-2.09.49l2.73,9.8c.52-.13,1.03-.25,1.54-.36.51-.11,1.03-.22,1.55-.32l-1.62-10.04c-.71.13-1.41.27-2.1.43ZM444.66,217.85c-.71.07-1.42.15-2.13.24l1.53,10.06c.53-.06,1.05-.12,1.57-.17.52-.05,1.05-.09,1.58-.13l-.4-10.16c-.72.05-1.44.1-2.14.17ZM447.94,253.76s.09-.01.14-.02c.05,0,.09,0,.14-.01l-.4-10.17c-.24.02-.47.04-.7.06-.23.02-.47.05-.7.08l1.53,10.06ZM424.33,168.7c-1.62.35-3.25.75-4.89,1.18l2.73,9.8c1.45-.38,2.9-.73,4.34-1.05,1.43-.31,2.9-.6,4.38-.87l-1.62-10.04c-1.66.29-3.32.62-4.93.97ZM438.2,231.94c-.46.1-.92.21-1.39.32l2.73,9.8c.28-.07.56-.13.84-.19.28-.06.56-.12.84-.17l-1.62-10.05c-.47.09-.94.19-1.4.29ZM417.81,225.46c-.64.31-1.27.64-1.91.98l4.99,8.86c.47-.25.94-.49,1.41-.72.47-.23.95-.46,1.43-.68l-3.98-9.36c-.66.3-1.31.6-1.94.92ZM400.77,148.52c-2.01.7-4.04,1.47-6.05,2.28l3.89,9.4c1.84-.74,3.69-1.43,5.52-2.08,1.83-.64,3.72-1.25,5.61-1.82l-2.82-9.77c-2.08.62-4.14,1.29-6.15,2ZM432.65,206.65c-.92.2-1.86.43-2.79.67l2.73,9.8c.75-.19,1.5-.37,2.24-.53.74-.16,1.5-.31,2.26-.46l-1.62-10.04c-.95.17-1.89.36-2.81.56ZM367.01,215.59c-.97,1.04-1.93,2.11-2.87,3.21l7.81,6.51c.82-.95,1.66-1.88,2.5-2.79.84-.9,1.71-1.8,2.61-2.68l-7.04-7.34c-1.03,1.02-2.04,2.05-3,3.09ZM402.19,235.66c-.54.46-1.08.93-1.62,1.41l6.97,7.41c.4-.35.8-.7,1.2-1.03.4-.34.81-.67,1.22-1l-6.1-8.14c-.57.45-1.12.9-1.67,1.35ZM421.88,266.59l-7.04-7.35c-.16.17-.33.34-.49.51s-.32.35-.48.52l7.82,6.52s.06-.07.09-.1c.03-.03.07-.07.1-.1ZM338.61,189.09c-1.45,1.56-2.9,3.18-4.3,4.83l7.81,6.51c1.29-1.51,2.6-2.99,3.93-4.41,1.33-1.42,2.71-2.84,4.12-4.22l-7.04-7.34c-1.55,1.52-3.07,3.07-4.52,4.63ZM417.07,253.35c.22-.18.44-.37.66-.55l-6.11-8.14c-.37.3-.74.6-1.1.9-.36.3-.72.62-1.08.93l6.97,7.41c.22-.19.44-.38.65-.56ZM348.08,197.93c-1.29,1.38-2.57,2.82-3.83,4.29l7.81,6.51c1.13-1.32,2.29-2.62,3.45-3.86,1.16-1.25,2.38-2.49,3.62-3.71l-7.04-7.34c-1.38,1.35-2.72,2.73-4.01,4.11ZM385.52,215.84c-.9.76-1.81,1.55-2.7,2.36l6.97,7.41c.75-.68,1.51-1.35,2.28-1.99.76-.64,1.55-1.28,2.35-1.9l-6.1-8.14c-.95.74-1.89,1.5-2.79,2.26ZM377.19,205.93c-1.08.91-2.17,1.86-3.24,2.84l6.97,7.41c.93-.85,1.87-1.67,2.82-2.46.94-.79,1.92-1.58,2.91-2.35l-6.1-8.14c-1.15.89-2.27,1.79-3.35,2.7ZM393.86,225.75c-.72.61-1.44,1.24-2.16,1.89l6.97,7.41c.58-.52,1.16-1.02,1.74-1.51.58-.49,1.18-.97,1.79-1.45l-6.1-8.14c-.76.59-1.51,1.2-2.23,1.8ZM412.32,257.86c.19-.21.39-.42.59-.62l-7.04-7.34c-.33.34-.67.69-.99,1.03-.32.34-.64.7-.96,1.06l7.81,6.52c.19-.21.39-.43.58-.64ZM385.95,233.26c-.64.69-1.29,1.41-1.92,2.13l7.81,6.51c.51-.58,1.02-1.15,1.54-1.71.52-.56,1.05-1.11,1.6-1.66l-7.04-7.34c-.68.68-1.35,1.37-1.99,2.06ZM395.41,242.09c-.48.52-.96,1.05-1.44,1.59l7.81,6.51c.35-.4.71-.79,1.06-1.17.36-.38.72-.76,1.09-1.14l-7.04-7.34c-.51.51-1.01,1.03-1.49,1.55ZM376.48,224.43c-.81.86-1.61,1.76-2.4,2.67l7.81,6.52c.67-.77,1.34-1.52,2.02-2.25.68-.73,1.38-1.45,2.1-2.17l-7.04-7.34c-.86.85-1.69,1.71-2.5,2.57ZM443.43,204.96c-.94.09-1.89.2-2.85.32l1.53,10.06c.77-.1,1.53-.18,2.29-.26.76-.07,1.52-.13,2.29-.18l-.4-10.16c-.96.06-1.92.13-2.86.22ZM374.3,175.87c-1.58,1.03-3.17,2.12-4.74,3.25l6.02,8.19c1.41-1.01,2.85-1.99,4.28-2.93,1.43-.93,2.9-1.85,4.4-2.74l-5.08-8.81c-1.66.98-3.3,2-4.88,3.03ZM388.46,197.56c-1.19.78-2.38,1.59-3.56,2.43l6.02,8.19c1.03-.73,2.06-1.43,3.09-2.11,1.03-.67,2.09-1.34,3.17-1.98l-5.08-8.81c-1.24.74-2.47,1.5-3.65,2.28ZM368.86,196.02c-1.27,1.06-2.53,2.18-3.78,3.32l6.97,7.41c1.11-1.01,2.23-2,3.36-2.94,1.12-.94,2.29-1.88,3.47-2.8l-6.1-8.14c-1.34,1.03-2.65,2.09-3.92,3.15ZM494.91,246.81l-6.52,7.81c.21.19.43.39.64.58.21.19.42.39.62.59l7.34-7.04c-.34-.34-.69-.67-1.03-.99-.35-.32-.7-.64-1.06-.96ZM395.54,208.4c-.99.65-1.98,1.32-2.97,2.02l6.03,8.2c.83-.58,1.67-1.15,2.5-1.7.83-.54,1.69-1.08,2.56-1.6l-5.08-8.81c-1.03.62-2.05,1.26-3.04,1.9ZM422.33,249.44c.24-.16.48-.31.73-.46l-5.08-8.82c-.41.25-.81.51-1.21.76-.39.26-.79.52-1.18.8l6.03,8.2c.24-.16.48-.32.72-.48ZM471.75,244.34c.27.1.54.21.8.32.26.11.53.22.79.33l4.37-9.19c-.44-.19-.88-.38-1.31-.56-.44-.18-.88-.35-1.33-.52l-3.32,9.62ZM477.7,247.09c.25.14.51.27.76.41s.5.28.75.43l5.45-8.59c-.41-.24-.83-.48-1.24-.71-.41-.23-.83-.46-1.26-.68l-4.46,9.15ZM475.98,232.09c.5.19.99.38,1.47.58.48.2.97.4,1.46.62l4.37-9.19c-.66-.29-1.32-.58-1.97-.85-.66-.27-1.33-.53-2-.78l-3.32,9.61ZM525.49,185.3c1.45.96,2.87,1.96,4.25,2.96,1.38,1.01,2.76,2.06,4.12,3.14l6.44-7.87c-1.51-1.2-3.04-2.37-4.57-3.49-1.53-1.11-3.11-2.21-4.72-3.28l-5.53,8.54ZM476.48,249.59l-4.46,9.15s.08.04.12.07c.04.02.08.05.12.07l5.45-8.6c-.2-.12-.41-.24-.61-.35-.2-.11-.41-.22-.62-.34ZM494.72,212.16c.9.46,1.8.94,2.67,1.42.87.49,1.74,1,2.61,1.52l5.44-8.59c-1.03-.63-2.07-1.23-3.1-1.81-1.03-.58-2.09-1.14-3.17-1.69l-4.46,9.14ZM489.05,223.8c.69.36,1.36.72,2.03,1.09.66.37,1.33.76,1.99,1.15l5.44-8.59c-.82-.5-1.65-.98-2.48-1.44-.83-.46-1.67-.91-2.53-1.35l-4.46,9.14ZM500.39,200.52c1.12.57,2.23,1.16,3.3,1.76,1.08.6,2.16,1.23,3.23,1.89l5.44-8.59c-1.23-.75-2.48-1.48-3.72-2.18-1.24-.69-2.51-1.37-3.8-2.02l-4.46,9.14ZM511.74,177.24c1.55.78,3.09,1.6,4.58,2.43,1.49.83,2.99,1.71,4.47,2.62l5.44-8.59c-1.64-1.01-3.3-1.99-4.96-2.91-1.65-.92-3.36-1.82-5.08-2.69l-4.46,9.14ZM409.09,342.97l6.52-7.81c-.21-.19-.43-.39-.64-.58-.21-.19-.42-.39-.62-.59l-7.34,7.04c.34.34.69.67,1.03.99.35.32.7.64,1.06.96ZM470.84,246.97l-3.32,9.62s.09.03.13.05.09.04.13.06l4.37-9.19c-.22-.09-.43-.19-.65-.28-.22-.09-.44-.17-.66-.26ZM442.2,192.07c-1.18.11-2.37.25-3.56.41l1.53,10.06c1.01-.13,2.01-.25,3-.34.99-.09,2-.17,3.01-.23l-.4-10.16c-1.2.07-2.4.16-3.58.27ZM529.87,204.9c1.14.98,2.25,1.97,3.32,2.98,1.07,1,2.15,2.04,3.2,3.11l7.34-7.04c-1.18-1.2-2.39-2.38-3.6-3.51-1.21-1.13-2.47-2.25-3.75-3.35l-6.51,7.81ZM538.16,194.95c1.32,1.13,2.62,2.29,3.86,3.45,1.25,1.16,2.49,2.38,3.71,3.62l7.34-7.04c-1.35-1.38-2.73-2.72-4.11-4.01-1.38-1.29-2.82-2.57-4.29-3.83l-6.51,7.81ZM555.08,193.06l7.34-7.04c-1.52-1.55-3.07-3.07-4.63-4.52-1.56-1.45-3.17-2.89-4.83-4.3l-6.51,7.81c1.51,1.29,2.99,2.6,4.41,3.93,1.42,1.32,2.84,2.71,4.22,4.12ZM521.57,214.84c.95.82,1.88,1.66,2.79,2.5.9.84,1.8,1.71,2.68,2.61l7.34-7.04c-1.02-1.03-2.05-2.04-3.09-3-1.04-.97-2.11-1.93-3.21-2.87l-6.51,7.81ZM518.45,196.17c1.25.83,2.47,1.69,3.66,2.55,1.19.87,2.38,1.77,3.55,2.7l6.44-7.87c-1.32-1.05-2.66-2.07-4-3.05-1.34-.98-2.72-1.94-4.12-2.87l-5.52,8.54ZM513.28,224.79c.77.67,1.52,1.34,2.25,2.02.73.68,1.45,1.39,2.17,2.1l7.34-7.04c-.85-.86-1.71-1.69-2.57-2.5-.86-.81-1.76-1.61-2.67-2.4l-6.51,7.81ZM504.38,217.91c.84.57,1.67,1.15,2.47,1.73.81.59,1.61,1.2,2.41,1.83l6.44-7.87c-.95-.75-1.9-1.47-2.86-2.17-.95-.7-1.94-1.38-2.94-2.06l-5.53,8.54ZM497.35,228.78c.64.44,1.27.88,1.88,1.33.61.45,1.23.91,1.84,1.39l6.44-7.87c-.76-.59-1.52-1.17-2.29-1.73-.76-.56-1.55-1.11-2.35-1.65l-5.53,8.54ZM511.42,207.04c1.04.7,2.07,1.42,3.07,2.14,1,.73,1.99,1.48,2.98,2.26l6.44-7.87c-1.13-.9-2.28-1.77-3.43-2.61-1.15-.84-2.33-1.66-3.53-2.47l-5.53,8.54ZM488.8,241.99l-5.53,8.54c.24.17.47.33.7.5.23.17.46.34.69.51l6.44-7.88c-.38-.29-.76-.58-1.14-.86-.38-.28-.77-.55-1.16-.83ZM527.72,171.35l5.44-8.59c-1.85-1.14-3.72-2.24-5.57-3.28-1.86-1.04-3.78-2.05-5.72-3.02l-4.46,9.14c1.77.89,3.52,1.81,5.22,2.76,1.7.95,3.4,1.95,5.09,2.99ZM462.61,202.38c1.01.11,2.01.24,3,.39.98.15,1.98.31,2.98.5l2.04-9.96c-1.19-.22-2.37-.42-3.54-.59-1.17-.17-2.36-.32-3.56-.45l-.92,10.13ZM481.85,166.36c1.7.39,3.38.81,5.03,1.26,1.65.45,3.31.95,4.97,1.48l3.23-9.64c-1.84-.59-3.68-1.14-5.51-1.64-1.82-.5-3.69-.97-5.58-1.4l-2.14,9.94ZM461.43,215.28c.77.09,1.53.19,2.28.3.75.11,1.51.24,2.27.37l2.04-9.96c-.95-.17-1.89-.33-2.83-.47-.93-.14-1.89-.26-2.84-.37l-.92,10.13ZM457.9,253.99s.09.01.14.02c.05,0,.09.02.14.02l2.04-9.97c-.23-.04-.47-.08-.7-.11-.23-.03-.47-.06-.7-.09l-.93,10.14ZM464.96,176.59c1.49.16,2.97.35,4.43.56,1.45.21,2.93.46,4.4.74l2.04-9.96c-1.66-.32-3.32-.6-4.96-.84-1.64-.24-3.31-.45-4.99-.63l-.92,10.13ZM460.25,228.18c.53.06,1.05.13,1.57.21.52.08,1.04.16,1.56.25l2.04-9.96c-.71-.13-1.42-.25-2.12-.35-.7-.1-1.41-.2-2.13-.28l-.92,10.13ZM459.08,241.08c.29.04.57.07.85.11.28.04.57.09.85.13l2.04-9.97c-.47-.08-.94-.16-1.41-.23-.47-.07-.94-.13-1.41-.19l-.93,10.14ZM463.78,189.49c1.25.14,2.49.29,3.71.47,1.22.18,2.45.39,3.69.62l2.04-9.96c-1.42-.27-2.85-.51-4.25-.72-1.4-.21-2.83-.39-4.27-.54l-.92,10.13ZM478.99,152.53l2.04-9.96c-2.13-.41-4.27-.78-6.37-1.09-2.1-.31-4.26-.58-6.42-.8l-.92,10.13c1.97.2,3.93.45,5.86.73,1.92.28,3.87.62,5.82.99ZM440.97,179.18c-1.41.13-2.84.3-4.28.5l1.53,10.06c1.25-.17,2.49-.31,3.72-.43,1.23-.12,2.48-.21,3.73-.28l-.4-10.16c-1.44.08-2.88.19-4.3.32ZM439.74,166.29c-1.65.16-3.32.35-4.99.58l1.53,10.05c1.49-.2,2.97-.38,4.43-.51,1.46-.14,2.95-.25,4.45-.33l-.4-10.16c-1.68.09-3.36.21-5.01.37ZM437.28,140.51c-2.12.2-4.27.46-6.42.76l1.53,10.06c1.96-.27,3.93-.51,5.86-.69,1.93-.18,3.91-.33,5.89-.43l-.4-10.16c-2.17.11-4.33.26-6.45.47ZM470.96,217c.75.18,1.5.37,2.23.57.73.2,1.47.42,2.21.64l3.23-9.64c-.92-.29-1.84-.56-2.75-.81-.91-.25-1.84-.48-2.78-.71l-2.14,9.94ZM495.95,156.82l3.23-9.64c-2.06-.67-4.14-1.29-6.2-1.85-2.05-.56-4.16-1.09-6.28-1.57l-2.14,9.94c1.93.44,3.85.92,5.73,1.43,1.87.51,3.77,1.08,5.66,1.69ZM492.9,183.13c1.41.51,2.8,1.05,4.16,1.6,1.36.56,2.73,1.15,4.09,1.77l4.37-9.18c-1.53-.7-3.08-1.38-4.61-2-1.53-.63-3.1-1.23-4.69-1.8l-3.32,9.61ZM497.12,170.89c1.64.59,3.26,1.21,4.84,1.86,1.58.65,3.17,1.34,4.75,2.07l4.37-9.18c-1.75-.81-3.52-1.58-5.27-2.29-1.75-.72-3.55-1.41-5.37-2.06l-3.32,9.61ZM488.67,195.37c1.18.43,2.35.88,3.49,1.35,1.14.47,2.29.97,3.43,1.48l4.37-9.19c-1.32-.6-2.64-1.18-3.95-1.71-1.31-.54-2.66-1.06-4.02-1.55l-3.32,9.61ZM476.4,191.68c1.22.29,2.44.59,3.63.92,1.19.33,2.39.68,3.59,1.06l3.23-9.64c-1.38-.44-2.76-.85-4.13-1.22-1.37-.38-2.77-.73-4.18-1.05l-2.14,9.94ZM473.68,204.34c.99.23,1.97.48,2.93.74.96.26,1.93.55,2.9.85l3.23-9.65c-1.15-.36-2.3-.7-3.44-1.01-1.14-.31-2.31-.61-3.48-.88l-2.14,9.94ZM479.13,179.02c1.46.34,2.91.7,4.33,1.09,1.42.39,2.85.81,4.28,1.27l3.23-9.64c-1.61-.51-3.22-.99-4.82-1.43-1.6-.44-3.23-.85-4.88-1.22l-2.14,9.94ZM480.21,219.85c.72.27,1.44.55,2.14.84.7.29,1.41.59,2.12.91l4.37-9.18c-.88-.39-1.76-.78-2.63-1.13-.87-.36-1.77-.7-2.67-1.04l-3.32,9.61ZM465.51,242.33c.28.07.56.14.83.22.27.08.55.15.83.24l3.23-9.65c-.46-.14-.92-.27-1.37-.4-.45-.12-.92-.24-1.38-.36l-2.14,9.95ZM468.23,229.66c.52.13,1.03.26,1.53.4.5.14,1.01.28,1.52.44l3.23-9.65c-.69-.21-1.38-.41-2.06-.6-.68-.19-1.38-.36-2.08-.53l-2.14,9.94ZM429.53,260.21l-5.08-8.82c-.2.13-.4.25-.6.38-.2.13-.39.26-.59.39l6.03,8.2s.08-.05.12-.08.08-.05.12-.08ZM520.5,434.02c1.91-.94,3.83-1.94,5.74-2.99l-4.99-8.86c-1.74.95-3.49,1.87-5.23,2.73-1.74.86-3.54,1.69-5.35,2.49l3.98,9.36c1.99-.87,3.96-1.78,5.87-2.72ZM473.29,355.72c.44-.16.89-.32,1.34-.49l-3.89-9.4c-.27.1-.54.2-.81.29-.27.09-.54.18-.82.27l2.82,9.78c.46-.15.91-.3,1.35-.45ZM477.57,367.94c.67-.23,1.34-.48,2.02-.74l-3.89-9.4c-.5.19-.99.37-1.49.54-.49.17-.99.34-1.5.5l2.82,9.77c.69-.22,1.37-.44,2.04-.68ZM486.12,392.38c1.12-.39,2.24-.81,3.36-1.25l-3.89-9.4c-.94.37-1.89.72-2.83,1.05-.94.33-1.9.64-2.87.95l2.82,9.77c1.15-.35,2.29-.73,3.41-1.12ZM491.91,375.94c.85-.42,1.7-.86,2.55-1.31l-4.99-8.86c-.68.36-1.37.72-2.05,1.05-.68.34-1.38.66-2.08.98l3.98,9.36c.88-.4,1.75-.8,2.6-1.22ZM470.26,331.97s-.09.04-.13.06l3.98,9.37c.21-.1.43-.2.64-.3.21-.1.42-.21.63-.32l-5-8.87s-.08.04-.13.06ZM486.19,364.32c.64-.31,1.27-.64,1.91-.98l-4.99-8.86c-.47.25-.94.49-1.41.72-.47.23-.95.46-1.43.68l3.98,9.36c.66-.3,1.31-.6,1.94-.92ZM503.34,399.17c1.27-.63,2.55-1.29,3.82-1.98l-4.99-8.86c-1.11.6-2.22,1.18-3.32,1.72-1.11.54-2.24,1.07-3.39,1.59l3.98,9.36c1.32-.59,2.63-1.2,3.9-1.82ZM497.63,387.56c1.06-.52,2.13-1.07,3.19-1.65l-4.99-8.86c-.89.48-1.79.94-2.69,1.38-.89.44-1.81.87-2.74,1.28l3.98,9.36c1.1-.49,2.19-1,3.25-1.52ZM479.67,421.08c1.62-.35,3.25-.75,4.89-1.18l-2.73-9.8c-1.45.38-2.9.73-4.34,1.05-1.43.31-2.9.6-4.38.87l1.62,10.04c1.66-.29,3.32-.62,4.93-.97ZM485.22,446.37c2.08-.46,4.19-.97,6.28-1.53l-2.73-9.8c-1.91.51-3.84.98-5.73,1.39-1.9.42-3.84.79-5.79,1.13l1.62,10.04c2.14-.37,4.27-.78,6.35-1.24ZM459.34,371.93c.71-.07,1.42-.15,2.13-.24l-1.53-10.06c-.53.06-1.05.12-1.57.17-.52.05-1.05.09-1.58.13l.4,10.16c.72-.05,1.43-.1,2.14-.17ZM456.06,336.02s-.09.01-.14.02c-.05,0-.09,0-.14.01l.4,10.17c.24-.02.47-.04.7-.06.23-.02.47-.05.7-.08l-1.53-10.06ZM458.11,359.04c.47-.04.94-.1,1.42-.15l-1.53-10.06c-.29.03-.57.07-.86.09-.28.03-.57.05-.86.07l.4,10.17c.48-.03.95-.07,1.42-.12ZM474.12,395.78c1.15-.25,2.32-.53,3.49-.84l-2.73-9.8c-.98.25-1.97.49-2.94.7-.97.21-1.97.41-2.96.59l1.62,10.04c1.19-.21,2.36-.45,3.52-.7ZM465.8,357.84c.46-.1.92-.21,1.39-.32l-2.73-9.8c-.28.07-.56.13-.84.19-.28.06-.56.12-.84.17l1.62,10.05c.47-.09.94-.19,1.4-.29ZM460.99,335.23s-.09.02-.14.03-.09.02-.14.03l1.62,10.05c.23-.05.46-.09.69-.14.23-.05.46-.11.69-.16l-2.73-9.81ZM498.96,429.04c1.79-.62,3.59-1.3,5.38-2.02l-3.89-9.4c-1.62.64-3.24,1.25-4.85,1.82-1.61.56-3.26,1.1-4.93,1.61l2.82,9.77c1.85-.56,3.68-1.15,5.47-1.78ZM503.23,441.26c2.01-.7,4.04-1.47,6.05-2.28l-3.89-9.4c-1.84.74-3.69,1.43-5.53,2.08-1.83.64-3.72,1.25-5.61,1.82l2.82,9.77c2.08-.62,4.14-1.29,6.15-2ZM468.58,370.49c.69-.15,1.39-.32,2.09-.49l-2.73-9.8c-.52.13-1.03.25-1.54.36-.51.11-1.03.22-1.55.32l1.62,10.04c.71-.13,1.41-.27,2.1-.43ZM482.44,433.72c1.85-.41,3.72-.86,5.59-1.36l-2.73-9.8c-1.68.44-3.37.85-5.04,1.22-1.67.37-3.37.7-5.08,1l1.62,10.04c1.9-.33,3.79-.7,5.64-1.11ZM555.92,391.85c1.29-1.38,2.57-2.82,3.83-4.29l-7.81-6.51c-1.13,1.32-2.29,2.62-3.45,3.86-1.16,1.25-2.38,2.49-3.62,3.71l7.04,7.34c1.38-1.35,2.72-2.73,4.01-4.11ZM501.81,354.12c.54-.46,1.08-.93,1.62-1.41l-6.97-7.41c-.4.35-.8.7-1.2,1.03-.4.34-.81.67-1.22,1l6.1,8.14c.57-.45,1.12-.9,1.67-1.35ZM486.93,336.43c-.22.18-.44.37-.66.55l6.11,8.14c.37-.3.74-.6,1.1-.9.36-.3.72-.62,1.08-.93l-6.97-7.41c-.22.19-.44.38-.65.56ZM510.14,364.03c.72-.61,1.45-1.24,2.16-1.89l-6.97-7.41c-.58.52-1.16,1.02-1.74,1.51-.58.49-1.18.97-1.79,1.45l6.1,8.14c.76-.59,1.51-1.2,2.23-1.8ZM518.05,356.52c.64-.69,1.29-1.41,1.92-2.13l-7.81-6.51c-.51.58-1.02,1.15-1.54,1.71-.52.56-1.05,1.11-1.6,1.66l7.04,7.34c.68-.68,1.35-1.37,1.99-2.06ZM508.59,347.69c.48-.52.96-1.05,1.44-1.59l-7.81-6.51c-.35.4-.71.79-1.06,1.17-.36.38-.72.76-1.09,1.14l7.04,7.34c.51-.51,1.01-1.03,1.49-1.55ZM526.81,383.85c1.09-.91,2.17-1.86,3.24-2.84l-6.97-7.41c-.93.84-1.87,1.67-2.82,2.46-.94.79-1.92,1.58-2.91,2.35l6.1,8.14c1.14-.89,2.27-1.79,3.35-2.7ZM546.45,383.02c1.13-1.21,2.25-2.47,3.35-3.75l-7.81-6.51c-.98,1.14-1.97,2.25-2.98,3.32-1,1.07-2.04,2.15-3.11,3.2l7.04,7.34c1.2-1.18,2.38-2.39,3.51-3.6ZM536.99,374.19c.97-1.04,1.93-2.11,2.87-3.21l-7.81-6.51c-.82.95-1.66,1.89-2.5,2.79-.84.9-1.71,1.8-2.61,2.68l7.04,7.34c1.03-1.02,2.04-2.05,3-3.09ZM522.62,403.06c1.39-.9,2.78-1.86,4.15-2.84l-6.02-8.19c-1.22.87-2.46,1.71-3.69,2.52-1.23.8-2.5,1.59-3.79,2.36l5.08,8.81c1.45-.86,2.88-1.75,4.27-2.66ZM529.7,413.91c1.58-1.03,3.17-2.12,4.74-3.25l-6.02-8.19c-1.41,1.01-2.85,1.99-4.28,2.93-1.43.93-2.9,1.85-4.4,2.74l5.08,8.81c1.66-.98,3.3-2,4.88-3.03ZM515.54,392.22c1.19-.77,2.38-1.59,3.56-2.43l-6.02-8.19c-1.03.73-2.06,1.43-3.09,2.11-1.03.67-2.1,1.34-3.17,1.98l5.08,8.81c1.24-.74,2.47-1.5,3.65-2.28ZM474.47,329.57l5.08,8.82c.2-.13.4-.25.6-.38.2-.13.39-.26.59-.39l-6.03-8.2s-.08.05-.12.08c-.04.03-.08.05-.12.08ZM400.8,352.92l6.51-7.81c-.4-.35-.79-.71-1.17-1.06-.38-.36-.76-.72-1.14-1.09l-7.34,7.04c.51.51,1.03,1.01,1.55,1.49.52.48,1.05.96,1.59,1.44ZM480.47,352.71c.42-.21.85-.43,1.27-.65l-4.99-8.86c-.26.13-.51.26-.77.39s-.52.25-.78.37l3.98,9.36c.43-.2.87-.4,1.29-.61ZM551.81,413.58c1.63-1.37,3.26-2.8,4.85-4.27l-6.97-7.41c-1.46,1.34-2.94,2.65-4.43,3.9-1.49,1.25-3.03,2.49-4.6,3.7l6.1,8.14c1.72-1.32,3.42-2.68,5.04-4.05ZM501.38,370.54c.79-.52,1.59-1.06,2.37-1.61l-6.02-8.19c-.63.44-1.27.87-1.91,1.29-.64.42-1.29.82-1.95,1.23l5.08,8.81c.82-.5,1.64-1.01,2.43-1.52ZM543.48,403.67c1.45-1.22,2.89-2.49,4.32-3.8l-6.97-7.41c-1.28,1.18-2.59,2.32-3.89,3.42-1.31,1.1-2.66,2.19-4.04,3.25l6.1,8.14c1.53-1.18,3.03-2.38,4.48-3.6ZM481.67,340.34c-.24.16-.48.31-.73.46l5.08,8.82c.41-.25.81-.51,1.21-.76.39-.26.79-.52,1.18-.8l-6.03-8.2c-.24.16-.48.32-.72.48ZM494.31,359.7c.59-.39,1.19-.79,1.78-1.2l-6.02-8.19c-.44.3-.88.6-1.31.88-.44.29-.88.57-1.34.85l5.08,8.81c.62-.38,1.22-.76,1.82-1.14ZM535.14,393.76c1.27-1.06,2.53-2.18,3.78-3.32l-6.97-7.41c-1.11,1.01-2.23,2-3.36,2.94-1.12.95-2.29,1.88-3.47,2.8l6.1,8.14c1.34-1.03,2.65-2.09,3.92-3.15ZM420.63,354.34c-.47-.25-.94-.5-1.39-.75-.46-.25-.91-.52-1.37-.79l-5.44,8.59c.62.37,1.24.73,1.86,1.08.62.35,1.25.68,1.89,1.02l4.46-9.14ZM426.3,342.7c-.25-.14-.51-.27-.76-.41-.25-.14-.5-.28-.75-.43l-5.45,8.59c.41.24.83.48,1.24.71.41.23.83.46,1.26.68l4.46-9.15ZM414.95,365.98c-.69-.36-1.36-.72-2.03-1.09-.66-.37-1.33-.76-1.99-1.15l-5.44,8.59c.82.5,1.65.98,2.48,1.44.82.46,1.67.91,2.53,1.35l4.46-9.14ZM427.52,340.19l4.46-9.15s-.08-.04-.12-.07c-.04-.02-.08-.05-.12-.07l-5.45,8.6c.2.12.41.24.61.35.2.11.41.22.62.34ZM361.94,408.4l-6.44,7.87c1.69,1.36,3.42,2.67,5.14,3.93,1.72,1.25,3.5,2.49,5.31,3.69l5.53-8.54c-1.65-1.1-3.28-2.22-4.85-3.37-1.57-1.14-3.14-2.35-4.69-3.58ZM409.28,377.62c-.9-.46-1.8-.94-2.67-1.42-.87-.49-1.74-1-2.61-1.52l-5.44,8.59c1.03.63,2.07,1.23,3.1,1.81,1.03.58,2.09,1.14,3.17,1.69l4.46-9.14ZM433.16,342.81l3.32-9.62s-.09-.03-.13-.05c-.04-.02-.09-.04-.13-.06l-4.37,9.19c.22.09.43.19.65.28.22.09.44.17.66.26ZM428.02,357.69c-.5-.19-.99-.38-1.47-.58-.48-.2-.97-.41-1.46-.62l-4.37,9.19c.66.29,1.32.58,1.97.85.66.27,1.33.53,2,.78l3.32-9.61ZM397.93,400.9c-1.34-.68-2.66-1.38-3.94-2.09-1.28-.72-2.57-1.47-3.85-2.25l-5.44,8.59c1.44.88,2.89,1.74,4.34,2.54,1.45.81,2.93,1.6,4.44,2.36l4.46-9.14ZM403.6,389.26c-1.12-.57-2.23-1.16-3.3-1.76-1.08-.6-2.16-1.23-3.23-1.89l-5.44,8.59c1.23.75,2.48,1.48,3.72,2.18,1.24.69,2.51,1.37,3.8,2.02l4.46-9.14ZM392.26,412.54c-1.55-.78-3.09-1.6-4.58-2.43-1.49-.83-2.99-1.71-4.47-2.62l-5.44,8.59c1.64,1.01,3.3,1.99,4.95,2.91,1.65.92,3.36,1.82,5.08,2.69l4.46-9.14ZM374.13,384.88c-1.14-.98-2.25-1.97-3.32-2.98-1.07-1-2.15-2.04-3.2-3.11l-7.34,7.04c1.18,1.2,2.39,2.38,3.6,3.51,1.21,1.13,2.47,2.25,3.75,3.35l6.51-7.81ZM365.84,394.83c-1.32-1.13-2.62-2.29-3.86-3.45-1.25-1.16-2.49-2.38-3.71-3.62l-7.34,7.04c1.35,1.38,2.73,2.72,4.11,4.01,1.38,1.29,2.82,2.57,4.29,3.83l6.51-7.81ZM348.92,396.72l-7.34,7.04c1.52,1.55,3.07,3.07,4.63,4.52,1.56,1.45,3.18,2.89,4.83,4.3l6.51-7.81c-1.51-1.29-2.98-2.6-4.41-3.93-1.42-1.32-2.84-2.71-4.22-4.12ZM382.43,374.94c-.95-.82-1.88-1.66-2.79-2.5-.9-.84-1.8-1.71-2.68-2.61l-7.34,7.04c1.02,1.03,2.05,2.04,3.09,3,1.04.97,2.11,1.93,3.21,2.87l6.51-7.81ZM390.72,365c-.77-.67-1.52-1.34-2.25-2.02-.73-.68-1.45-1.38-2.17-2.1l-7.34,7.04c.85.86,1.71,1.69,2.57,2.5.86.81,1.76,1.61,2.67,2.4l6.52-7.81ZM399.01,355.05c-.58-.51-1.15-1.02-1.71-1.54-.56-.52-1.11-1.05-1.66-1.6l-7.34,7.04c.68.68,1.37,1.35,2.06,1.99.69.64,1.41,1.28,2.13,1.92l6.51-7.81ZM399.62,371.87c-.84-.57-1.67-1.15-2.47-1.73-.81-.59-1.61-1.2-2.41-1.83l-6.44,7.87c.95.75,1.9,1.47,2.86,2.17.95.7,1.94,1.38,2.94,2.06l5.53-8.54ZM385.55,393.61c-1.25-.83-2.47-1.69-3.66-2.55-1.19-.87-2.38-1.77-3.55-2.7l-6.44,7.87c1.32,1.05,2.66,2.07,4,3.05,1.34.98,2.72,1.94,4.13,2.87l5.52-8.54ZM415.2,347.79l5.53-8.54c-.24-.17-.47-.33-.7-.5-.23-.17-.46-.34-.69-.51l-6.44,7.88c.38.29.76.58,1.14.86.38.28.77.55,1.16.83ZM413.69,350.13c-.44-.3-.87-.61-1.29-.91-.42-.31-.84-.63-1.27-.95l-6.44,7.87c.57.44,1.14.88,1.71,1.29.57.42,1.16.83,1.76,1.24l5.53-8.54ZM439.04,413.19c-1.49-.16-2.97-.35-4.43-.56-1.45-.21-2.93-.46-4.4-.74l-2.04,9.96c1.66.32,3.32.6,4.96.84,1.64.24,3.31.45,4.99.63l.92-10.13ZM440.21,400.29c-1.25-.14-2.49-.29-3.71-.47-1.22-.18-2.45-.39-3.69-.62l-2.04,9.96c1.42.27,2.84.51,4.25.72,1.4.21,2.84.39,4.27.54l.92-10.13ZM442.57,374.5c-.77-.09-1.53-.19-2.28-.3-.75-.11-1.51-.24-2.27-.37l-2.04,9.96c.95.17,1.89.33,2.83.47.93.14,1.89.26,2.84.37l.92-10.13ZM441.39,387.4c-1.01-.11-2.01-.24-3-.39-.98-.15-1.98-.31-2.98-.5l-2.04,9.96c1.19.22,2.37.42,3.54.59,1.17.17,2.36.32,3.56.45l.92-10.13ZM444.92,348.7c-.29-.04-.57-.07-.85-.11-.28-.04-.57-.09-.85-.13l-2.04,9.97c.47.08.94.16,1.41.23.47.07.94.13,1.41.19l.93-10.14ZM443.75,361.6c-.53-.06-1.05-.13-1.57-.21-.52-.08-1.04-.16-1.56-.25l-2.04,9.96c.71.13,1.42.25,2.12.35.7.1,1.41.2,2.13.28l.92-10.13ZM463.03,410.6c1.41-.13,2.84-.3,4.28-.5l-1.53-10.06c-1.25.17-2.49.31-3.72.43-1.23.12-2.48.21-3.73.28l.4,10.16c1.44-.08,2.88-.19,4.3-.32ZM465.49,436.38c1.88-.18,3.8-.41,5.71-.67l-1.53-10.05c-1.72.24-3.45.44-5.15.6-1.7.16-3.43.29-5.17.38l.4,10.16c1.93-.1,3.85-.24,5.73-.42ZM461.8,397.71c1.18-.11,2.37-.25,3.56-.41l-1.53-10.06c-1.01.13-2.01.25-3,.34-.99.09-2,.17-3.01.23l.4,10.16c1.2-.07,2.4-.16,3.58-.27ZM464.26,423.49c1.65-.16,3.32-.35,4.99-.58l-1.53-10.05c-1.49.2-2.97.38-4.43.52-1.46.14-2.95.25-4.45.33l.4,10.16c1.69-.09,3.37-.21,5.01-.37ZM437.86,426.08c-1.73-.18-3.45-.4-5.14-.65-1.69-.25-3.4-.54-5.11-.87l-2.04,9.96c1.89.37,3.79.69,5.67.97,1.87.28,3.78.52,5.7.71l.92-10.13ZM408.05,432.96l-3.23,9.64c2.07.67,4.15,1.29,6.2,1.85,2.05.56,4.16,1.09,6.28,1.57l2.14-9.94c-1.93-.44-3.85-.92-5.73-1.43-1.87-.51-3.77-1.08-5.66-1.69ZM391.73,426.66l-4.37,9.19c1.97.91,3.96,1.78,5.93,2.58,1.97.81,4,1.58,6.04,2.31l3.32-9.61c-1.87-.67-3.71-1.38-5.51-2.11-1.8-.74-3.61-1.53-5.41-2.36ZM419.56,382.17c-.95-.35-1.9-.72-2.82-1.09-.92-.38-1.85-.78-2.78-1.2l-4.37,9.19c1.1.5,2.2.97,3.29,1.42,1.09.45,2.21.88,3.35,1.29l3.32-9.61ZM415.33,394.41c-1.18-.43-2.35-.88-3.49-1.35-1.14-.47-2.29-.97-3.43-1.48l-4.37,9.19c1.31.6,2.64,1.17,3.95,1.71,1.31.54,2.66,1.06,4.02,1.55l3.32-9.61ZM441.21,334.78s-.09-.02-.14-.04-.09-.03-.14-.04l-3.23,9.65c.23.07.45.13.68.2.23.06.46.12.68.18l2.14-9.95ZM430.32,385.44c-.99-.23-1.97-.48-2.93-.74-.96-.26-1.93-.55-2.9-.85l-3.23,9.65c1.15.36,2.3.7,3.44,1.01,1.14.31,2.3.61,3.48.88l2.14-9.94ZM427.6,398.1c-1.22-.29-2.44-.59-3.63-.92-1.19-.33-2.39-.68-3.59-1.06l-3.23,9.64c1.38.44,2.76.85,4.13,1.22,1.37.37,2.77.73,4.18,1.05l2.14-9.94ZM435.76,360.12c-.52-.13-1.03-.26-1.53-.4-.5-.14-1.01-.29-1.52-.44l-3.23,9.65c.69.21,1.38.41,2.06.6.68.19,1.38.36,2.08.53l2.14-9.94ZM433.04,372.78c-.75-.18-1.5-.37-2.23-.57-.73-.2-1.47-.42-2.21-.64l-3.23,9.64c.92.29,1.84.56,2.75.81.91.25,1.84.48,2.78.71l2.14-9.94ZM338.42,356.42l8.86-4.99c-.72-1.32-1.4-2.64-2.05-3.96-.65-1.32-1.28-2.67-1.89-4.04l-9.36,3.98c.68,1.54,1.39,3.07,2.12,4.56.73,1.48,1.51,2.98,2.32,4.46ZM393.57,322.07c.2.43.4.87.61,1.29.21.42.43.85.65,1.27l8.86-4.99c-.13-.26-.26-.51-.39-.77-.13-.26-.25-.52-.37-.78l-9.36,3.98ZM349.7,350.06l8.86-4.99c-.6-1.1-1.17-2.22-1.72-3.32-.54-1.11-1.07-2.24-1.59-3.39l-9.36,3.98c.59,1.32,1.2,2.63,1.82,3.9.63,1.27,1.29,2.55,1.98,3.82ZM360.98,343.7l8.86-4.99c-.48-.89-.94-1.79-1.38-2.69-.44-.89-.87-1.81-1.28-2.74l-9.36,3.98c.49,1.1,1,2.19,1.52,3.25.52,1.06,1.07,2.13,1.65,3.19ZM331.83,342.28l9.4-3.89c-.55-1.39-1.08-2.79-1.56-4.18-.49-1.39-.95-2.81-1.39-4.24l-9.77,2.82c.49,1.62,1.01,3.22,1.56,4.78.55,1.56,1.14,3.14,1.76,4.71ZM365.83,322.01c.29.92.59,1.83.9,2.72.31.89.65,1.79,1,2.69l9.4-3.89c-.28-.72-.55-1.44-.8-2.16-.25-.72-.49-1.45-.72-2.18l-9.77,2.82ZM307.9,352.18l9.4-3.89c-.74-1.84-1.43-3.69-2.08-5.52-.64-1.83-1.25-3.72-1.82-5.61l-9.77,2.82c.62,2.08,1.29,4.14,2,6.15.7,2.01,1.47,4.04,2.28,6.05ZM353.39,325.61c.35,1.15.73,2.29,1.12,3.41.39,1.11.81,2.24,1.25,3.36l9.4-3.89c-.37-.94-.72-1.89-1.05-2.83-.33-.94-.64-1.9-.95-2.87l-9.77,2.82ZM412.14,327.49c.15.18.3.37.45.55.15.18.3.36.46.54l7.42-6.98s-.06-.07-.09-.11c-.03-.04-.06-.07-.09-.11l-8.14,6.11ZM388.4,338.98l8.19-6.02c-.3-.44-.6-.87-.88-1.31-.29-.44-.57-.88-.85-1.34l-8.81,5.08c.38.62.76,1.22,1.14,1.82.39.59.79,1.19,1.2,1.78ZM382.72,357.1c-.68-.75-1.35-1.51-1.99-2.28-.64-.76-1.28-1.55-1.9-2.35l-8.14,6.1c.74.95,1.5,1.89,2.26,2.79.76.9,1.55,1.81,2.36,2.7l7.41-6.97ZM325.8,385l8.19-6.02c-1.15-1.61-2.28-3.24-3.34-4.87-1.06-1.63-2.1-3.31-3.11-5.01l-8.81,5.08c1.1,1.87,2.25,3.71,3.41,5.49,1.16,1.78,2.39,3.57,3.66,5.33ZM363.85,374.84c-1.01-1.11-2-2.23-2.94-3.36-.95-1.13-1.88-2.29-2.8-3.47l-8.14,6.1c1.03,1.34,2.09,2.65,3.15,3.92,1.07,1.27,2.18,2.53,3.32,3.78l7.41-6.97ZM347.75,375.78l-8.14,6.1c1.18,1.53,2.38,3.03,3.6,4.48,1.22,1.45,2.49,2.89,3.8,4.32l7.41-6.97c-1.17-1.28-2.32-2.59-3.42-3.89-1.1-1.31-2.19-2.66-3.25-4.04ZM338.76,362.63l-8.81,5.08c.98,1.66,2,3.3,3.03,4.88,1.03,1.58,2.12,3.17,3.25,4.74l8.19-6.02c-1.01-1.41-1.99-2.85-2.93-4.28-.93-1.43-1.85-2.9-2.74-4.4ZM354.86,363.63c-.87-1.22-1.71-2.45-2.52-3.69-.8-1.23-1.59-2.5-2.36-3.79l-8.81,5.08c.86,1.45,1.75,2.88,2.66,4.27.9,1.39,1.86,2.78,2.84,4.15l8.19-6.02ZM397.27,328.91c.25.41.51.81.76,1.21.26.4.52.79.8,1.18l8.2-6.03c-.16-.24-.32-.48-.48-.72-.16-.24-.31-.48-.46-.73l-8.82,5.08ZM367.53,354.32l8.2-6.03c-.58-.83-1.15-1.67-1.7-2.5-.54-.83-1.08-1.69-1.6-2.56l-8.81,5.08c.62,1.03,1.26,2.05,1.9,3.04.65.99,1.32,1.98,2.02,2.97ZM365.29,355.96c-.73-1.03-1.43-2.06-2.11-3.09-.67-1.03-1.34-2.1-1.98-3.17l-8.81,5.08c.74,1.24,1.5,2.47,2.28,3.65.78,1.19,1.59,2.38,2.43,3.56l8.19-6.02ZM374.79,300.09c.05.72.1,1.44.17,2.14.07.7.15,1.42.24,2.13l10.06-1.53c-.06-.53-.12-1.05-.17-1.57-.05-.52-.09-1.05-.13-1.58l-10.16.4ZM323.03,302.13c.09,1.69.21,3.37.37,5.01.16,1.65.35,3.32.58,4.99l10.05-1.53c-.2-1.48-.38-2.97-.51-4.43-.14-1.46-.25-2.95-.33-4.45l-10.16.4ZM361.85,300.6c.06.96.13,1.92.22,2.86.09.94.2,1.89.32,2.85l10.06-1.53c-.1-.77-.18-1.53-.26-2.29-.07-.76-.13-1.52-.18-2.29l-10.16.4ZM348.91,301.11c.07,1.2.16,2.4.27,3.58s.25,2.37.41,3.56l10.06-1.53c-.13-1.01-.25-2.01-.34-3-.09-.99-.17-2-.23-3.01l-10.16.4ZM361.67,295.43l10.17-.3c0-.77,0-1.54.02-2.3.02-.76.05-1.53.1-2.3l-10.14-.83c-.06.96-.1,1.92-.13,2.86-.02.95-.03,1.9-.02,2.87ZM359.05,289.47l-10.14-.83c-.08,1.2-.13,2.4-.16,3.58-.03,1.18-.04,2.38-.02,3.59l10.17-.3c0-1.01,0-2.03.02-3.02s.07-2.01.13-3.02ZM374.61,295.04l10.17-.3c0-.53,0-1.06.02-1.58.01-.52.03-1.05.06-1.58l-10.14-.83c-.04.72-.07,1.44-.09,2.15-.02.71-.02,1.43-.02,2.15ZM346.14,288.42l-10.14-.83c-.1,1.44-.16,2.88-.2,4.3-.04,1.42-.04,2.86-.02,4.31l10.17-.3c-.02-1.26,0-2.51.02-3.74.03-1.23.09-2.48.17-3.74ZM320.33,286.31l-10.14-.83c-.13,1.93-.23,3.85-.28,5.74-.05,1.89-.06,3.82-.02,5.75l10.17-.3c-.03-1.74-.02-3.48.02-5.18.04-1.71.13-3.44.25-5.18ZM333.23,287.36l-10.14-.83c-.11,1.68-.19,3.37-.24,5.02-.04,1.65-.05,3.34-.02,5.03l10.16-.3c-.02-1.5-.01-2.99.02-4.46.04-1.47.11-2.96.21-4.46ZM324.84,317.63c.29,1.66.62,3.32.97,4.93.35,1.62.75,3.25,1.18,4.89l9.8-2.73c-.38-1.45-.73-2.9-1.05-4.34-.31-1.44-.6-2.9-.87-4.38l-10.04,1.62ZM337.62,315.56c.25,1.42.53,2.84.84,4.23.3,1.38.64,2.79,1.01,4.19l9.8-2.73c-.32-1.22-.61-2.43-.87-3.64-.26-1.2-.51-2.43-.73-3.67l-10.04,1.62ZM310.09,302.65c.1,1.93.24,3.85.42,5.73.18,1.88.41,3.8.67,5.71l10.05-1.53c-.24-1.72-.44-3.45-.6-5.15-.16-1.7-.29-3.43-.38-5.17l-10.16.4ZM378.28,318.42c.22.69.44,1.37.68,2.04.23.67.48,1.34.74,2.01l9.4-3.89c-.19-.5-.37-.99-.54-1.49-.17-.49-.34-1-.5-1.5l-9.77,2.82ZM403.17,311.23c.07.22.15.45.22.67.08.22.16.44.24.66l9.4-3.89s-.03-.09-.05-.13-.03-.09-.04-.13l-9.78,2.82ZM390.72,314.83c.15.46.3.91.45,1.35.16.45.32.89.49,1.34l9.4-3.89c-.1-.27-.2-.54-.29-.81-.09-.27-.19-.54-.28-.82l-9.78,2.82ZM302.05,334.39l9.8-2.73c-.51-1.91-.98-3.84-1.39-5.73-.42-1.9-.79-3.84-1.13-5.79l-10.04,1.62c.37,2.14.78,4.27,1.24,6.35.46,2.08.97,4.19,1.53,6.28ZM350.41,313.5c.21,1.19.45,2.36.7,3.52.25,1.15.53,2.32.84,3.49l9.8-2.73c-.25-.98-.49-1.97-.7-2.94-.21-.97-.41-1.96-.59-2.96l-10.04,1.62ZM298.38,316.03l10.06-1.53c-.27-1.96-.51-3.93-.69-5.86-.18-1.93-.33-3.91-.43-5.89l-10.16.4c.11,2.17.26,4.33.47,6.45.2,2.12.46,4.27.76,6.42ZM388.76,307.3c.09.47.19.94.29,1.4.1.46.21.92.32,1.39l9.8-2.73c-.07-.28-.13-.56-.19-.84-.06-.28-.12-.56-.17-.84l-10.05,1.62ZM401.55,305.23c.05.23.09.46.14.69.05.23.11.46.16.69l9.81-2.73s-.02-.09-.03-.14c0-.05-.02-.09-.03-.14l-10.05,1.62ZM363.19,311.43c.17.95.36,1.89.56,2.81.2.92.43,1.86.67,2.79l9.8-2.73c-.19-.75-.37-1.5-.53-2.24-.16-.74-.31-1.5-.46-2.26l-10.04,1.62ZM375.98,309.36c.13.71.27,1.41.43,2.1.15.69.32,1.39.49,2.09l9.8-2.73c-.13-.52-.25-1.03-.36-1.54s-.22-1.03-.32-1.55l-10.04,1.62ZM603.13,329.6l-9.94-2.14c-.44,1.93-.92,3.85-1.43,5.73-.51,1.87-1.08,3.77-1.69,5.66l9.64,3.23c.67-2.07,1.29-4.14,1.85-6.2.56-2.05,1.09-4.16,1.57-6.28ZM589.08,332.45c.5-1.82.97-3.69,1.4-5.58l-9.94-2.14c-.39,1.69-.81,3.38-1.26,5.03-.45,1.65-.95,3.31-1.48,4.97l9.64,3.23c.59-1.84,1.14-3.68,1.64-5.51ZM515.94,302.89l-10.14-.92c-.04.29-.07.57-.11.85-.04.28-.09.57-.14.85l9.97,2.04c.08-.47.16-.94.23-1.41.07-.47.13-.94.19-1.41ZM566.78,326.34c-.39,1.42-.81,2.85-1.27,4.28l9.64,3.23c.51-1.61.99-3.22,1.43-4.82.44-1.6.85-3.23,1.22-4.88l-9.94-2.14c-.34,1.46-.7,2.91-1.09,4.33ZM528.84,304.07l-10.13-.92c-.06.53-.13,1.05-.21,1.57-.08.52-.16,1.04-.25,1.56l9.96,2.04c.13-.71.25-1.42.35-2.12.1-.7.2-1.41.28-2.13ZM554.63,306.42l-10.13-.92c-.11,1.01-.24,2.01-.39,3-.15.99-.31,1.98-.5,2.98l9.96,2.04c.22-1.18.42-2.37.59-3.54.17-1.17.32-2.36.45-3.56ZM565.16,321.43l-9.94-2.14c-.29,1.22-.59,2.44-.92,3.63-.33,1.19-.68,2.39-1.06,3.59l9.64,3.23c.44-1.38.85-2.76,1.22-4.13.37-1.37.73-2.77,1.05-4.18ZM527.17,313.26l-9.94-2.14c-.13.52-.26,1.03-.4,1.53-.14.5-.29,1.01-.44,1.52l9.65,3.23c.21-.69.41-1.38.6-2.06.19-.68.36-1.38.53-2.08ZM501.84,307.82l-9.95-2.14s-.02.09-.04.14c-.01.04-.03.09-.04.14l9.65,3.23c.07-.23.13-.45.2-.68.06-.23.12-.46.18-.68ZM514.51,310.54l-9.95-2.14c-.07.28-.14.56-.22.83-.08.27-.15.55-.24.83l9.65,3.23c.14-.46.27-.92.4-1.37.12-.45.24-.92.36-1.38ZM539.84,315.99l-9.94-2.14c-.18.75-.37,1.5-.57,2.23-.2.73-.42,1.47-.64,2.21l9.64,3.23c.29-.92.56-1.84.81-2.75.25-.91.48-1.84.71-2.78ZM552.5,318.71l-9.94-2.14c-.23.99-.48,1.97-.74,2.93-.26.96-.55,1.93-.85,2.9l9.65,3.23c.36-1.15.7-2.3,1.01-3.44.31-1.14.61-2.31.88-3.48ZM544.95,300.31l10.14.83c.08-1.2.13-2.4.16-3.58.03-1.18.04-2.38.02-3.59l-10.17.3c0,1.01,0,2.03-.02,3.02-.03,1-.07,2.01-.13,3.02ZM583.67,303.47l10.14.83c.13-1.93.23-3.85.28-5.74.05-1.89.06-3.82.02-5.75l-10.17.3c.03,1.74.02,3.48-.02,5.18-.04,1.71-.13,3.44-.25,5.18ZM542.33,294.35l-10.17.3c0,.77,0,1.54-.02,2.3-.02.76-.05,1.53-.1,2.3l10.14.83c.06-.96.1-1.92.13-2.86.02-.94.03-1.9.02-2.87ZM529.39,294.74l-10.17.3c0,.53,0,1.06-.02,1.58-.01.52-.03,1.05-.06,1.58l10.14.83c.04-.72.07-1.44.09-2.15.02-.71.02-1.43.02-2.15ZM606.21,311.13l-10.13-.92c-.2,1.97-.45,3.93-.73,5.86-.28,1.92-.62,3.87-.99,5.82l9.96,2.04c.41-2.13.78-4.27,1.09-6.37.31-2.1.58-4.26.8-6.42ZM567.53,307.6l-10.13-.92c-.14,1.25-.29,2.49-.47,3.71-.18,1.22-.39,2.46-.62,3.69l9.96,2.04c.27-1.42.51-2.84.72-4.25.21-1.4.39-2.84.54-4.27ZM516.78,342.12c-.45.61-.91,1.23-1.39,1.84l7.87,6.44c.59-.76,1.17-1.52,1.73-2.29.56-.76,1.11-1.55,1.65-2.35l-8.54-5.53c-.44.64-.88,1.27-1.33,1.88ZM538.19,330.15c-.38.92-.78,1.85-1.2,2.78l9.19,4.37c.5-1.1.97-2.2,1.42-3.29.45-1.09.88-2.21,1.29-3.35l-9.61-3.32c-.35.95-.71,1.9-1.09,2.82ZM527.25,349.75c-.59.81-1.2,1.61-1.83,2.41l7.87,6.44c.75-.95,1.47-1.9,2.17-2.86.7-.95,1.38-1.94,2.06-2.94l-8.54-5.53c-.57.84-1.15,1.67-1.73,2.47ZM508.95,325.05l-9.15-4.46c-.14.25-.27.51-.41.76s-.28.5-.43.75l8.59,5.45c.24-.41.48-.83.71-1.24.23-.41.46-.83.68-1.26ZM497.3,319.37l-9.15-4.46s-.04.08-.07.12-.05.08-.07.12l8.6,5.45c.12-.2.24-.41.35-.61.11-.2.22-.41.34-.62ZM581,380.94l-8.54-5.53c-1.1,1.65-2.22,3.28-3.37,4.85-1.14,1.57-2.35,3.14-3.58,4.69l7.87,6.44c1.36-1.69,2.67-3.42,3.93-5.14,1.25-1.72,2.49-3.5,3.69-5.31ZM537.71,357.37c-.73,1-1.49,1.99-2.26,2.98l7.87,6.44c.9-1.13,1.77-2.28,2.61-3.43.84-1.15,1.66-2.33,2.47-3.53l-8.54-5.53c-.7,1.04-1.42,2.07-2.14,3.07ZM563.36,383.19c1.2-1.51,2.37-3.04,3.49-4.57s2.21-3.11,3.28-4.72l-8.54-5.53c-.96,1.45-1.96,2.87-2.96,4.25-1.01,1.38-2.06,2.76-3.14,4.12l7.87,6.44ZM454.47,449.94l-.3-10.17c-.83.02-1.67.03-2.49.03-1.14,0-2.28-.01-3.41-.04-1.94-.05-3.92-.15-5.9-.29l-.83,10.14c2.16.15,4.33.26,6.46.31,2.13.05,4.3.06,6.47.02ZM394.17,346.32l7.41-6.97c-.35-.4-.7-.8-1.03-1.2-.34-.4-.67-.81-1-1.22l-8.14,6.1c.45.57.9,1.12,1.35,1.67.46.54.93,1.08,1.41,1.62ZM536.65,326.42l-9.61-3.32c-.27.72-.55,1.44-.84,2.14-.29.7-.59,1.41-.91,2.12l9.18,4.37c.4-.88.78-1.76,1.13-2.63.36-.87.7-1.77,1.04-2.67ZM562.15,339.95c-.56,1.36-1.15,2.73-1.77,4.09l9.18,4.37c.7-1.53,1.38-3.08,2-4.61.63-1.53,1.23-3.1,1.8-4.69l-9.61-3.32c-.51,1.41-1.05,2.8-1.6,4.16ZM583.55,348.7c.72-1.75,1.41-3.55,2.06-5.37l-9.61-3.32c-.59,1.64-1.21,3.26-1.86,4.84-.65,1.58-1.34,3.17-2.07,4.75l9.18,4.37c.81-1.75,1.58-3.52,2.29-5.27ZM512.17,317.96l-9.62-3.32c-.1.27-.21.54-.32.8s-.22.53-.33.79l9.19,4.37c.19-.44.38-.88.56-1.31.18-.44.35-.88.52-1.33ZM555.92,352.9c-.72,1.28-1.47,2.57-2.25,3.85l8.59,5.44c.89-1.44,1.74-2.89,2.54-4.34.81-1.45,1.6-2.93,2.36-4.44l-9.14-4.46c-.68,1.34-1.38,2.66-2.09,3.94ZM544.61,346.59c-.6,1.08-1.23,2.16-1.89,3.23l8.59,5.44c.75-1.23,1.48-2.48,2.18-3.72.69-1.24,1.37-2.51,2.02-3.8l-9.14-4.46c-.57,1.12-1.16,2.23-1.76,3.3ZM573.19,369.12c1.01-1.64,1.99-3.3,2.91-4.96.92-1.65,1.82-3.36,2.69-5.08l-9.14-4.46c-.78,1.55-1.59,3.09-2.43,4.58-.83,1.49-1.71,2.99-2.62,4.47l8.59,5.44ZM522,333.97c-.37.66-.76,1.33-1.15,1.99l8.59,5.44c.5-.82.98-1.65,1.44-2.48.46-.82.91-1.67,1.35-2.53l-9.14-4.46c-.36.69-.72,1.36-1.09,2.03ZM590.43,364.76l-9.14-4.46c-.89,1.77-1.81,3.52-2.76,5.22-.95,1.69-1.95,3.4-2.99,5.09l8.59,5.44c1.14-1.85,2.24-3.72,3.28-5.57,1.04-1.86,2.05-3.78,3.02-5.72ZM550.61,264.18c-.35-1.15-.73-2.29-1.12-3.41-.39-1.12-.81-2.24-1.25-3.36l-9.4,3.89c.37.95.72,1.89,1.05,2.83.33.94.64,1.9.95,2.87l9.77-2.82ZM572.17,247.5l-9.4,3.89c.55,1.39,1.07,2.79,1.56,4.18.49,1.39.95,2.81,1.39,4.24l9.77-2.82c-.49-1.62-1.01-3.22-1.56-4.78-.55-1.56-1.14-3.14-1.76-4.71ZM538.17,267.77c-.29-.92-.59-1.83-.9-2.72-.31-.89-.65-1.79-1-2.69l-9.4,3.89c.28.72.55,1.44.8,2.16.25.72.49,1.45.72,2.18l9.77-2.82ZM596.1,237.6l-9.4,3.89c.74,1.84,1.43,3.69,2.08,5.53.64,1.83,1.25,3.72,1.82,5.61l9.77-2.82c-.62-2.08-1.29-4.14-2-6.15-.7-2.01-1.47-4.04-2.28-6.05ZM498.5,272.78c-.1-.21-.2-.43-.3-.64s-.21-.42-.32-.63l-8.87,5s.04.08.06.13.04.09.06.13l9.37-3.98ZM560.2,252.45l-9.4,3.89c.46,1.17.9,2.34,1.31,3.51.41,1.16.8,2.35,1.17,3.56l9.77-2.82c-.42-1.38-.87-2.76-1.34-4.09-.47-1.34-.97-2.69-1.51-4.04ZM579.16,272.15c-.29-1.66-.62-3.32-.97-4.93-.35-1.62-.75-3.25-1.18-4.89l-9.8,2.73c.38,1.45.73,2.9,1.05,4.34.31,1.43.6,2.9.87,4.38l10.04-1.62ZM591.94,270.09c-.33-1.9-.7-3.79-1.11-5.64-.41-1.85-.86-3.72-1.36-5.59l-9.8,2.73c.44,1.68.85,3.37,1.22,5.04.37,1.67.7,3.37,1,5.08l10.04-1.62ZM566.37,274.22c-.25-1.43-.53-2.84-.84-4.23-.3-1.39-.64-2.79-1.01-4.19l-9.8,2.73c.32,1.22.61,2.43.87,3.64.26,1.2.51,2.43.73,3.67l10.04-1.62ZM513.28,274.95c-.15-.46-.3-.91-.45-1.35-.16-.44-.32-.89-.49-1.34l-9.4,3.89c.1.27.2.54.29.81.09.27.18.54.27.82l9.78-2.82ZM500.83,278.55c-.07-.22-.15-.45-.22-.67-.08-.22-.16-.44-.24-.66l-9.4,3.89s.03.09.05.13c.02.04.03.09.04.13l9.78-2.82ZM549.14,226.15c.87,1.22,1.71,2.46,2.52,3.69.8,1.23,1.59,2.5,2.36,3.79l8.81-5.08c-.86-1.45-1.75-2.88-2.66-4.27-.9-1.39-1.86-2.78-2.84-4.15l-8.19,6.02ZM510.43,267.71c-.2-.43-.4-.87-.61-1.29-.21-.42-.43-.85-.65-1.27l-8.86,4.99c.13.26.26.51.39.77.13.26.25.52.37.78l9.36-3.98ZM588.14,220.65l-8.86,4.99c.95,1.74,1.87,3.49,2.73,5.23.86,1.74,1.69,3.54,2.49,5.35l9.36-3.98c-.87-1.99-1.78-3.96-2.72-5.87-.94-1.91-1.94-3.83-2.99-5.74ZM495.5,267.34c-.13-.2-.25-.4-.38-.6-.13-.2-.26-.39-.39-.59l-8.2,6.03s.05.08.08.12c.03.04.05.08.08.12l8.82-5.08ZM565.24,227.15l8.81-5.08c-.98-1.66-2-3.3-3.03-4.88-1.03-1.58-2.12-3.17-3.25-4.74l-8.19,6.02c1.01,1.41,1.99,2.85,2.93,4.28.93,1.43,1.85,2.9,2.74,4.4ZM536.47,235.46l-8.2,6.03c.58.83,1.15,1.67,1.7,2.5.54.83,1.08,1.69,1.6,2.56l8.81-5.08c-.62-1.03-1.26-2.05-1.9-3.04-.65-.99-1.32-1.98-2.02-2.97ZM531.74,252.44l-8.86,4.99c.36.68.71,1.37,1.05,2.05.34.68.66,1.38.98,2.08l9.36-3.98c-.4-.88-.8-1.75-1.22-2.6-.42-.85-.86-1.7-1.31-2.55ZM451.73,413.9c-.94,0-1.87-.01-2.8-.04-1.47-.04-2.96-.11-4.46-.21l-.83,10.14c1.68.11,3.37.19,5.02.24,1.65.04,3.34.05,5.03.02l-.3-10.16c-.56,0-1.11.01-1.66.01ZM565.58,233.36l-8.86,4.99c.72,1.32,1.4,2.64,2.05,3.96.65,1.32,1.28,2.67,1.89,4.04l9.36-3.98c-.68-1.55-1.39-3.07-2.12-4.56-.73-1.48-1.51-2.98-2.32-4.46ZM554.3,239.72l-8.86,4.99c.6,1.11,1.17,2.22,1.72,3.32.54,1.11,1.07,2.24,1.59,3.39l9.36-3.98c-.59-1.32-1.2-2.63-1.82-3.9-.63-1.27-1.29-2.55-1.98-3.82ZM543.02,246.08l-8.86,4.99c.48.89.94,1.79,1.38,2.69.44.89.87,1.81,1.28,2.74l9.36-3.98c-.49-1.1-1-2.19-1.52-3.25-.52-1.06-1.07-2.13-1.65-3.19ZM605.62,273.75l-10.06,1.53c.27,1.96.51,3.93.69,5.86.18,1.93.33,3.91.43,5.89l10.16-.4c-.11-2.17-.26-4.33-.47-6.45-.2-2.12-.46-4.27-.76-6.42ZM460.58,163.22l.83-10.14c-1.92-.13-3.85-.23-5.74-.28-1.89-.05-3.82-.06-5.75-.02l.3,10.17c1.74-.03,3.48-.02,5.18.02,1.71.04,3.44.13,5.18.25ZM453.73,227.69c.52.01,1.05.03,1.58.06l.83-10.14c-.72-.04-1.44-.07-2.15-.09-.71-.02-1.43-.02-2.15-.02l.3,10.17c.53,0,1.06,0,1.58.02ZM448.91,359.26c.48.02.95.04,1.43.06.47.01.95.02,1.43.02l-.3-10.17c-.29,0-.58,0-.86-.01-.28,0-.57-.02-.86-.03l-.83,10.14ZM450.67,346.37c.23,0,.47,0,.71,0l-.3-10.17s-.09,0-.14,0c-.05,0-.09,0-.14,0l-.83,10.14c.24,0,.47.02.71.03ZM443.42,426.56l-.83,10.14c1.93.13,3.85.23,5.74.28,1.89.05,3.82.06,5.75.02l-.3-10.17c-.69.01-1.39.02-2.08.02-1.04,0-2.08-.01-3.1-.04-1.71-.04-3.44-.13-5.18-.25ZM451.76,400.95c-.84,0-1.67-.01-2.5-.03-1.23-.03-2.48-.09-3.74-.17l-.83,10.14c1.44.1,2.88.16,4.3.2,1.42.04,2.86.04,4.31.02l-.3-10.17c-.42,0-.83,0-1.25,0ZM450.27,362.09c-.52-.01-1.05-.03-1.58-.06l-.83,10.14c.72.04,1.44.07,2.15.09.71.02,1.43.02,2.15.02l-.3-10.17c-.53,0-1.06,0-1.58-.02ZM529.21,289.69c-.05-.72-.1-1.44-.17-2.14-.07-.71-.15-1.42-.24-2.13l-10.06,1.53c.06.53.12,1.05.17,1.57.05.52.09,1.05.13,1.58l10.16-.4ZM526.04,243.13l-8.19,6.02c.44.63.87,1.27,1.29,1.91.41.64.82,1.29,1.23,1.95l8.81-5.08c-.5-.82-1.01-1.64-1.52-2.43-.52-.79-1.06-1.58-1.61-2.37ZM593.91,287.14c-.1-1.93-.24-3.85-.42-5.73-.18-1.88-.41-3.8-.67-5.71l-10.05,1.53c.24,1.72.44,3.45.6,5.15.16,1.7.29,3.43.38,5.17l10.16-.4ZM515.24,282.48c-.09-.47-.19-.94-.29-1.4-.1-.46-.21-.92-.32-1.39l-9.8,2.73c.07.28.13.56.19.84.06.28.12.56.17.84l10.05-1.62ZM455.09,230.52c-.48-.02-.96-.04-1.43-.06-.47-.01-.95-.02-1.43-.02l.3,10.17c.29,0,.58,0,.86.01.28,0,.57.02.86.03l.83-10.14ZM540.81,278.35c-.17-.95-.36-1.89-.56-2.81-.2-.92-.43-1.86-.67-2.79l-9.8,2.73c.19.75.37,1.5.53,2.24.16.74.31,1.5.46,2.26l10.04-1.62ZM568.03,288.16c-.08-1.44-.19-2.88-.32-4.3-.13-1.41-.3-2.84-.5-4.28l-10.06,1.53c.17,1.25.31,2.49.43,3.72.12,1.23.21,2.48.28,3.73l10.16-.4ZM555.09,288.67c-.07-1.2-.16-2.4-.27-3.58-.11-1.18-.25-2.37-.41-3.56l-10.06,1.53c.13,1.01.25,2.01.34,3,.09.99.17,2,.23,3.01l10.16-.4ZM542.15,289.18c-.06-.96-.13-1.92-.22-2.86-.09-.94-.2-1.89-.32-2.85l-10.06,1.53c.1.77.18,1.53.26,2.29.07.76.13,1.52.18,2.29l10.16-.4ZM515.6,250.8l-8.19,6.02c.3.44.6.87.88,1.31.29.44.57.88.85,1.34l8.81-5.08c-.38-.62-.76-1.22-1.14-1.82-.39-.59-.79-1.19-1.2-1.78ZM353.83,254.73c.47-1.14.96-2.29,1.48-3.43l-9.19-4.37c-.6,1.32-1.18,2.64-1.71,3.95-.54,1.31-1.06,2.66-1.55,4.02l9.61,3.32c.43-1.18.88-2.35,1.35-3.49ZM376.82,276.52l9.94,2.14c.13-.52.26-1.03.4-1.53.14-.5.29-1.01.44-1.52l-9.65-3.23c-.21.69-.41,1.38-.6,2.06-.19.68-.36,1.38-.53,2.08ZM389.49,279.24l9.95,2.14c.07-.28.14-.56.22-.83.08-.28.15-.55.24-.83l-9.65-3.23c-.14.46-.27.92-.4,1.37-.12.45-.24.92-.36,1.38ZM391.83,271.82l9.62,3.32c.1-.27.21-.54.32-.8.11-.26.22-.53.33-.79l-9.19-4.37c-.19.44-.38.88-.56,1.31-.18.44-.35.88-.52,1.33ZM320.45,241.08c-.72,1.75-1.41,3.55-2.06,5.37l9.61,3.32c.59-1.64,1.21-3.26,1.86-4.84.65-1.58,1.34-3.17,2.07-4.75l-9.18-4.37c-.81,1.75-1.58,3.52-2.29,5.27ZM404.08,276.05l9.62,3.32s.03-.09.05-.13.04-.09.06-.13l-9.19-4.37c-.09.22-.19.43-.28.65-.09.22-.17.44-.26.66ZM313.57,225.02l9.14,4.46c.89-1.77,1.81-3.52,2.76-5.22.95-1.7,1.95-3.4,2.99-5.09l-8.59-5.44c-1.14,1.85-2.24,3.71-3.28,5.57-1.04,1.86-2.05,3.78-3.02,5.72ZM341.84,249.83c.56-1.36,1.15-2.73,1.77-4.09l-9.18-4.37c-.7,1.53-1.38,3.08-2,4.61-.63,1.53-1.23,3.1-1.8,4.69l9.61,3.32c.51-1.41,1.05-2.8,1.6-4.16ZM362.26,284.54l10.13.92c.09-.77.19-1.53.3-2.28.11-.75.24-1.51.37-2.27l-9.96-2.04c-.17.95-.33,1.89-.47,2.83-.14.93-.26,1.89-.37,2.84ZM323.57,281l10.13.92c.16-1.49.35-2.97.56-4.43.21-1.45.46-2.93.74-4.4l-9.96-2.04c-.32,1.66-.6,3.32-.84,4.96-.24,1.64-.45,3.31-.63,4.99ZM310.68,279.83l10.13.92c.18-1.73.4-3.45.65-5.14.25-1.69.54-3.4.87-5.11l-9.96-2.04c-.37,1.89-.69,3.79-.97,5.67-.28,1.87-.52,3.78-.71,5.7ZM297.79,278.65l10.13.92c.2-1.97.45-3.94.73-5.86.28-1.92.62-3.87.99-5.82l-9.96-2.04c-.41,2.13-.78,4.27-1.09,6.37-.31,2.1-.58,4.26-.8,6.42ZM375.16,285.71l10.13.92c.06-.53.13-1.05.21-1.57.08-.52.16-1.04.25-1.56l-9.96-2.04c-.13.71-.25,1.42-.35,2.12-.1.7-.2,1.41-.28,2.13ZM337.22,263.44c.39-1.42.81-2.85,1.27-4.28l-9.64-3.23c-.51,1.61-1,3.22-1.43,4.82-.44,1.6-.85,3.23-1.22,4.88l9.94,2.14c.34-1.46.7-2.91,1.09-4.33ZM300.87,260.18l9.94,2.14c.44-1.93.92-3.85,1.43-5.73.51-1.87,1.08-3.77,1.69-5.66l-9.64-3.23c-.67,2.07-1.29,4.15-1.85,6.2-.56,2.05-1.09,4.16-1.57,6.28ZM400.96,288.07l10.14.93s.01-.09.02-.14.02-.09.02-.14l-9.97-2.04c-.04.23-.08.47-.11.7-.03.23-.06.47-.09.7ZM566.42,190.23l-7.41,6.97c1.34,1.46,2.65,2.94,3.9,4.43,1.25,1.49,2.49,3.03,3.7,4.6l8.14-6.1c-1.32-1.72-2.68-3.42-4.05-5.04-1.37-1.63-2.8-3.26-4.27-4.85ZM509.82,243.46l-7.41,6.97c.35.4.7.8,1.03,1.2.34.4.67.81,1,1.22l8.14-6.1c-.45-.57-.9-1.12-1.35-1.67-.46-.54-.93-1.08-1.41-1.62ZM449.53,139.84l.3,10.17c1.98-.04,3.96-.03,5.9.02,1.94.05,3.92.15,5.89.29l.83-10.14c-2.17-.15-4.33-.26-6.46-.31-2.13-.05-4.3-.06-6.47-.02ZM355.83,224.78c.87-1.19,1.77-2.38,2.7-3.55l-7.87-6.44c-1.05,1.32-2.07,2.66-3.05,4-.97,1.34-1.94,2.72-2.87,4.13l8.54,5.52c.83-1.25,1.69-2.47,2.55-3.66ZM521.28,232.68c.68.75,1.35,1.51,1.99,2.28.64.76,1.28,1.55,1.9,2.35l8.14-6.1c-.74-.95-1.49-1.89-2.26-2.79-.76-.9-1.55-1.81-2.36-2.7l-7.41,6.97ZM399.1,258.09l8.54,5.53c.17-.24.33-.47.5-.7.17-.23.34-.46.51-.69l-7.88-6.44c-.29.38-.58.76-.86,1.14-.28.38-.55.77-.83,1.16ZM502.23,254.52c-.3-.37-.6-.74-.9-1.1-.3-.36-.62-.72-.93-1.08l-7.41,6.97c.19.22.38.44.56.65s.37.44.55.66l8.14-6.11ZM578.2,204.78l-8.19,6.02c1.16,1.61,2.28,3.24,3.34,4.87,1.06,1.63,2.1,3.31,3.11,5.01l8.81-5.08c-1.1-1.87-2.25-3.71-3.41-5.49-1.16-1.78-2.39-3.57-3.66-5.33ZM556.25,214l8.14-6.1c-1.18-1.53-2.38-3.03-3.6-4.48-1.22-1.45-2.49-2.89-3.8-4.32l-7.41,6.97c1.17,1.28,2.32,2.59,3.42,3.89,1.1,1.31,2.19,2.66,3.25,4.04ZM530.72,223.81c.84.93,1.67,1.87,2.46,2.82.79.94,1.58,1.92,2.35,2.91l8.14-6.1c-.89-1.14-1.79-2.27-2.7-3.35-.91-1.09-1.86-2.17-2.84-3.24l-7.41,6.97ZM348.08,236.88c.72-1.28,1.47-2.57,2.25-3.85l-8.59-5.44c-.88,1.44-1.74,2.89-2.54,4.34-.81,1.45-1.6,2.93-2.36,4.44l9.14,4.46c.68-1.34,1.38-2.66,2.09-3.94ZM383.41,259.06l9.14,4.46c.25-.47.5-.94.75-1.39.25-.46.52-.91.79-1.37l-8.59-5.44c-.37.62-.73,1.24-1.08,1.86-.35.62-.68,1.25-1.02,1.89ZM395.05,264.73l9.15,4.46c.14-.25.27-.51.41-.76s.28-.5.43-.75l-8.59-5.45c-.24.41-.48.83-.71,1.24-.23.41-.46.83-.68,1.26ZM359.38,243.19c.6-1.08,1.23-2.16,1.89-3.23l-8.59-5.44c-.76,1.23-1.49,2.48-2.18,3.72-.69,1.24-1.37,2.51-2.02,3.8l9.14,4.46c.57-1.12,1.16-2.23,1.76-3.3ZM323,208.84l8.54,5.53c1.1-1.65,2.22-3.28,3.37-4.85,1.14-1.57,2.35-3.14,3.58-4.69l-7.87-6.44c-1.36,1.69-2.67,3.42-3.93,5.14-1.25,1.72-2.49,3.5-3.69,5.31ZM376.75,240.03c.59-.8,1.2-1.61,1.83-2.41l-7.87-6.44c-.75.95-1.47,1.9-2.17,2.86-.7.96-1.38,1.94-2.06,2.94l8.54,5.53c.57-.84,1.15-1.67,1.73-2.47ZM366.29,232.41c.73-1,1.49-1.99,2.26-2.98l-7.87-6.44c-.9,1.13-1.77,2.28-2.61,3.43-.84,1.15-1.66,2.33-2.47,3.53l8.54,5.53c.7-1.04,1.42-2.07,2.14-3.07ZM406.7,270.41l9.15,4.46s.04-.08.07-.12c.02-.04.05-.08.07-.12l-8.6-5.45c-.12.2-.24.41-.35.61-.11.2-.22.41-.34.62ZM387.22,247.66c.45-.61.91-1.23,1.39-1.84l-7.87-6.44c-.59.76-1.17,1.52-1.73,2.29-.56.76-1.11,1.55-1.65,2.35l8.54,5.53c.44-.64.88-1.27,1.33-1.88ZM397.68,255.29c.31-.42.63-.85.95-1.27l-7.87-6.44c-.44.57-.88,1.14-1.29,1.71-.42.57-.83,1.16-1.24,1.76l8.54,5.53c.3-.44.61-.87.91-1.29ZM340.64,206.59c-1.2,1.51-2.37,3.04-3.49,4.57-1.11,1.53-2.21,3.11-3.28,4.72l8.54,5.53c.96-1.45,1.96-2.87,2.96-4.25,1.01-1.38,2.06-2.76,3.14-4.12l-7.87-6.44Z"/></g></g></g><g id="bj"><path id="bk" class="du" d="M428.8,245.82c-.26.13-.52.25-.78.38-.25.12-.51.25-.77.39l-4.99-8.87c.42-.22.85-.44,1.27-.65.42-.2.85-.41,1.29-.61l3.98,9.36ZM404.55,188.79c-1.32.58-2.62,1.19-3.9,1.82-1.27.63-2.55,1.29-3.82,1.98l4.99,8.86c1.11-.6,2.22-1.17,3.32-1.72,1.11-.54,2.25-1.07,3.39-1.58l-3.98-9.36ZM418.78,143.41c-2.08.46-4.19.97-6.28,1.53l2.73,9.8c1.91-.51,3.84-.98,5.73-1.39,1.9-.42,3.84-.79,5.79-1.13l-1.62-10.04c-2.14.37-4.27.78-6.35,1.24ZM421.55,156.06c-1.84.4-3.72.86-5.58,1.35l2.73,9.8c1.68-.44,3.37-.85,5.03-1.22,1.67-.37,3.37-.7,5.09-1l-1.63-10.04c-1.9.33-3.79.7-5.64,1.11ZM444.24,152.98c-1.93.1-3.85.24-5.73.42-1.88.18-3.8.41-5.71.67l1.53,10.06c1.72-.24,3.45-.44,5.15-.61,1.7-.16,3.43-.29,5.16-.38l-.4-10.16ZM431.33,180.52c-1.43.25-2.85.53-4.23.83-1.39.31-2.79.64-4.19,1.01l2.73,9.8c1.22-.32,2.43-.61,3.64-.87,1.2-.27,2.43-.51,3.67-.73l-1.62-10.04ZM429.88,194c-1.15.25-2.32.53-3.49.84l2.73,9.8c.98-.25,1.97-.49,2.94-.7.97-.21,1.97-.41,2.96-.59l-1.62-10.04c-1.19.21-2.36.45-3.52.7ZM410.81,263.99c-.15.18-.29.37-.43.56-.13.19-.27.39-.4.58l8.54,5.53s.05-.08.08-.12c.03-.03.06-.07.09-.11l-7.88-6.44ZM357.55,206.76c-1.13,1.21-2.25,2.47-3.35,3.75l7.81,6.51c.98-1.14,1.97-2.25,2.98-3.32,1-1.07,2.04-2.15,3.11-3.2l-7.04-7.34c-1.2,1.18-2.38,2.39-3.51,3.6ZM411.51,228.94c-.62.38-1.23.76-1.82,1.14-.59.39-1.19.8-1.78,1.21l6.03,8.19c.43-.3.87-.59,1.31-.88s.88-.57,1.34-.85l-5.08-8.81ZM381.38,186.72c-1.39.91-2.78,1.86-4.15,2.84l6.02,8.19c1.22-.87,2.45-1.71,3.69-2.52,1.23-.8,2.5-1.59,3.79-2.36l-5.08-8.81c-1.45.86-2.88,1.75-4.27,2.66ZM372.72,161.62c-1.87,1.11-3.71,2.25-5.5,3.41-1.78,1.17-3.57,2.39-5.33,3.66l6.02,8.2c1.61-1.16,3.25-2.28,4.87-3.34,1.63-1.06,3.31-2.11,5.02-3.12l-5.08-8.81ZM360.52,186.11c-1.45,1.21-2.89,2.49-4.31,3.79l6.96,7.41c1.29-1.17,2.59-2.32,3.9-3.42,1.3-1.1,2.66-2.19,4.03-3.25l-6.1-8.13c-1.53,1.17-3.03,2.38-4.48,3.6ZM363.34,180.29l-6.11-8.14c-1.72,1.32-3.41,2.68-5.04,4.05-1.63,1.37-3.26,2.8-4.85,4.27l6.96,7.41c1.46-1.34,2.95-2.65,4.43-3.9,1.49-1.25,3.03-2.49,4.61-3.69ZM402.62,219.24c-.79.52-1.58,1.06-2.37,1.61l6.02,8.19c.63-.44,1.27-.87,1.91-1.29.64-.41,1.29-.82,1.95-1.23l-5.08-8.81c-.82.5-1.64,1.01-2.43,1.52ZM429.89,248.39c-.22.1-.43.2-.64.3s-.42.21-.63.32l5,8.87s.08-.05.12-.07.09-.04.13-.06l-3.98-9.36ZM489.72,227.31c-.62-.34-1.25-.68-1.89-1.01l-4.46,9.14c.47.25.94.5,1.39.75.46.26.92.52,1.37.79l5.45-8.59c-.62-.37-1.24-.73-1.86-1.08ZM542.06,181.38l6.44-7.87c-1.7-1.36-3.42-2.68-5.14-3.93-1.72-1.25-3.5-2.49-5.31-3.69l-5.53,8.54c1.65,1.1,3.28,2.22,4.85,3.37,1.57,1.14,3.14,2.35,4.69,3.58ZM491.1,199.29c-1.09-.45-2.21-.88-3.34-1.29l-3.33,9.61c.96.35,1.9.72,2.82,1.09.93.38,1.85.78,2.78,1.2l4.37-9.19c-1.1-.5-2.2-.97-3.3-1.42ZM410.46,329.82c-.19-.22-.37-.44-.55-.66l-8.14,6.1c.3.38.6.75.9,1.11.31.36.62.72.94,1.08l7.41-6.97c-.19-.22-.38-.44-.56-.66ZM506.07,188.88c1.34.68,2.66,1.38,3.94,2.09,1.28.72,2.57,1.47,3.85,2.25l5.44-8.59c-1.44-.88-2.89-1.74-4.34-2.54-1.44-.81-2.93-1.6-4.44-2.36l-4.46,9.14ZM513.63,228.84c-.69-.65-1.41-1.29-2.13-1.92l-6.52,7.81c.58.51,1.16,1.02,1.71,1.54.56.52,1.11,1.06,1.66,1.6l7.34-7.04c-.68-.68-1.37-1.35-2.06-1.99ZM521.14,236.75c-.61-.73-1.24-1.45-1.88-2.16l-7.41,6.97c.51.57,1.02,1.15,1.51,1.73s.97,1.18,1.45,1.79l8.14-6.1c-.6-.76-1.2-1.51-1.81-2.23ZM503.2,236.86l-6.51,7.82c.39.35.79.7,1.17,1.06s.76.72,1.14,1.09l7.34-7.04c-.51-.5-1.03-1-1.54-1.49-.52-.48-1.06-.96-1.6-1.44ZM497.59,232.35c-.57-.41-1.16-.83-1.76-1.23l-5.52,8.54c.44.3.87.6,1.29.91.42.31.84.63,1.26.95l6.44-7.87c-.57-.45-1.14-.88-1.71-1.3ZM452.62,243.4l.3,10.17c.05.01.1,0,.14.01h.14l.83-10.14c-.23-.01-.47-.02-.7-.03-.24-.01-.48-.01-.71-.01ZM465.61,245.22c-.23-.06-.46-.12-.69-.17l-2.14,9.95s.09.02.14.03c.04.01.09.03.14.04l3.23-9.65c-.23-.07-.46-.13-.68-.2ZM466.14,163.7c1.73.18,3.45.4,5.14.65,1.69.25,3.4.54,5.11.87l2.04-9.96c-1.9-.37-3.8-.69-5.67-.97-1.87-.28-3.78-.52-5.7-.71l-.92,10.13ZM512.27,163.12l4.37-9.19c-1.97-.91-3.96-1.78-5.93-2.58-1.97-.81-4-1.58-6.04-2.31l-3.32,9.61c1.86.67,3.71,1.37,5.51,2.11,1.8.74,3.61,1.53,5.41,2.36ZM419.4,255.03c-.18.14-.37.3-.55.45s-.35.3-.53.46l6.97,7.41s.07-.06.11-.09c.03-.03.07-.06.11-.09l-6.11-8.14ZM441.66,244.45c-.23.04-.47.09-.69.14-.23.05-.46.1-.69.16l2.73,9.8s.09-.02.14-.03c.04-.01.09-.02.13-.03l-1.62-10.04ZM490.55,393.7c-1.17.46-2.35.89-3.51,1.3-1.17.41-2.36.8-3.56,1.17l2.82,9.77c1.39-.42,2.76-.87,4.1-1.34,1.34-.47,2.69-.97,4.03-1.51l-3.88-9.39ZM474.72,398.5c-1.21.26-2.44.5-3.67.72l1.62,10.05c1.42-.26,2.84-.54,4.22-.84,1.39-.3,2.79-.64,4.19-1.01l-2.73-9.8c-1.21.32-2.43.61-3.63.88ZM451.82,375.06c-.64,0-1.27-.01-1.89-.02-.76-.02-1.53-.06-2.3-.1l-.83,10.13c.96.06,1.92.11,2.87.13.94.03,1.9.03,2.86.02l-.3-10.16h-.41ZM480.64,369.76c-.72.28-1.44.55-2.16.8-.71.25-1.44.49-2.18.72l2.82,9.78c.92-.29,1.83-.59,2.72-.9.9-.31,1.79-.65,2.69-1l-3.89-9.4ZM469.17,373.2c-.74.16-1.5.32-2.26.46l1.63,10.04c.94-.18,1.88-.36,2.81-.57.92-.2,1.85-.42,2.79-.66l-2.73-9.8c-.75.19-1.5.37-2.24.53ZM459.6,374.7c-.75.07-1.52.13-2.29.18l.4,10.16c.96-.05,1.92-.13,2.86-.22.94-.09,1.89-.2,2.85-.32l-1.53-10.06c-.76.1-1.53.19-2.29.26ZM465.78,333.85s-.09.03-.13.05c-.04.01-.09.03-.13.04l2.82,9.78c.22-.07.45-.15.67-.22.22-.08.44-.16.66-.25l-3.89-9.4ZM511.93,366.16c-.76.64-1.55,1.28-2.35,1.9l6.1,8.14c.95-.74,1.89-1.49,2.79-2.26.91-.76,1.81-1.55,2.7-2.36l-6.97-7.41c-.75.68-1.51,1.35-2.27,1.99ZM522.1,356.17c-.66.77-1.34,1.52-2.02,2.25-.68.72-1.38,1.45-2.1,2.17l7.04,7.34c.85-.85,1.69-1.71,2.5-2.58.8-.86,1.6-1.75,2.39-2.67l-7.81-6.51ZM491.32,407.22c-1.39.49-2.81.95-4.25,1.39l2.83,9.77c1.61-.49,3.21-1.01,4.78-1.56,1.56-.55,3.14-1.14,4.7-1.76l-3.88-9.4c-1.4.55-2.8,1.08-4.18,1.56ZM514.89,410.89c-1.53.84-3.07,1.64-4.6,2.39s-3.11,1.49-4.7,2.19l3.98,9.36c1.77-.78,3.51-1.59,5.21-2.43,1.7-.83,3.41-1.72,5.1-2.65l-4.99-8.86ZM513.52,408.47l-4.99-8.86c-1.32.72-2.64,1.41-3.96,2.05-1.32.65-2.67,1.29-4.04,1.89l3.97,9.36c1.55-.68,3.08-1.39,4.56-2.12,1.49-.73,2.98-1.51,4.46-2.32ZM565.39,400.69c1.45-1.56,2.9-3.18,4.3-4.83l-7.81-6.51c-1.29,1.51-2.6,2.98-3.93,4.41-1.33,1.42-2.71,2.84-4.12,4.22l7.04,7.34c1.55-1.52,3.07-3.07,4.52-4.63ZM491.68,331.92c-.19.21-.39.41-.59.62l7.04,7.35c.33-.35.67-.69.99-1.03.32-.35.64-.7.96-1.06l-7.82-6.52c-.19.22-.38.43-.58.64ZM496.36,326.16c-.17.24-.34.47-.5.7-.17.24-.34.47-.52.7l7.88,6.44c.29-.38.58-.76.85-1.14.28-.39.56-.78.83-1.17l-8.54-5.53ZM508.46,381.38c.99-.65,1.98-1.32,2.97-2.02l-6.03-8.2c-.83.58-1.66,1.15-2.5,1.7-.84.55-1.69,1.08-2.56,1.6l5.08,8.81c1.03-.62,2.05-1.26,3.04-1.9ZM536.77,424.75c1.78-1.16,3.57-2.39,5.33-3.66l-6.02-8.19c-1.61,1.16-3.24,2.28-4.87,3.34-1.63,1.06-3.31,2.11-5.01,3.11l5.08,8.81c1.87-1.1,3.71-2.25,5.5-3.41ZM374.26,401.52c-1.38-1-2.76-2.06-4.12-3.14l-6.44,7.87c1.51,1.21,3.04,2.38,4.57,3.49,1.52,1.12,3.11,2.22,4.72,3.28l5.52-8.54c-1.45-.96-2.87-1.95-4.25-2.96ZM430.65,344.79l-4.37,9.19c.44.19.88.38,1.32.56.43.18.88.35,1.33.52l3.32-9.62c-.27-.1-.54-.21-.8-.31-.27-.11-.53-.22-.8-.34ZM437.65,347.24c-.27-.08-.55-.16-.83-.24l-3.23,9.65c.46.14.92.27,1.38.39.45.13.91.25,1.38.36l2.14-9.94c-.28-.08-.56-.15-.84-.22ZM376.28,418.43l-5.44,8.59c1.85,1.14,3.71,2.24,5.57,3.28,1.86,1.04,3.78,2.05,5.72,3.02l4.46-9.14c-1.77-.89-3.52-1.81-5.22-2.76-1.7-.95-3.4-1.95-5.09-2.99ZM404.77,359.67c-.62-.44-1.23-.91-1.84-1.38l-6.44,7.87c.76.59,1.52,1.17,2.29,1.73.76.56,1.55,1.11,2.34,1.65l5.53-8.54c-.64-.44-1.27-.88-1.88-1.33ZM389.51,380.6c-.99-.73-1.99-1.49-2.98-2.27l-6.44,7.88c1.14.9,2.29,1.77,3.43,2.61,1.15.83,2.33,1.66,3.53,2.46l5.53-8.54c-1.04-.7-2.07-1.42-3.07-2.14ZM427.65,328.29s-.07-.06-.11-.09l-6.45,7.88c.19.14.38.29.57.42.19.14.38.28.58.41l5.53-8.54s-.08-.06-.12-.08ZM423.8,325.11s-.06-.07-.1-.1l-7.35,7.04c.18.17.34.33.52.49.17.16.34.32.52.48l6.52-7.82s-.07-.06-.11-.09ZM417.12,422.16c-1.64-.45-3.31-.95-4.96-1.48l-3.23,9.65c1.83.59,3.68,1.14,5.5,1.64,1.83.5,3.7.97,5.58,1.39l2.14-9.94c-1.7-.39-3.38-.81-5.03-1.26ZM445.96,335.78c-.05-.01-.09-.02-.14-.03l-2.04,9.97c.23.04.46.08.69.12.23.03.47.06.7.09l.93-10.14s-.09-.01-.14-.01ZM425.01,437.25l-2.04,9.96c2.13.41,4.27.78,6.37,1.09,2.1.31,4.26.58,6.42.8l.92-10.13c-1.97-.2-3.94-.45-5.86-.73-1.92-.28-3.87-.62-5.82-.99ZM466.72,449.27c2.12-.2,4.27-.46,6.42-.76l-1.53-10.06c-1.96.27-3.93.51-5.86.69-1.93.18-3.91.33-5.89.43l.4,10.16c2.17-.11,4.33-.26,6.45-.47ZM420.54,409.67c-1.41-.38-2.85-.81-4.27-1.26l-3.23,9.64c1.61.51,3.22.99,4.82,1.43,1.59.44,3.23.85,4.87,1.23l2.14-9.95c-1.46-.33-2.91-.7-4.33-1.09ZM402.84,403.27l-4.36,9.19c1.53.7,3.07,1.37,4.61,2,1.53.62,3.1,1.23,4.69,1.8l3.32-9.61c-1.41-.51-2.8-1.05-4.16-1.6-1.36-.56-2.73-1.16-4.1-1.78ZM406.88,418.89c-1.64-.59-3.26-1.21-4.84-1.86-1.58-.65-3.17-1.34-4.75-2.07l-4.37,9.18c1.75.81,3.52,1.58,5.27,2.29,1.75.72,3.55,1.41,5.37,2.06l3.32-9.61ZM423.79,369.93c-.72-.27-1.44-.55-2.14-.84-.7-.29-1.41-.59-2.12-.91l-4.37,9.18c.88.4,1.76.78,2.63,1.13.87.36,1.77.7,2.67,1.04l3.32-9.61ZM478.6,326.52s-.08.06-.11.09l6.11,8.15c.18-.15.36-.3.54-.46.18-.15.36-.3.54-.45l-6.98-7.42s-.07.06-.1.09ZM482.21,323.08s-.06.07-.09.11l7.04,7.34c.16-.17.33-.34.49-.51.16-.17.32-.35.48-.52l-7.82-6.52s-.06.07-.1.1ZM485.47,319.12s-.05.08-.08.12c-.02.03-.05.07-.08.11l7.88,6.44c.14-.18.28-.37.42-.56s.27-.39.41-.58l-8.55-5.53ZM381.65,327.14c.3.66.6,1.31.92,1.94.31.64.64,1.27.98,1.91l8.86-4.99c-.25-.47-.49-.94-.72-1.41-.23-.47-.46-.95-.68-1.43l-9.36,3.98ZM333.61,353.18c-.76-1.53-1.49-3.1-2.19-4.7l-9.36,3.98c.78,1.77,1.59,3.52,2.42,5.21.84,1.7,1.73,3.41,2.66,5.1l8.86-4.99c-.84-1.53-1.64-3.07-2.39-4.6ZM390.64,346.49c-.49-.58-.98-1.18-1.46-1.79l-8.13,6.11c.59.75,1.19,1.5,1.8,2.22.61.73,1.24,1.45,1.89,2.16l7.41-6.96c-.52-.58-1.02-1.16-1.51-1.74ZM380.07,330.3c-.33-.68-.66-1.37-.98-2.08l-9.36,3.98c.39.88.8,1.75,1.22,2.6.42.84.86,1.7,1.31,2.55l8.86-5c-.36-.68-.71-1.36-1.05-2.05ZM384.86,338.72c-.41-.64-.82-1.29-1.22-1.95l-8.81,5.08c.49.82,1,1.63,1.52,2.42.52.8,1.06,1.59,1.61,2.38l8.19-6.03c-.44-.63-.87-1.27-1.29-1.9ZM315.86,369.13l8.86-4.99c-.95-1.74-1.87-3.49-2.73-5.23-.86-1.74-1.69-3.54-2.49-5.35l-9.36,3.98c.87,1.99,1.78,3.96,2.72,5.87.94,1.91,1.94,3.83,2.99,5.74ZM351.89,329.93c-.41-1.16-.8-2.35-1.17-3.55l-9.77,2.82c.42,1.38.87,2.75,1.34,4.09.47,1.34.97,2.69,1.5,4.04l9.4-3.89c-.46-1.17-.9-2.35-1.3-3.51ZM417.39,317.48s-.05-.08-.07-.12l-8.82,5.08c.12.2.25.41.37.6.13.2.27.39.4.59l8.2-6.03s-.05-.08-.08-.12ZM414.92,313.15s-.04-.09-.06-.13l-9.37,3.98c.1.21.2.43.31.64.1.21.21.42.32.63l8.86-5-.06-.12ZM373.28,365.97c-.85-.93-1.67-1.87-2.46-2.82-.79-.94-1.58-1.92-2.35-2.91l-8.14,6.1c.89,1.14,1.79,2.27,2.7,3.35.91,1.09,1.87,2.17,2.84,3.24l7.41-6.97ZM335.97,301.62c.08,1.45.19,2.89.32,4.3.13,1.41.3,2.85.5,4.28l10.06-1.53c-.17-1.25-.31-2.49-.43-3.72-.12-1.23-.21-2.48-.28-3.73l-10.16.4ZM307.42,285.26l-10.14-.83c-.15,2.16-.26,4.33-.31,6.46-.05,2.13-.06,4.3-.02,6.47l10.17-.3c-.04-1.98-.03-3.96.02-5.9.05-1.94.15-3.92.29-5.89ZM327.44,338.49c-.56-1.61-1.1-3.26-1.6-4.93l-9.77,2.82c.56,1.85,1.15,3.68,1.78,5.47.62,1.78,1.3,3.59,2.01,5.38l9.4-3.89c-.64-1.62-1.25-3.24-1.82-4.85ZM323.1,323.16c-.37-1.67-.7-3.38-1-5.09l-10.04,1.62c.33,1.91.7,3.8,1.1,5.64.41,1.85.86,3.72,1.36,5.59l9.8-2.73c-.45-1.68-.86-3.37-1.22-5.03ZM531.61,304.32c-.09.77-.19,1.53-.3,2.28-.11.75-.24,1.51-.38,2.27l9.97,2.05c.17-.95.33-1.9.47-2.83.14-.94.26-1.89.37-2.84l-10.13-.93ZM514.8,318.87c-.19.5-.39.99-.58,1.47-.2.49-.41.97-.62,1.46l9.18,4.37c.3-.66.58-1.32.85-1.98.27-.65.53-1.32.78-2l-9.61-3.32ZM510.7,327.66c-.26.45-.52.91-.79,1.37l8.59,5.44c.37-.62.73-1.24,1.08-1.86.34-.62.68-1.25,1.01-1.89l-9.14-4.46c-.25.47-.5.94-.75,1.4ZM506.32,334.49c-.31.42-.63.85-.95,1.27l7.87,6.44c.44-.57.88-1.14,1.3-1.72.41-.57.83-1.16,1.23-1.75l-8.54-5.53c-.3.44-.6.87-.91,1.29ZM597.85,347.56l-9.61-3.32c-.67,1.87-1.37,3.71-2.11,5.51-.74,1.8-1.53,3.61-2.36,5.41l9.19,4.37c.91-1.97,1.78-3.96,2.58-5.93.81-1.97,1.58-4,2.31-6.04ZM558.05,293.88c.02,1.26.01,2.51-.02,3.75-.03,1.23-.09,2.48-.17,3.73l10.14.83c.09-1.44.16-2.88.2-4.3.03-1.42.04-2.86.02-4.31l-10.17.3ZM586.15,247.93c-.63-1.78-1.3-3.58-2.02-5.38l-9.4,3.89c.65,1.62,1.26,3.24,1.82,4.85.56,1.61,1.1,3.27,1.61,4.93l9.77-2.82c-.56-1.85-1.16-3.68-1.78-5.47ZM579.51,232.11c-.83-1.7-1.72-3.41-2.65-5.1l-8.86,4.99c.83,1.53,1.63,3.07,2.39,4.6.75,1.53,1.48,3.1,2.18,4.7l9.36-3.98c-.77-1.77-1.58-3.52-2.42-5.21ZM583.19,309.03c-.18,1.73-.4,3.45-.65,5.14s-.54,3.4-.86,5.11l9.96,2.04c.36-1.89.69-3.79.96-5.66.28-1.88.52-3.79.72-5.71l-10.13-.92ZM570.3,307.85c-.16,1.49-.35,2.97-.57,4.43-.21,1.45-.46,2.93-.74,4.4l9.96,2.04c.32-1.66.6-3.32.85-4.96.24-1.63.45-3.3.62-4.98l-10.12-.93ZM337.58,399.55l7.41-6.97c-1.34-1.46-2.65-2.94-3.9-4.43-1.25-1.49-2.49-3.03-3.7-4.6l-8.14,6.1c1.32,1.72,2.68,3.42,4.05,5.04,1.37,1.63,2.8,3.26,4.27,4.85ZM550.72,361.34c-.83,1.25-1.69,2.47-2.55,3.66-.87,1.19-1.77,2.38-2.7,3.55l7.87,6.44c1.05-1.32,2.07-2.66,3.05-4,.97-1.33,1.93-2.72,2.87-4.12l-8.54-5.53ZM551.52,331.56c-.43,1.18-.88,2.35-1.35,3.49-.47,1.14-.97,2.29-1.49,3.43l9.19,4.37c.6-1.32,1.17-2.64,1.71-3.95.54-1.31,1.06-2.66,1.55-4.02l-9.61-3.32ZM490.3,310.41s-.03.08-.05.13c-.02.04-.04.08-.06.13l9.2,4.37c.09-.22.18-.44.27-.65.09-.22.17-.44.26-.66l-9.62-3.32ZM534.73,337.61c-.46.9-.94,1.8-1.42,2.67-.49.87-1,1.74-1.52,2.61l8.59,5.44c.62-1.03,1.23-2.06,1.81-3.1.57-1.03,1.14-2.09,1.68-3.16l-9.14-4.46ZM521.43,260.7c-.31-.63-.64-1.27-.98-1.91l-8.86,5c.25.47.49.94.72,1.41.23.46.45.94.68,1.42l9.36-3.97c-.3-.66-.61-1.31-.92-1.95ZM525.04,269.32c-.23-.67-.48-1.34-.74-2.01l-9.4,3.89c.19.49.37.99.55,1.48.17.5.34,1,.5,1.5l9.77-2.82c-.22-.69-.44-1.37-.68-2.04ZM527.59,278.31c-.15-.69-.31-1.39-.49-2.09l-9.8,2.73c.13.52.25,1.03.36,1.54.11.51.22,1.03.32,1.55l10.04-1.62c-.13-.71-.27-1.41-.43-2.11ZM601.95,255.39l-9.8,2.73c.51,1.91.98,3.84,1.39,5.73.42,1.9.79,3.84,1.13,5.79l10.04-1.62c-.37-2.14-.78-4.27-1.24-6.35-.46-2.08-.97-4.19-1.53-6.28ZM506.73,260.87c-.25-.41-.51-.81-.76-1.21-.26-.4-.53-.79-.8-1.18l-8.2,6.03c.16.24.32.48.48.72.16.24.31.48.46.73l8.82-5.08ZM553.59,276.29c-.21-1.19-.45-2.36-.7-3.52-.25-1.15-.53-2.32-.84-3.49l-9.8,2.73c.25.98.49,1.97.7,2.94.21.97.41,1.96.59,2.96l10.04-1.62ZM455.33,165.75c-1.65-.04-3.34-.05-5.03-.02l.31,10.16c1.49-.02,2.99-.01,4.46.03,1.47.03,2.96.1,4.45.2l.83-10.13c-1.68-.12-3.37-.2-5.02-.24ZM450.69,178.67l.3,10.17c1.26-.02,2.51,0,3.74.02,1.24.03,2.49.09,3.74.17l.83-10.14c-1.45-.09-2.89-.16-4.3-.2-1.42-.03-2.87-.04-4.31-.02ZM454.33,204.58c-.95-.02-1.91-.03-2.87-.02l.3,10.16c.78,0,1.55.01,2.31.03.75.02,1.52.05,2.3.09l.82-10.13c-.96-.06-1.92-.11-2.86-.13ZM454.4,201.8c.99.03,2,.07,3.02.13l.83-10.14c-1.2-.08-2.4-.13-3.58-.16-1.18-.03-2.38-.04-3.59-.02l.3,10.17c1.02,0,2.03,0,3.02.02ZM452.62,388c-.28,0-.56.01-.83.01-.74,0-1.47-.01-2.19-.03-1-.03-2.01-.07-3.02-.14l-.83,10.14c1.2.08,2.4.13,3.58.16,1.18.04,2.39.04,3.59.03l-.3-10.17ZM493.31,295.82v.28l10.14.83c.01-.24.02-.48.03-.71,0-.23,0-.47.01-.71l-10.18.31ZM493.14,290.97c0,.05.01.09.01.14l10.17-.4c-.02-.24-.04-.47-.06-.71-.02-.23-.05-.46-.07-.7l-10.07,1.53s.01.09.02.14ZM492.88,300.93s-.01.09-.02.14l9.97,2.04c.04-.23.08-.46.11-.7.04-.23.07-.46.1-.7l-10.14-.92s-.01.09-.02.14ZM502.3,283.86c-.05-.23-.11-.46-.16-.69l-9.81,2.73c.01.05.03.09.04.14.01.04.01.09.02.14l10.05-1.63c-.04-.23-.09-.46-.14-.69ZM491.41,261.75c-.15-.18-.3-.36-.46-.54l-7.41,6.97s.06.08.09.11c.03.04.06.08.09.11l8.14-6.11c-.15-.18-.3-.36-.45-.54ZM482.33,253.28c-.18-.14-.38-.28-.57-.41l-5.53,8.54s.08.06.11.08c.04.03.08.06.12.09l6.44-7.88c-.19-.14-.38-.29-.57-.42ZM487.13,257.24c-.17-.16-.35-.32-.52-.48l-6.52,7.82s.07.06.1.09l.1.1,7.35-7.05c-.17-.16-.34-.32-.51-.48ZM607.04,292.42l-10.16.31c.03,1.98.03,3.96-.02,5.9-.05,1.94-.15,3.92-.29,5.89l10.14.83c.16-2.17.26-4.33.32-6.46.05-2.13.06-4.3.01-6.47ZM580.97,287.65c-.09-1.69-.21-3.37-.37-5.02-.16-1.64-.35-3.32-.59-4.99l-10.05,1.52c.2,1.49.38,2.98.51,4.44.14,1.46.26,2.95.34,4.45l10.16-.4ZM581.16,293.19l-10.16.31c.02,1.5.01,2.99-.03,4.46s-.11,2.96-.2,4.46l10.13.82c.12-1.68.2-3.36.24-5.02.04-1.65.05-3.34.02-5.03ZM447.3,230.62c-.47.03-.95.07-1.42.12-.47.04-.94.09-1.42.15l1.53,10.06c.29-.03.57-.06.86-.09.28-.03.57-.05.86-.07l-.41-10.17ZM516.27,290.2c-.03-.48-.07-.95-.12-1.42-.04-.47-.1-.94-.15-1.42l-10.06,1.53c.03.29.07.57.09.86.03.28.05.57.07.86l10.17-.4ZM506.27,295.43c-.01.29-.01.58-.01.86-.01.28-.03.57-.04.86l10.15.83c.02-.48.04-.96.05-1.43s.02-.95.02-1.42l-10.17.3ZM540.15,214.94c1.01,1.11,2,2.23,2.94,3.36.95,1.13,1.88,2.29,2.8,3.47l8.14-6.1c-1.03-1.34-2.09-2.65-3.15-3.92-1.07-1.27-2.18-2.53-3.32-3.78l-7.41,6.97ZM549.33,231.35c-.78-1.19-1.59-2.38-2.43-3.56l-8.19,6.03c.72,1.02,1.43,2.06,2.1,3.09.68,1.03,1.34,2.09,1.99,3.17l8.81-5.08c-.74-1.24-1.51-2.46-2.28-3.65ZM402.53,280.6c-.07.23-.14.46-.2.68-.06.23-.12.46-.18.68l9.95,2.14s.03-.09.04-.13c.01-.05.03-.09.04-.14l-9.65-3.23ZM397.97,300.04c-.03-.28-.05-.57-.07-.86l-10.17.4c.03.48.07.96.11,1.43.05.46.1.94.16,1.41l10.06-1.52c-.03-.29-.07-.58-.09-.86ZM387.57,293.23c-.01.47-.01.95-.01,1.43l10.17-.31c0-.29,0-.58.01-.86s.02-.57.03-.86l-10.14-.83c-.02.48-.04.96-.06,1.43ZM388.47,284.07c-.08.47-.16.94-.23,1.4-.07.47-.13.94-.19,1.42l10.14.92c.04-.28.07-.57.11-.85.05-.28.09-.57.14-.85l-9.97-2.04ZM364.87,271.02c-.25.91-.49,1.84-.71,2.77l9.94,2.14c.19-.75.38-1.49.58-2.23.2-.73.41-1.47.64-2.21l-9.64-3.23c-.29.92-.56,1.84-.81,2.76ZM368.38,260.69c-.36.87-.7,1.77-1.04,2.67l9.62,3.32c.27-.72.55-1.44.83-2.14.29-.7.6-1.41.91-2.12l-9.18-4.37c-.4.88-.78,1.76-1.14,2.64ZM374.56,248.38c-.5.82-.99,1.65-1.45,2.48-.46.82-.91,1.67-1.35,2.53l9.14,4.45c.36-.68.72-1.36,1.09-2.03.37-.66.76-1.32,1.16-1.99l-8.59-5.44ZM381.21,263.62c-.29.65-.58,1.31-.84,1.97-.27.65-.53,1.32-.78,2l9.61,3.32c.19-.49.38-.99.58-1.47.2-.48.4-.97.62-1.46l-9.19-4.36ZM349.37,283.36l10.13.92c.11-1.01.24-2.01.39-3,.15-.98.31-1.98.5-2.98l-9.96-2.04c-.22,1.18-.42,2.37-.59,3.54-.17,1.17-.32,2.36-.45,3.56ZM316.56,251.82c-.59,1.84-1.14,3.68-1.64,5.51-.5,1.82-.97,3.69-1.4,5.57l9.95,2.14c.38-1.69.81-3.38,1.26-5.02.45-1.65.94-3.31,1.47-4.97l-9.64-3.23ZM306.15,242.22l9.61,3.32c.67-1.87,1.38-3.71,2.11-5.51.73-1.8,1.53-3.61,2.36-5.41l-9.19-4.37c-.91,1.97-1.78,3.96-2.58,5.93-.81,1.97-1.58,4-2.31,6.04ZM339.89,264.17c-.37,1.37-.72,2.77-1.05,4.18l9.94,2.14c.29-1.23.6-2.44.92-3.63.33-1.19.68-2.39,1.06-3.59l-9.64-3.23c-.44,1.38-.85,2.76-1.23,4.13ZM337.01,277.91c-.21,1.4-.39,2.83-.54,4.27l10.13.93c.13-1.25.29-2.5.47-3.72.18-1.22.39-2.45.62-3.69l-9.97-2.04c-.26,1.42-.5,2.84-.71,4.25ZM356.4,255.78c-.45,1.1-.88,2.22-1.3,3.35l9.62,3.32c.35-.95.71-1.89,1.09-2.82.38-.92.78-1.84,1.2-2.77l-9.19-4.37c-.5,1.1-.98,2.2-1.42,3.29ZM352.38,267.59c-.31,1.14-.61,2.31-.88,3.48l9.94,2.14c.24-.99.49-1.97.75-2.93.26-.96.55-1.93.85-2.9l-9.64-3.23c-.37,1.15-.71,2.3-1.02,3.44ZM363.62,241.45c-.63,1.03-1.24,2.07-1.81,3.1-.58,1.03-1.14,2.09-1.69,3.16l9.14,4.46c.47-.9.94-1.8,1.43-2.67.48-.87.99-1.74,1.52-2.61l-8.59-5.44ZM410.86,298.81s-.01-.09-.02-.14l-10.17.4c.02.24.04.47.06.71.02.23.05.47.08.7l10.06-1.53s-.01-.09-.01-.14ZM410.68,293.82s.01-.09.01-.14l-10.15-.82c-.01.23-.02.47-.02.7-.01.24-.01.47-.01.71l10.17-.3v-.15ZM330.8,220.66c-1.01,1.64-1.99,3.3-2.91,4.95-.92,1.65-1.82,3.36-2.69,5.08l9.14,4.46c.79-1.55,1.6-3.09,2.43-4.58.83-1.49,1.71-2.99,2.62-4.47l-8.59-5.44Z"/></g></g></svg>