<svg width="90" height="20" viewBox="0 0 90 20" fill="none" xmlns="http://www.w3.org/2000/svg">
<path d="M27.2927 18.0671H40.4246V19.7157H27.281C26.0933 19.7128 25.1367 18.7482 25.1396 17.5615V0.309745H26.7954V17.5702C26.7983 17.845 27.0206 18.0671 27.2927 18.0671ZM19.5814 0.309745H17.481L3.65572 17.9385C3.54163 18.0993 3.33101 18.1607 3.14963 18.0847C2.96534 18.0262 2.84247 17.8508 2.84832 17.6579V0.309745H1.19256V17.6579C1.18674 18.0973 1.32151 18.5271 1.57725 18.8847C1.83299 19.2422 2.19632 19.5088 2.61429 19.6456C2.83955 19.7216 3.0765 19.7625 3.31638 19.7625C3.95996 19.7625 4.56844 19.4673 4.96044 18.9557L11.5601 10.5345L18.7155 19.7128H20.8569L12.6132 9.19867L19.5814 0.309745ZM62.6399 19.7157H64.4711L55.97 1.54326C55.4756 0.467588 54.2002 -9.60112e-05 53.1266 0.493896C52.6644 0.707277 52.2899 1.0785 52.0764 1.54326L43.5782 19.7186H45.4153L53.5859 2.25356C53.6648 2.08402 53.8374 1.97587 54.0247 1.98172C54.2119 1.97295 54.3874 2.0811 54.4635 2.25356L62.6399 19.7157Z" fill="#41007F"/>
<path d="M69.3362 0.309814H88.8074V19.7158H69.3362V0.309814Z" fill="#00A7E1"/>
<path d="M87.3476 9.10242H79.9874V1.76562H78.1561V9.10242H70.7959V10.9264H78.1561V18.2632H79.9874V10.9264H87.3476V9.10242Z" fill="white"/>
</svg>
