<?xml version="1.0" encoding="UTF-8"?>
<svg xmlns="http://www.w3.org/2000/svg" xmlns:xlink="http://www.w3.org/1999/xlink" id="Layer_2" data-name="Layer 2" viewBox="0 0 1407.52 156.49">
  <defs>
    <style>
      .cls-1 {
        fill: none;
      }

      .cls-2 {
        fill: #4285f4;
      }

      .cls-3 {
        fill: #00943c;
      }

      .cls-4 {
        clip-path: url(#clippath-1);
      }

      .cls-5 {
        fill: #34a853;
      }

      .cls-6 {
        fill: #fbbc04;
      }

      .cls-7 {
        fill: #ea4335;
      }

      .cls-8 {
        fill: #003a70;
      }

      .cls-9 {
        fill: #5f6368;
      }

      .cls-10 {
        fill: #898a8a;
      }

      .cls-11 {
        fill: #74b71b;
      }

      .cls-12 {
        clip-path: url(#clippath);
      }

      .cls-13 {
        fill: #d52a2f;
      }
    </style>
    <clipPath id="clippath">
      <rect class="cls-1" x="547.59" width="285.29" height="156.49"></rect>
    </clipPath>
    <clipPath id="clippath-1">
      <rect class="cls-1" x="547.59" width="285.29" height="156.49"></rect>
    </clipPath>
  </defs>
  <g id="svg2">
    <g>
      <path id="Reg" d="M427.13,102.42v-1.2h.77c.42,0,.99.03.99.54,0,.55-.29.65-.79.65h-.97M427.13,103.26h.51l1.19,2.09h1.3l-1.32-2.17c.68-.05,1.24-.37,1.24-1.29,0-1.14-.79-1.5-2.11-1.5h-1.92v4.97h1.1v-2.09M432.72,102.87c0-2.92-2.27-4.61-4.79-4.61s-4.81,1.69-4.81,4.61,2.27,4.62,4.81,4.62,4.79-1.7,4.79-4.62M431.33,102.87c0,2.13-1.56,3.55-3.41,3.55v-.02c-1.9.02-3.43-1.41-3.43-3.54s1.53-3.55,3.43-3.55,3.41,1.42,3.41,3.55Z"></path>
      <path id="NVIDIA" d="M256.71,53.51v52.37h14.79v-52.37h-14.79ZM140.37,53.44v52.44h14.92v-40.7l11.64.04c3.83,0,6.48.92,8.32,2.89,2.34,2.49,3.29,6.51,3.29,13.87v23.91h14.46v-28.97c0-20.68-13.18-23.47-26.08-23.47h-26.56ZM280.52,53.51v52.37h23.99c12.78,0,16.95-2.13,21.46-6.89,3.19-3.35,5.25-10.69,5.25-18.72,0-7.36-1.74-13.93-4.79-18.02-5.48-7.31-13.37-8.74-25.16-8.74h-20.76ZM295.19,64.92h6.36c9.22,0,15.19,4.14,15.19,14.89s-5.97,14.89-15.19,14.89h-6.36v-29.79ZM235.39,53.51l-12.34,41.5-11.83-41.5h-15.96s16.89,52.36,16.89,52.36h21.32l17.02-52.37h-15.1ZM338.11,105.88h14.79v-52.36h-14.8s0,52.36,0,52.36ZM379.57,53.53l-20.65,52.33h14.58l3.27-9.25h24.44l3.09,9.25h15.83l-20.81-52.33h-19.76ZM389.17,63.08l8.96,24.52h-18.2l9.24-24.52Z"></path>
      <path id="Eye_Mark" data-name="Eye Mark" class="cls-11" d="M44.99,62.24v-7.21c.7-.05,1.41-.09,2.13-.11,19.71-.62,32.64,16.94,32.64,16.94,0,0-13.97,19.4-28.94,19.4-2.16,0-4.09-.35-5.83-.93v-21.85c7.67.93,9.22,4.32,13.83,12.01l10.26-8.65s-7.49-9.82-20.12-9.82c-1.37,0-2.69.1-3.98.23M44.99,38.44v10.76c.71-.06,1.42-.1,2.13-.13,27.41-.92,45.27,22.48,45.27,22.48,0,0-20.51,24.94-41.88,24.94-1.96,0-3.79-.18-5.51-.49v6.65c1.47.19,3,.3,4.59.3,19.89,0,34.27-10.15,48.19-22.17,2.31,1.85,11.76,6.35,13.7,8.32-13.24,11.08-44.1,20.02-61.59,20.02-1.69,0-3.31-.1-4.9-.25v9.35h75.58V38.44H44.99ZM44.99,90.33v5.68c-18.39-3.28-23.5-22.4-23.5-22.4,0,0,8.83-9.78,23.5-11.37v6.23s-.02,0-.03,0c-7.7-.92-13.71,6.27-13.71,6.27,0,0,3.37,12.11,13.74,15.59M12.32,72.78s10.9-16.09,32.67-17.75v-5.84C20.88,51.14,0,71.55,0,71.55c0,0,11.82,34.18,44.99,37.31v-6.2c-24.34-3.06-32.67-29.88-32.67-29.88Z"></path>
    </g>
    <g>
      <path class="cls-9" d="M1252.38,108.23c-14.74.34-26.96-11.33-27.3-26.06-.01-.49,0-.97,0-1.46-.19-7.28,2.61-14.32,7.76-19.47,5.13-5.24,12.21-8.11,19.54-7.92,7.35-.18,14.4,2.98,19.15,8.59l-4.69,4.69c-3.49-4.41-8.84-6.94-14.46-6.83-5.46-.13-10.74,1.99-14.59,5.87-3.93,4.01-6.03,9.46-5.81,15.07-.24,5.63,1.86,11.11,5.81,15.13,3.84,3.9,9.12,6.02,14.59,5.87,6.21-.03,12.08-2.87,15.96-7.73l4.92,4.79c-2.49,2.97-5.62,5.34-9.16,6.93-3.67,1.69-7.67,2.55-11.72,2.52ZM1285.48,54.5v52.58h-6.77v-52.58h6.77ZM1291.29,89.07c-.15-5.09,1.74-10.03,5.24-13.73,3.47-3.59,8.29-5.56,13.28-5.43,4.97-.14,9.78,1.83,13.22,5.43,3.54,3.68,5.44,8.63,5.27,13.73.19,5.1-1.71,10.06-5.27,13.73-3.43,3.61-8.24,5.59-13.22,5.43-5,.15-9.82-1.82-13.28-5.43-3.5-3.7-5.38-8.64-5.24-13.73ZM1298.06,89.07c-.16,3.45,1.06,6.83,3.38,9.39,4.35,4.62,11.63,4.84,16.25.48.17-.16.33-.32.48-.48,2.32-2.56,3.54-5.93,3.38-9.39.15-3.43-1.07-6.78-3.38-9.32-4.25-4.62-11.44-4.92-16.06-.67-.23.21-.46.44-.67.67-2.32,2.54-3.53,5.89-3.38,9.32ZM1365.64,107.08h-6.38v-5.01h-.32c-1.14,1.87-2.78,3.4-4.72,4.41-2.03,1.15-4.31,1.75-6.64,1.76-3.77.24-7.48-1.12-10.18-3.77-2.53-2.99-3.8-6.85-3.54-10.76v-22.57h6.74v22.15c-.51,4.36,2.61,8.31,6.97,8.82.64.08,1.3.07,1.94-.01,2.62.05,5.11-1.14,6.74-3.19,1.82-2.19,2.79-4.97,2.71-7.82v-19.95h6.77l-.06,35.95ZM1388.5,108.23c-4.65,0-9.07-2.03-12.1-5.55-3.35-3.73-5.18-8.58-5.11-13.6-.11-4.99,1.67-9.83,4.98-13.57,3.01-3.56,7.44-5.6,12.1-5.59,2.52-.04,5.01.54,7.25,1.69,2.05,1.01,3.79,2.55,5.04,4.47h.29l-.16-4.95v-16.63h6.74v52.58h-6.38v-5.01h-.29c-1.25,1.91-2.99,3.46-5.04,4.47-2.26,1.16-4.77,1.75-7.31,1.69ZM1389.61,102.07c3.12.1,6.12-1.23,8.14-3.61,2.23-2.6,3.38-5.96,3.19-9.39.15-3.4-.99-6.73-3.19-9.32-2.02-2.4-5.01-3.75-8.14-3.67-3.12-.05-6.11,1.3-8.14,3.67-2.21,2.59-3.35,5.92-3.19,9.32-.18,3.4.97,6.74,3.19,9.32,2.03,2.37,5.02,3.72,8.14,3.67Z"></path>
      <g id="_75x24px" data-name=" 75x24px">
        <path class="cls-2" d="M996.16,108.23c-16.53.05-30.03-13.19-30.3-29.72.26-16.53,13.76-29.77,30.3-29.72,7.65-.13,15.02,2.83,20.46,8.2l-5.78,5.71c-3.94-3.79-9.22-5.88-14.68-5.81-11.79-.04-21.39,9.5-21.42,21.29,0,.11,0,.21,0,.32-.14,11.79,9.31,21.47,21.1,21.61.11,0,.21,0,.32,0,5.64.23,11.12-1.94,15.07-5.97,2.6-2.81,4.17-6.43,4.44-10.25h-19.51v-8.08h27.45c.3,1.67.44,3.37.41,5.08.22,7.01-2.33,13.82-7.09,18.96-5.42,5.63-12.98,8.67-20.78,8.36Z"></path>
        <path class="cls-7" d="M1066.49,89.07c.43,10.46-7.7,19.29-18.17,19.72-10.46.43-19.29-7.7-19.72-18.17-.02-.52-.02-1.04,0-1.56-.43-10.46,7.7-19.29,18.17-19.72,10.46-.43,19.29,7.7,19.72,18.17.02.52.02,1.04,0,1.56ZM1058.19,89.07c.56-5.88-3.76-11.1-9.64-11.66-5.88-.56-11.1,3.76-11.66,9.64-.06.67-.06,1.35,0,2.02-.56,5.88,3.76,11.1,9.64,11.66,5.88.56,11.1-3.76,11.66-9.64.06-.67.06-1.35,0-2.02Z"></path>
        <path class="cls-6" d="M1108.98,89.07c.43,10.46-7.7,19.29-18.17,19.72-10.46.43-19.29-7.7-19.72-18.17-.02-.52-.02-1.04,0-1.56-.43-10.46,7.7-19.29,18.17-19.72,10.46-.43,19.29,7.7,19.72,18.17.02.52.02,1.04,0,1.56ZM1100.68,89.07c.46-5.89-3.95-11.03-9.84-11.49-5.89-.46-11.03,3.95-11.49,9.84-.04.55-.04,1.1,0,1.65-.46,5.89,3.95,11.03,9.84,11.49,5.89.46,11.03-3.95,11.49-9.84.04-.55.04-1.1,0-1.65Z"></path>
        <path class="cls-2" d="M1150.38,71.13v34.35c0,14.11-8.4,19.92-18.29,19.92-7.45.04-14.18-4.42-17.05-11.3l7.37-3.19c1.52,4,5.3,6.7,9.58,6.83,6.38,0,10.28-3.93,10.28-11.24v-2.75h-.19c-2.58,2.92-6.32,4.55-10.22,4.47-10.58,0-19.15-8.58-19.15-19.15s8.58-19.15,19.15-19.15c3.88-.07,7.6,1.53,10.22,4.41h.29v-3.19h8.01ZM1142.94,89.2c.48-5.96-3.96-11.18-9.91-11.66-.12,0-.24-.02-.37-.02-6.13.22-10.92,5.37-10.7,11.5,0,.06,0,.12,0,.18-.28,6.08,4.41,11.23,10.49,11.52.07,0,.14,0,.21,0,5.9-.21,10.52-5.16,10.31-11.07,0-.16-.02-.33-.03-.49v.03Z"></path>
        <path class="cls-5" d="M1165.16,50.83v56.25h-8.43v-56.25h8.43Z"></path>
        <path class="cls-7" d="M1198.36,95.39l6.58,4.47c-3.57,5.32-9.56,8.51-15.96,8.49-10.24.15-18.66-8.04-18.81-18.28,0-.29,0-.58,0-.87-.84-9.7,6.34-18.24,16.03-19.08,8.17-.71,15.75,4.32,18.28,12.12l.86,2.2-25.54,10.57c1.63,3.66,5.32,5.96,9.32,5.81,3.81-.09,7.3-2.14,9.23-5.43ZM1178.22,88.5l17.17-7.09c-1.4-2.6-4.21-4.12-7.15-3.89-5.79.26-10.28,5.16-10.02,10.96,0,0,0,.01,0,.02Z"></path>
      </g>
    </g>
    <rect class="cls-10" x="898.78" y="25.34" width="3" height="100"></rect>
    <rect class="cls-10" x="497.22" y="25.34" width="3" height="100"></rect>
    <g class="cls-12">
      <g class="cls-4">
        <path class="cls-3" d="M813.48,62.23c-5.14-35.28-64.59-56.39-132.81-47.14-68.21,9.25-119.35,45.35-114.21,80.64,5.13,35.28,64.59,56.39,132.81,47.14,68.21-9.25,119.35-45.35,114.21-80.64M706.16,132.01c-62.51,6.25-115.89-14.14-119.24-45.55-3.35-31.41,44.61-61.94,107.12-68.2,62.5-6.25,115.89,14.14,119.24,45.55,3.34,31.41-44.61,61.94-107.12,68.2"></path>
        <path class="cls-8" d="M611.94,72.51h-.81c-.31-4.86-3.37-8.78-8.31-8.78-2.56,0-5.17,1.99-5.17,4.76,0,6.43,16.26,7.54,16.26,16.6,0,4.81-3.68,8.83-9.39,8.83-2.07,0-3.55-.42-4.72-.88-1.21-.42-2.11-.83-3.19-.83s-1.26.78-1.35,1.71h-.81v-10.5h.81c.68,7.4,6.15,8.69,8.81,8.69,3.01,0,5.93-1.62,5.93-4.99,0-7.03-15.81-7.86-15.81-17.01,0-4.72,4.13-8.18,8.8-8.18,1.62,0,2.96.42,4.04.88,1.12.42,1.98.88,2.56.88,1.08,0,1.35-.83,1.53-1.76h.81v10.59Z"></path>
        <path class="cls-8" d="M604.53,94.76c-2.38,0-4.01-.54-5.03-.94-.19-.07-.41-.15-.62-.22-.85-.31-1.53-.55-2.26-.55-.25,0-.42,0-.51.95l-.07.76h-2.41v-12.17h2.41l.07.76c.67,7.36,6.27,7.93,7.97,7.93,2.53,0,5.09-1.28,5.09-4.15s-3.25-4.61-6.69-6.54c-4.27-2.39-9.12-5.1-9.12-10.48,0-4.97,4.33-9.02,9.64-9.02,1.45,0,2.89.31,4.37.95.32.12.65.25.95.38.51.21,1.04.43,1.28.43.3,0,.49,0,.7-1.08l.13-.68h2.34v12.27h-2.44l-.05-.78c-.26-3.98-2.67-8-7.47-8-2.05,0-4.33,1.61-4.33,3.92,0,2.44,3.23,4.17,6.65,6.01,4.51,2.42,9.62,5.17,9.62,10.59s-4.4,9.67-10.23,9.67M596.62,91.37c1.02,0,1.9.32,2.83.65.2.07.41.15.64.23.92.37,2.35.83,4.44.83,4.95,0,8.55-3.36,8.55-7.99s-4.44-6.8-8.73-9.11c-3.87-2.08-7.53-4.05-7.53-7.49s3.11-5.6,6.01-5.6c3.83,0,6.85,2.16,8.28,5.66v-4.58c-.34.32-.82.55-1.5.55-.57,0-1.17-.25-1.92-.56-.29-.12-.6-.25-.93-.37-1.33-.57-2.51-.83-3.75-.83-4.39,0-7.97,3.29-7.97,7.34,0,4.39,4.2,6.74,8.26,9.01,3.88,2.17,7.55,4.23,7.55,8,0,4.01-3.51,5.83-6.77,5.83-1.23,0-6.58-.32-8.77-5.7v4.54c.31-.25.73-.42,1.32-.42"></path>
        <path class="cls-8" d="M619.08,73.36c0-3.11,0-4.03-3.38-4.03v-.67h10.13v.67c-3.38,0-3.38.92-3.38,4.03v9.76c0,1.44.14,4.14.58,5.44.83,2.44,3.2,3.55,5.57,3.55s4.92-.92,6.29-2.99c1.15-1.78,1.15-4.66,1.15-6.66v-9.1c0-3.11,0-4.03-3.38-4.03v-.67h8.3v.67c-3.38,0-3.38.92-3.38,4.03v10.91c0,4.44-1.69,9.43-9.16,9.43s-9.34-4.47-9.34-9.32v-11.02Z"></path>
        <path class="cls-8" d="M628.42,94.54c-6.76,0-10.18-3.42-10.18-10.16v-11.02c0-1.34,0-2.3-.28-2.71-.15-.23-.55-.48-2.26-.48h-.84v-2.34h11.81v2.34h-.84c-1.71,0-2.11.26-2.26.48-.28.41-.28,1.37-.28,2.71v9.76c0,1.38.14,4.01.53,5.17.74,2.19,2.95,2.98,4.77,2.98s4.32-.69,5.59-2.62c1.01-1.56,1.01-4.35,1.01-6.2v-9.1c0-1.34,0-2.3-.28-2.71-.15-.23-.55-.48-2.26-.48h-.84v-2.34h9.98v2.34h-.84c-1.71,0-2.11.26-2.26.48-.28.41-.28,1.37-.28,2.71v10.91c0,6.62-3.55,10.27-10,10.27M619.18,69.5c.69.8.74,2.08.74,3.86v11.02c0,5.39,2.22,8.04,7.15,8.43-2.33-.44-4.12-1.88-4.83-3.98-.49-1.47-.62-4.38-.62-5.71v-9.76c0-1.78.05-3.06.74-3.86h-3.18ZM634.74,90.61c-.82.82-1.83,1.39-2.86,1.76,1.16-.37,2.12-.96,2.86-1.76M636.14,69.5c.41.47.59,1.11.67,1.92.08-.81.27-1.45.67-1.92h-1.35Z"></path>
        <path class="cls-8" d="M648.76,70.47c.79-.22,1.62-.33,2.44-.33,3.09,0,4.92,2.51,4.92,5.55,0,2.66-1.62,5.29-3.95,5.29-1.08,0-2.41-.15-3.41-.37v-10.13ZM648.76,81.68c1.33.29,2.66.55,3.99.55,6.36,0,7.4-4.81,7.4-6.73,0-3.62-2.84-6.84-8.45-6.84h-9.7v.67c3.38,0,3.38.92,3.38,4.03v15.09c0,3.11,0,4.03-3.38,4.03v.67h10.14v-.67c-3.38,0-3.38-.93-3.38-4.03v-6.77Z"></path>
        <path class="cls-8" d="M652.98,93.98h-11.81v-2.34h.84c1.71,0,2.11-.26,2.26-.48.28-.41.28-1.37.28-2.71v-15.09c0-1.34,0-2.3-.28-2.71-.15-.23-.55-.48-2.26-.48h-.84v-2.34h10.54c6.41,0,9.28,3.86,9.28,7.68,0,2.81-1.74,7.57-8.24,7.57-1.08,0-2.14-.16-3.15-.36v5.73c0,1.34,0,2.3.28,2.71.15.23.55.48,2.26.48h.84v2.34ZM645.48,92.31h3.18c-.69-.8-.74-2.08-.74-3.86v-18.61l.61-.17c.23-.06.45-.12.68-.17h-3.73c.69.8.74,2.08.74,3.86v15.09c0,1.78-.05,3.06-.74,3.86M652.91,69.55c2.43.75,4.06,3.1,4.06,6.14,0,2.24-1.05,4.61-2.86,5.62,5.05-.69,5.2-5.25,5.2-5.8,0-2.56-1.7-5.52-6.4-5.95M649.6,79.91c.84.14,1.79.22,2.57.22,1.86,0,3.11-2.3,3.11-4.45,0-2.34-1.26-4.71-4.08-4.71-.55,0-1.08.05-1.61.16v8.78Z"></path>
        <path class="cls-8" d="M668.74,79.68h4.78c2.84,0,3.95-.29,4.17-3.59h.65v8.54h-.65c-.29-3.25-1.26-3.62-4.17-3.62h-4.78v8.95c0,1.52.43,1.85,1.94,1.85h4.89c3.16,0,4.31-1.52,6.18-4.81h.68l-2.01,6.14h-18.44v-.67c3.38,0,3.38-.93,3.38-4.03v-15.09c0-3.11,0-4.03-3.38-4.03v-.67h18.26l.32,5.36h-.72c-.68-3.74-1.65-4.03-5.03-4.03h-6.07v9.69Z"></path>
        <path class="cls-8" d="M681.03,93.98h-19.88v-2.34h.84c1.71,0,2.11-.26,2.26-.48.28-.41.28-1.37.28-2.71v-15.09c0-1.34,0-2.3-.28-2.71-.15-.23-.55-.48-2.26-.48h-.84v-2.34h19.89l.42,7.04h-2.31l-.13-.69c-.59-3.25-1.12-3.34-4.2-3.34h-5.23v8.01h3.94c2.55,0,3.15-.1,3.33-2.8l.05-.78h2.27v10.22h-2.26l-.07-.77c-.23-2.67-.68-2.86-3.33-2.86h-3.94v8.11c0,.99,0,1.01,1.1,1.01h4.89c2.71,0,3.65-1.2,5.45-4.38l.24-.43h2.33l-2.56,7.82ZM677.9,92.31h1.91l.56-1.71c-.7.79-1.48,1.37-2.47,1.71M665.46,92.31h3.44c-.63-.36-1-1.06-1-2.34v-20.46h-2.44c.69.8.74,2.08.74,3.86v15.09c0,1.78-.05,3.06-.74,3.86M675.76,80.36c.74.16,1.31.45,1.74.96v-1.9c-.45.51-1.04.79-1.74.94M678.03,69.5c.61.22,1.1.56,1.49,1.1l-.07-1.1h-1.43Z"></path>
        <path class="cls-8" d="M690.7,70.33c.97-.15,1.94-.33,2.95-.33,2.91,0,4.85,2.22,4.85,5.18,0,4.11-3.59,5.36-7.01,5.36h-.79v-10.21ZM707.59,93.15v-.67c-3.27-.26-4.56-2.07-6.33-4.59l-4.64-6.66c3.13-.67,5.9-2.66,5.9-6.21,0-2.14-1.26-6.36-8.27-6.36h-10.31v.67c3.38,0,3.38.92,3.38,4.03v15.09c0,3.11,0,4.03-3.38,4.03v.67h10.13v-.67c-3.38,0-3.38-.93-3.38-4.03v-6.73h2.44l8.09,11.43h6.36Z"></path>
        <path class="cls-8" d="M708.43,93.98h-7.63l-8.09-11.43h-1.17v5.89c0,1.34,0,2.3.28,2.71.15.23.55.48,2.26.48h.84v2.34h-11.81v-2.34h.84c1.71,0,2.11-.26,2.26-.48.28-.41.28-1.37.28-2.71v-15.09c0-1.34,0-2.3-.28-2.71-.15-.23-.55-.48-2.26-.48h-.84v-2.34h11.15c6.72,0,9.11,3.88,9.11,7.2s-1.98,5.62-5.36,6.72l3.95,5.68c1.69,2.41,2.8,4,5.7,4.23l.77.06v2.28ZM701.66,92.31h2.54c-1.52-.92-2.53-2.36-3.63-3.93l-5.29-7.59c-.46.17-.97.3-1.5.39l7.87,11.13ZM687.42,92.31h3.18c-.69-.8-.74-2.08-.74-3.86v-18.84l.69-.11h-3.13c.69.8.74,2.08.74,3.86v15.09c0,1.78-.05,3.06-.74,3.86M695.89,69.59c2.08.87,3.45,2.95,3.45,5.58s-1.22,4.36-3.4,5.36l.52-.11c1.57-.34,5.23-1.53,5.23-5.39,0-1.18-.45-4.82-5.79-5.43M691.54,71.04v8.65c2.31,0,6.12-.61,6.12-4.52,0-2.55-1.65-4.34-4.01-4.34-.7,0-1.39.1-2.11.21"></path>
        <path class="cls-8" d="M712.87,72.66h-.07v15.79c0,3.11,0,4.03,3.38,4.03v.67h-8.3v-.67c3.38,0,3.38-.93,3.38-4.03v-15.13c0-2.96-.36-3.99-3.38-3.99v-.67h6.76l8.63,19.16,8.52-19.16h6.72v.67c-3.38,0-3.38.92-3.38,4.03v15.09c0,3.11,0,4.03,3.38,4.03v.67h-10.14v-.67c3.38,0,3.38-.93,3.38-4.03v-15.79h-.07l-9.09,20.49h-.58l-9.13-20.49Z"></path>
        <path class="cls-8" d="M739.33,93.98h-11.81v-2.34h.84c1.71,0,2.11-.26,2.26-.48.28-.41.28-1.37.28-2.71v-12l-7.78,17.53h-1.67l-7.81-17.54v12.01c0,1.34,0,2.3.28,2.71.15.23.55.48,2.26.48h.84v2.34h-9.98v-2.34h.84c1.71,0,2.11-.26,2.26-.48.28-.41.28-1.37.28-2.71v-15.13c0-2.83-.26-3.16-2.54-3.16h-.84v-2.34h8.14l8.08,17.94,7.98-17.94h8.1v2.34h-.84c-1.71,0-2.11.26-2.26.48-.28.41-.28,1.37-.28,2.71v15.09c0,1.34,0,2.3.28,2.71.15.23.55.48,2.26.48h.84v2.34ZM731.84,92.31h3.18c-.69-.8-.74-2.08-.74-3.86v-15.09c0-1.78.05-3.06.74-3.86h-2.7l-1.03,2.32h1.29v16.63c0,1.78-.05,3.06-.74,3.86M711.35,92.31h1.35c-.41-.47-.59-1.11-.67-1.92-.08.81-.27,1.45-.67,1.92M712.04,71.82h1.38l8.87,19.91.9-2.03-9.1-20.2h-2.91c.55.57.77,1.37.86,2.32"></path>
        <path class="cls-8" d="M746.83,88.45c0,3.11,0,4.03,3.38,4.03v.67h-10.14v-.67c3.38,0,3.38-.93,3.38-4.03v-15.09c0-3.11,0-4.03-3.38-4.03v-.67h10.14v.67c-3.38,0-3.38.92-3.38,4.03v15.09Z"></path>
        <path class="cls-8" d="M751.05,93.98h-11.81v-2.34h.84c1.71,0,2.11-.26,2.26-.48.28-.41.28-1.37.28-2.71v-15.09c0-1.34,0-2.3-.28-2.71-.15-.23-.55-.48-2.26-.48h-.84v-2.34h11.81v2.34h-.84c-1.71,0-2.11.26-2.26.48-.28.41-.28,1.37-.28,2.71v15.09c0,1.34,0,2.3.28,2.71.15.23.55.48,2.26.48h.84v2.34ZM743.55,92.31h3.18c-.69-.8-.74-2.08-.74-3.86v-15.09c0-1.78.05-3.06.74-3.86h-3.18c.69.8.74,2.08.74,3.86v15.09c0,1.78-.05,3.06-.74,3.86"></path>
        <path class="cls-8" d="M773.32,76.43h-.54c-1.11-4.18-3.52-7.03-7.98-7.03-4.78,0-8.3,3.81-8.3,11.95s4.78,10.76,8.88,10.76c3.81,0,5.79-1.85,7.94-5.06l.54.37c-2.19,4.14-5.14,6.28-9.85,6.28-6.86,0-11.53-5.4-11.53-12.31s4.89-13.24,12.18-13.24c1.87,0,3.38.44,5.07,1.29.29.15.68.37,1.04.37.79,0,1.26-.92,1.4-1.7h.61l.54,8.32Z"></path>
        <path class="cls-8" d="M764.01,94.54c-7.17,0-12.37-5.53-12.37-13.15,0-8.03,5.6-14.08,13.02-14.08,1.89,0,3.52.41,5.45,1.38l.08.04c.16.08.46.24.59.24.18,0,.47-.44.58-1.01l.13-.69h2.1l.65,10h-2.08l-.17-.62c-1.15-4.31-3.49-6.4-7.17-6.4-4.74,0-7.46,4.05-7.46,11.11,0,9.21,6.15,9.92,8.04,9.92,3.45,0,5.2-1.65,7.25-4.69l.47-.7,1.85,1.27-.35.66c-2.43,4.59-5.79,6.73-10.59,6.73M760.21,69.86c-4.17,1.78-6.9,6.09-6.9,11.52,0,6.65,4.49,11.47,10.69,11.47-4.25-.56-8.34-3.79-8.34-11.51,0-5.55,1.64-9.55,4.56-11.48M770.48,70.62c.67.61,1.26,1.36,1.77,2.23l-.18-2.74c-.34.32-.77.53-1.3.53-.1,0-.19,0-.29-.02"></path>
        <path class="cls-8" d="M782.55,70.33c.97-.15,1.94-.33,2.95-.33,2.91,0,4.85,2.22,4.85,5.18,0,4.11-3.59,5.36-7.01,5.36h-.79v-10.21ZM799.44,93.15v-.67c-3.27-.26-4.56-2.07-6.32-4.59l-4.64-6.66c3.13-.67,5.89-2.66,5.89-6.21,0-2.14-1.26-6.36-8.26-6.36h-10.31v.67c3.38,0,3.38.92,3.38,4.03v15.09c0,3.11,0,4.03-3.38,4.03v.67h10.13v-.67c-3.38,0-3.38-.93-3.38-4.03v-6.73h2.44l8.08,11.43h6.36Z"></path>
        <path class="cls-8" d="M800.28,93.98h-7.64l-8.08-11.43h-1.17v5.89c0,1.34,0,2.3.28,2.71.15.23.55.48,2.26.48h.84v2.34h-11.81v-2.34h.84c1.71,0,2.11-.26,2.26-.48.28-.41.28-1.37.28-2.71v-15.09c0-1.34,0-2.3-.28-2.71-.15-.23-.55-.48-2.26-.48h-.84v-2.34h11.15c8.67,0,9.1,6,9.1,7.2,0,3.17-1.98,5.62-5.36,6.72l3.95,5.68c1.69,2.41,2.8,4,5.7,4.23l.77.06v2.28ZM793.51,92.31h2.54c-1.52-.92-2.52-2.36-3.63-3.93l-5.29-7.59c-.46.16-.97.3-1.5.39l.04.05,7.83,11.07ZM779.27,92.31h3.18c-.69-.8-.74-2.08-.74-3.86v-18.84l.69-.11h-3.13c.69.8.74,2.08.74,3.86v15.09c0,1.78-.05,3.06-.74,3.86M787.74,69.59c2.08.87,3.45,2.95,3.45,5.58s-1.22,4.36-3.4,5.36l.52-.11c1.57-.34,5.23-1.53,5.23-5.39,0-1.18-.45-4.82-5.79-5.43M783.39,71.04v8.65c2.31,0,6.12-.62,6.12-4.52,0-2.55-1.65-4.34-4.01-4.34-.7,0-1.39.1-2.11.21"></path>
        <path class="cls-13" d="M823.86,80.78c0,6.89-5.42,12.47-12.12,12.47s-12.12-5.58-12.12-12.47,5.42-12.47,12.12-12.47,12.12,5.58,12.12,12.47"></path>
        <path class="cls-8" d="M816.84,38.32c0,2.34-1.84,4.18-4.23,4.18s-4.26-1.84-4.26-4.18,1.89-4.13,4.26-4.13,4.23,1.84,4.23,4.13M809.41,38.32c0,1.84,1.36,3.3,3.22,3.3s3.15-1.46,3.15-3.27-1.33-3.32-3.17-3.32-3.2,1.49-3.2,3.3M811.95,40.48h-.96v-4.13c.38-.08.91-.13,1.59-.13.78,0,1.13.13,1.44.3.23.18.4.5.4.91,0,.45-.35.81-.86.96v.05c.4.15.63.45.76,1.01.13.63.2.88.3,1.03h-1.03c-.13-.15-.2-.53-.33-1.01-.08-.45-.33-.65-.86-.65h-.45v1.66ZM811.97,38.14h.45c.53,0,.96-.18.96-.6,0-.38-.28-.63-.88-.63-.25,0-.43.03-.53.05v1.18Z"></path>
      </g>
    </g>
  </g>
</svg>
