<svg width="105" height="25" viewBox="0 0 105 25" fill="none" xmlns="http://www.w3.org/2000/svg">
<g clip-path="url(#clip0_2293_3053)">
<path d="M104.404 18.1375L101.776 13.6061C102.642 13.237 103.353 12.5802 103.791 11.7469C104.228 10.9135 104.364 9.95476 104.176 9.03271C103.987 8.11066 103.487 7.2819 102.758 6.6866C102.029 6.09129 101.117 5.76596 100.176 5.76563H94.4101C94.3154 5.76523 94.2215 5.7836 94.1339 5.81968C94.0463 5.85576 93.9667 5.90883 93.8997 5.97583C93.8327 6.04283 93.7796 6.12244 93.7435 6.21006C93.7074 6.29767 93.6891 6.39157 93.6895 6.48632V18.4978C93.6895 18.689 93.7654 18.8723 93.9005 19.0074C94.0357 19.1426 94.219 19.2185 94.4101 19.2185H94.8906C95.0817 19.2185 95.2651 19.1426 95.4002 19.0074C95.5354 18.8723 95.6113 18.689 95.6113 18.4978V13.9334H99.8153L102.674 18.8582C102.737 18.9678 102.828 19.0588 102.938 19.1221C103.048 19.1853 103.172 19.2186 103.299 19.2185H103.788C103.915 19.2186 104.039 19.1853 104.149 19.1221C104.258 19.0589 104.349 18.9679 104.413 18.8584C104.476 18.7488 104.509 18.6245 104.509 18.4979C104.509 18.3714 104.476 18.2471 104.413 18.1375H104.404ZM95.6113 7.68747H100.176C100.749 7.68747 101.299 7.91526 101.704 8.32073C102.11 8.72619 102.338 9.27612 102.338 9.84954C102.338 10.423 102.11 10.9729 101.704 11.3784C101.299 11.7838 100.749 12.0116 100.176 12.0116H95.6113V7.68747Z" fill="#142149"/>
<path d="M89.6055 5.76563H79.5159C79.4211 5.76523 79.3272 5.7836 79.2396 5.81968C79.152 5.85576 79.0724 5.90883 79.0054 5.97583C78.9384 6.04283 78.8853 6.12244 78.8492 6.21006C78.8131 6.29767 78.7948 6.39157 78.7952 6.48632V6.96678C78.7948 7.06153 78.8131 7.15543 78.8492 7.24305C78.8853 7.33066 78.9384 7.41027 79.0054 7.47727C79.0724 7.54427 79.152 7.59734 79.2396 7.63342C79.3272 7.6695 79.4211 7.68787 79.5159 7.68747H83.5998V18.4978C83.5998 18.689 83.6757 18.8723 83.8109 19.0074C83.946 19.1426 84.1293 19.2185 84.3205 19.2185H84.8009C84.9918 19.2177 85.1747 19.1415 85.3097 19.0065C85.4446 18.8716 85.5208 18.6887 85.5216 18.4978V7.68747H89.6055C89.7967 7.68747 89.98 7.61154 90.1151 7.47639C90.2503 7.34123 90.3262 7.15792 90.3262 6.96678V6.48632C90.3262 6.39168 90.3076 6.29796 90.2713 6.21052C90.2351 6.12309 90.182 6.04364 90.1151 5.97672C90.0482 5.90979 89.9688 5.85671 89.8813 5.82049C89.7939 5.78427 89.7002 5.76563 89.6055 5.76563Z" fill="#142149"/>
<path d="M79.0355 17.2967H72.5493V6.48632C72.5497 6.39157 72.5313 6.29767 72.4952 6.21006C72.4592 6.12244 72.4061 6.04283 72.3391 5.97583C72.2721 5.90883 72.1925 5.85576 72.1049 5.81968C72.0172 5.7836 71.9234 5.76523 71.8286 5.76563H71.3481C71.2534 5.76523 71.1595 5.7836 71.0719 5.81968C70.9843 5.85576 70.9046 5.90883 70.8376 5.97583C70.7706 6.04283 70.7176 6.12244 70.6815 6.21006C70.6454 6.29767 70.6271 6.39157 70.6274 6.48632V18.4978C70.6274 18.689 70.7034 18.8723 70.8385 19.0074C70.9737 19.1426 71.157 19.2185 71.3481 19.2185H79.0355C79.2266 19.2185 79.4099 19.1426 79.5451 19.0074C79.6803 18.8723 79.7562 18.689 79.7562 18.4978V18.0174C79.7566 17.9226 79.7382 17.8287 79.7021 17.7411C79.6661 17.6535 79.613 17.5739 79.546 17.5069C79.479 17.4399 79.3994 17.3868 79.3118 17.3507C79.2241 17.3146 79.1303 17.2963 79.0355 17.2967Z" fill="#142149"/>
<path d="M66.7837 6.48632C66.7841 6.39157 66.7658 6.29767 66.7297 6.21006C66.6936 6.12244 66.6405 6.04283 66.5735 5.97583C66.5065 5.90883 66.4269 5.85576 66.3393 5.81968C66.2517 5.7836 66.1578 5.76523 66.063 5.76563H65.5826C65.4878 5.76523 65.3939 5.7836 65.3063 5.81968C65.2187 5.85576 65.1391 5.90883 65.0721 5.97583C65.0051 6.04283 64.952 6.12244 64.9159 6.21006C64.8799 6.29767 64.8615 6.39157 64.8619 6.48632V13.9334C64.8619 14.8891 64.4822 15.8057 63.8065 16.4815C63.1307 17.1572 62.2141 17.5369 61.2584 17.5369C60.3028 17.5369 59.3862 17.1572 58.7104 16.4815C58.0346 15.8057 57.655 14.8891 57.655 13.9334V6.48632C57.655 6.29518 57.5791 6.11187 57.4439 5.97672C57.3088 5.84156 57.1254 5.76563 56.9343 5.76563H56.4538C56.3591 5.76523 56.2652 5.7836 56.1776 5.81968C56.09 5.85576 56.0104 5.90883 55.9434 5.97583C55.8764 6.04283 55.8233 6.12244 55.7872 6.21006C55.7511 6.29767 55.7328 6.39157 55.7332 6.48632V13.9334C55.7332 15.3988 56.3153 16.8042 57.3515 17.8404C58.3877 18.8766 59.793 19.4587 61.2584 19.4587C62.7238 19.4587 64.1292 18.8766 65.1654 17.8404C66.2016 16.8042 66.7837 15.3988 66.7837 13.9334V6.48632Z" fill="#142149"/>
<path d="M52.1298 5.76564H51.6763C51.532 5.76475 51.3907 5.80759 51.2712 5.88853C51.1517 5.96947 51.0595 6.08471 51.0067 6.21907L46.8447 16.621L42.6827 6.21907C42.63 6.08471 42.5377 5.96947 42.4182 5.88853C42.2987 5.80759 42.1574 5.76475 42.0131 5.76564H41.5596C41.4419 5.76558 41.3259 5.79439 41.2218 5.84953C41.1178 5.90468 41.0288 5.98449 40.9627 6.08197C40.8967 6.17945 40.8555 6.29164 40.8428 6.40873C40.8301 6.52581 40.8463 6.64421 40.89 6.75358L45.6946 18.7651C45.7477 18.8992 45.84 19.0142 45.9595 19.0951C46.0789 19.176 46.22 19.219 46.3642 19.2185H47.3252C47.4694 19.219 47.6105 19.176 47.7299 19.0951C47.8494 19.0142 47.9417 18.8992 47.9948 18.7651L52.7994 6.75358C52.8431 6.64421 52.8593 6.52581 52.8466 6.40873C52.8339 6.29164 52.7927 6.17945 52.7267 6.08197C52.6606 5.98449 52.5716 5.90468 52.4676 5.84953C52.3635 5.79439 52.2475 5.76558 52.1298 5.76564Z" fill="#142149"/>
<path d="M10.0448 0.672647C9.91531 0.466289 9.73548 0.296268 9.52219 0.178592C9.30891 0.060917 9.06918 -0.000541502 8.82559 3.5946e-06H1.44152C1.18375 2.2111e-05 0.93071 0.0691641 0.70875 0.200226C0.486791 0.331287 0.304039 0.519473 0.179534 0.745176C0.0550295 0.970879 -0.00667151 1.22584 0.000859609 1.4835C0.00839072 1.74115 0.0848783 1.99207 0.222353 2.21012L1.72379 4.61242L11.5462 3.07495L10.0448 0.672647Z" fill="#C9F4FF"/>
<path d="M11.5579 3.07499C11.4285 2.86863 11.2487 2.69861 11.0354 2.58094C10.8221 2.46326 10.5824 2.4018 10.3388 2.40235H2.9547C2.69694 2.40237 2.44389 2.47151 2.22193 2.60257C1.99997 2.73363 1.81722 2.92182 1.69272 3.14752C1.56821 3.37322 1.50651 3.62818 1.51404 3.88584C1.52157 4.14349 1.59806 4.39442 1.73554 4.61246L3.85557 7.97568L13.678 6.43821L11.5579 3.07499Z" fill="#51B9FF"/>
<path d="M3.85551 7.97574C3.71112 7.74527 3.63414 7.47897 3.6333 7.20701C3.6333 6.82473 3.78516 6.45811 4.05547 6.1878C4.32578 5.91749 4.6924 5.76563 5.07468 5.76563H12.4587C12.7023 5.76508 12.9421 5.82654 13.1554 5.94422C13.3686 6.06189 13.5485 6.23191 13.6779 6.43827L20.2842 16.9183C20.4293 17.1484 20.5063 17.415 20.5063 17.687C20.5063 17.9591 20.4293 18.2256 20.2842 18.4558L16.5937 24.3234C16.4638 24.5293 16.2839 24.699 16.0707 24.8166C15.8575 24.9342 15.618 24.9959 15.3745 24.9959C15.1311 24.9959 14.8916 24.9342 14.6784 24.8166C14.4652 24.699 14.2852 24.5293 14.1554 24.3234L3.85551 7.97574Z" fill="#007BFC"/>
<path d="M22.4764 11.1106C22.6058 11.3186 22.7861 11.4901 23.0002 11.609C23.2143 11.7279 23.4552 11.7903 23.7001 11.7903C23.945 11.7903 24.1858 11.7279 24.3999 11.609C24.614 11.4901 24.7943 11.3186 24.9237 11.1106L26.1849 9.09871L28.6053 5.25803C28.7504 5.02789 28.8274 4.76137 28.8274 4.4893C28.8274 4.21723 28.7504 3.95071 28.6053 3.72056L26.6834 0.672647C26.554 0.466289 26.3742 0.296268 26.1609 0.178592C25.9476 0.060917 25.7079 -0.000541502 25.4643 3.5946e-06H18.0802C17.8224 2.2111e-05 17.5694 0.0691641 17.3474 0.200226C17.1255 0.331287 16.9427 0.519473 16.8182 0.745176C16.6937 0.970879 16.632 1.22584 16.6395 1.4835C16.6471 1.74115 16.7236 1.99207 16.861 2.21012L22.4764 11.1106Z" fill="#007BFC"/>
</g>
<defs>
<clipPath id="clip0_2293_3053">
<rect width="104.5" height="24.9839" fill="white"/>
</clipPath>
</defs>
</svg>
