<svg width="28" height="29" viewBox="0 0 28 29" fill="none" xmlns="http://www.w3.org/2000/svg">
<path d="M14.0007 3.28125C7.56765 3.28125 2.33398 8.51492 2.33398 14.9479C2.33398 21.3809 7.56765 26.6146 14.0007 26.6146C20.4337 26.6146 25.6673 21.3809 25.6673 14.9479C25.6673 8.51492 20.4337 3.28125 14.0007 3.28125ZM14.0007 24.2813C8.85449 24.2813 4.66732 20.0941 4.66732 14.9479C4.66732 9.80175 8.85449 5.61458 14.0007 5.61458C19.1468 5.61458 23.334 9.80175 23.334 14.9479C23.334 20.0941 19.1468 24.2813 14.0007 24.2813Z" fill="#1A1B1D"/>
<path d="M11.6654 16.8013L8.98327 14.1238L7.33594 15.7758L11.6678 20.0983L19.4914 12.2747L17.8418 10.625L11.6654 16.8013Z" fill="#1A1B1D"/>
</svg>
